<?xml version="1.0" encoding="UTF-8"?>
<svg xmlns="http://www.w3.org/2000/svg" version="1.1" viewBox="0 0 1366 769">
  <defs>
    <style>
      .cls-1 {
        fill: #f98984;
      }

      .cls-2 {
        fill: #fdcccd;
      }

      .cls-3 {
        fill: #fc9792;
      }

      .cls-4 {
        fill: #ce555b;
      }

      .cls-5 {
        fill: #b41a20;
      }

      .cls-6 {
        fill: #fff;
        stroke: #000;
        stroke-miterlimit: 10;
      }

      .cls-7 {
        fill: #fefefe;
      }

      .cls-8 {
        fill: #580a2d;
      }

      .cls-9 {
        fill: #605e5e;
        font-family: HelveticaNeue, 'Helvetica Neue';
        font-size: 60px;
      }

      .cls-10 {
        fill: #b2d6fe;
      }
    </style>
  </defs>
  <!-- Generator: Adobe Illustrator 28.6.0, SVG Export Plug-In . SVG Version: 1.2.0 Build 709)  -->
  <g>
    <g id="Layer_1">
      <path class="cls-6" d="M0,0h1365.2c1.6,2.5,1.2,6.2,1.2,9.1v699.6s0,40.1,0,40.1c0,5.5.7,12.3-.2,17.6-.1.8-.5,1.6-1,2.3H0V0Z"/>
      <path class="cls-8" d="M1121.7,306.9c0-.1,0-.2,0-.4,0-2.7-1.4-5.1-.7-7.7,2.3-1.9,9.1-1,12.1-.7,4.5.5,10.3,1.4,13.4,4.9,1.5,1.8,2,4,1.8,6.3-.3,3.1-3.1,9.9-5.6,11.7-.5.4-.5.3-1,.5-.3-2.4.5-5.4,1-7.8-1.1-3.1-12.8-2.5-16.1-3.6-1.8-.6-3.4-2.1-4.9-3.3Z"/>
      <path class="cls-4" d="M223.1,548.5c2.5-1.7,4.3-15.5,6.3-19.3,1.6-.5,1.9-.4,3.5,0,4,3.4,4.6,12.3,5.8,17.5-5,5.4-15.3,16.5-18.4,22.6l-1.5-.7c1.1-6.2,1.7-14.4,4.3-20.1Z"/>
      <path class="cls-10" d="M1049.3,371.3c10.9,0,21.9,0,32.8.2-.6,5.2-11.5,18.9-14.6,24.1-.7-4-14.7-21-18.2-24.3Z"/>
      <path class="cls-3" d="M1121.7,306.9c1.4,1.2,3.1,2.7,4.9,3.3,3.4,1.1,15,.4,16.1,3.6-.4,2.3-1.3,5.4-1,7.8-.4,7.3-1.5,13.5,3.7,19.4,1.4,1.6,3,3,3.7,4.9,0,.1,0,.2.1.3h-32.2c0,.1.5-.2.5-.2,1.2-.7,2.5-1.4,3.6-2.3,3.5-3,6.9-8.3,7.2-13.1.1-2.2-.5-3.6-1.9-5.2-1.1-.2-2.6-.4-3.6-1-4.8-2.9-.1-13-1.1-17.6Z"/>
      <path class="cls-4" d="M207.5,339.2c3.3-2.7,4.3-6.1,4.7-10.3.6-5.6-2.8-18.2,1.3-22,1.8-1.6,11.4-2.6,13.9-2.4,1.2.1,2,.7,2.7,1.6,1.5,1.9,1.9,5.5,2.3,7.9-1.3,2.5-3.1,6.9-5.4,8.4-.7.4-3.5.8-3.8,1.3-.8,1.1-.2,3.4.2,4.6,1.1,3.3,5.4,11.7,8.8,13,.2,0,.3,0,.5.1.2,2.4.1,5.1.6,7.4-1.9,5.7-4.2,10.9-6.9,16.3,1.2,4.4,5.3,15.3,3.9,19.3l-.7-.2c-2-3.7-3.5-14.9-5.5-20.6-5-4.5-17.2-13.9-19.6-20.1,3.3,1.6,15.6,14.7,18.9,17.7l-.2-.4c-4.6-7.8-11.7-13.8-15.7-21.9Z"/>
      <path class="cls-1" d="M1026.8,358.3c8.3.4,14,2.9,19.5,9.1.7.8,1.3,1.4,1.6,2.4l1.3,1.4c3.5,3.3,17.6,20.4,18.2,24.3,1.6,1.1,2.8,2,3.3,3.9-5.6-1.9-10.8-13.9-15.7-18.2-6.6,4.8-33.4,10.6-43.3,14.2h-.7c0-3.1-5.6-10-7.2-13.2-1.2-2.3-1.5-4.6-2.9-6.9,3.5-3.5,7-9.8,12-11.1,2-.5,4.5,0,6.3-.9,2.4-1.1,3.7-3.5,6.4-3.8.1,0,.2,0,.4,0l.6-1.2Z"/>
      <path class="cls-8" d="M189.5,341.6c-2.9-1.6-5.1-3.6-7-6.3-7.4-10.2,7.3-13.8,9-18.1.6-1.6-.7-4.8-.3-6.8.8-4.2,5.7-5.2,8.6-7.6,1.5-1.3.9-3.9,1-5.7.1-2,.8-3.8,2.4-5.1,1.2-.9,2.8-1.6,4.3-1.8,3.1-.4,6.3.5,9.4.4,4.1-.2,7.9-1.7,12.1-.9,4.7.9,8.6,4,11.2,7.9,10.9,16.4-4.1,20.3-5,26.1-.7,4.5,3.8,8.2,2.7,12.4-.7,2.6-2.9,4.2-5.1,5.4-.2,0-.3,0-.5-.1-3.4-1.4-7.7-9.7-8.8-13-.4-1.2-1-3.5-.2-4.6.4-.5,3.1-.9,3.8-1.3,2.4-1.5,4.2-6,5.4-8.4-.4-2.4-.8-5.9-2.3-7.9-.7-.9-1.5-1.5-2.7-1.6-2.5-.3-12.1.7-13.9,2.4-4.1,3.8-.7,16.4-1.3,22-.5,4.2-1.4,7.6-4.7,10.3-6.1.4-12,1.3-18,2.4Z"/>
      <path class="cls-4" d="M361.5,319.1c2.9-3.2,7.6-8.5,12.3-8.5,1.4,0,2.5.4,3.5,1.3,1.7,1.6,2.2,4.2,2.4,6.5-.4,2.2-.1,3.6,1.1,5.4.3.4.6.9.9,1.3,2.9,4.2,8.1,9.7,8.6,14.9-2.1,6.2-5,11.8-8.5,17.3,1.3,32.6.5,65.3.5,97.9v30.8c.2,5.5.6,11.5,0,17-1.7-6.2-.7-29.2-.8-37.1,0,4.9-.1,9.8-.5,14.7-1.7-10.8-.5-28.1-.5-39.4l-.2-81.6c-3.6,4.5-3.8,8.2-6.2,13.1-2.7,5.5-8.2,10.9-12.4,15.3-22.5,22.9-55.7,36.2-87.6,36.6-1.5-4.7-1.8-17.6-2.6-23.4-1.5-11-4.3-21.5-7.2-32.2,0,0,.2.1.3.2,6.6,6.8,10.3,44,10.6,53.9,7.2,0,14.6-.9,21.7-2.4,32.1-6.6,60.3-25,78.3-52.3-11-11.8-23.6-21.6-36.9-30.8l-.5-.9c1.1-.4,1.7-.7,2.6-1.5,0,0,.2-.1.2-.2l.6-10.5c.1-2.1,0-4.3,0-6.4.7-2,1.2-3,2.8-4.5,1.8-.4,2.5-.5,4.2.5,1.8,1,3.2,3.3,4.3,5,3.1-.4,6-.5,9.1,0Z"/>
      <path class="cls-7" d="M352.3,319.1c3.1-.4,6-.5,9.1,0-1.3,1.6-2.5,3.4-4.5,4.1-2.1-.5-3.3-2.5-4.6-4.1Z"/>
      <path class="cls-10" d="M1104.7,379.6c6.6-1.4,34.4-1.7,39.5,1.4,2.8,1.7,5.9,16.8,6.6,20,0,.3,0,.6.1.9,2.5.9,6.5,1.4,8.7,2.7,2.7,3.5,6.9,27.1,6.4,32-2.2,0-4.6-.1-6.5,1.1l-.3.7c-.8,1.5-1.2,2.7-2.8,3.5-.4.2-.5.3-.9.4-5.5,1.1-12.7-.1-18.3,0-6.3,0-16.2,1.7-21.7-1.2-6.6-3.4-10.9-39.6-18.6-44.2.4-1.1.6-1.8.5-2.9l-1.6.9c1.1-3.5.3-5-.4-8.4-.4-2.1-.3-2.9.8-4.7,2.5-1.3,5.3-.9,8.1-1.1l.5-1.2Z"/>
      <path class="cls-1" d="M1104.7,379.6c6.6-1.4,34.4-1.7,39.5,1.4,2.8,1.7,5.9,16.8,6.6,20,0,.3,0,.6.1.9,2.5.9,6.5,1.4,8.7,2.7,2.7,3.5,6.9,27.1,6.4,32-2.2,0-4.6-.1-6.5,1.1l-.3.7c-.8,1.5-1.2,2.7-2.8,3.5.5-.8,1-1.7,1.1-2.6.1-3.3-12.8-3.9-18.2-9.6-3.6-3.9-7.1-13.3-6.9-18.7,0-1.9.6-3.8,2.1-5,4-3.2,10.2-2,15-1.7,0-.1,0-.2,0-.3,0-.6.1-1.2.1-1.8,0-3.7-3.6-16.6-6.4-19.3-5.2-5-20.3-1.5-27.1-1.5-3.1,0-9.2.3-11.4-1.9Z"/>
      <path class="cls-8" d="M218.8,568.6l1.5.7c-1.6,12-3.6,24-5.2,36.1,2.2,4.6,1.7,35.2,1.6,42.4,8.6,0,51.8-1.2,55.9.6,5.4,6.7,23.1,18.6,30.8,24.7-50.8-1.4-102.3-.3-153.1-.2.6-8.3.9-16.6,1.6-24.9,18.4,0,36.9-.2,55.3-.4,5.2-25.9,8.4-52.8,11.6-79Z"/>
      <path class="cls-1" d="M261.6,659.7l1.9.4.6,1.2c-1,2.5-3.5,4.6-5.4,6.5-.8,0-1.5-.5-2.2-.8l-.2-1.3c1.1-2.4,3.4-4.2,5.3-6Z"/>
      <path class="cls-1" d="M193.3,658.5c1.4.6,1.4.5,2,1.8-1.1,2.8-4.2,5.2-6.3,7.3-.8-.3-1.3-.7-1.9-1.2v-1.6c1.3-2.6,4.1-4.5,6.2-6.3Z"/>
      <path class="cls-7" d="M215.1,605.3c2.2,4.6,1.7,35.2,1.6,42.4,0,2,.4,4.2-.9,5.7-2.5-.2-5.5-3.8-7.4-5.4,2.5-14.2,4.4-28.5,6.7-42.7Z"/>
      <path class="cls-4" d="M161,444.5c-2.7-1.5-5.5-3.2-7.9-5.1-9-7.1-14.6-16.9-15.9-28.3-1.8-16.2,5.1-31.8,15.1-44.1,2.9-3.6,9-10.7,13.6-11.1,0,.1-.2.2-.3.3-3.9,4.8-9.2,8.7-13.4,13.5-9.3,10.5-14.7,26.8-13.4,40.8,1,10.6,6.3,20.1,14.6,26.9,6.3,5.2,13.6,8.1,21.2,11,8.8-13.6,15.9-26.5,21.6-41.7-8.8-3.7-17.8-7.2-25.7-12.6l.2-.4c5.3,1.5,9.5,4.2,14.5,6.5,6.3,2.9,12.8,5.5,19.2,8.2,1.8-5.2,3.6-14.4,8.2-17.7,5.1-1.2,38-2.3,41.9.1,1.8,1.1,2.7,2.9,3.4,4.8-2.8,5.1-4.3,11.3-6.2,16.7-4.7,13.6-9.1,27.8-15.9,40.4h-21.3c-6.4,1.6-14.7.7-21.4.5-3.3,6.5-8.3,13.8-14.8,17.4,2.1-4.7,9.4-10.6,13.1-17.7-10.6-2.1-20.3-3.8-30.2-8.3Z"/>
      <path class="cls-3" d="M206.1,408.4c1.7-5,3.3-11.7,6.3-16,1.5-.6,2.8-.8,4.4-.9,5.9-.5,30.8-1.3,35.6,0,1.7.5,3.9,2.7,5.3,3.9-2.8,5.1-4.3,11.3-6.2,16.7-4.7,13.6-9.1,27.8-15.9,40.4h-21.3c11-9.6,15.4-21,19.7-34.5-8-7.8-17.3-8.6-27.9-9.6Z"/>
      <path class="cls-1" d="M238.7,546.7l.7,1.3c6.6,1.2,23.3.3,30.2-.5l2.8.6c1.6,5.5.4,26.4.4,33.5,0,22.2.7,44.6-.3,66.7-4-1.8-47.3-.6-55.9-.6,0-7.2.6-37.8-1.6-42.4,1.5-12,3.5-24,5.2-36.1,3.1-6.1,13.5-17.2,18.4-22.6Z"/>
      <path class="cls-1" d="M158.8,547.2l64.3,1.3c-2.6,5.7-3.2,13.8-4.3,20.1-3.2,26.2-6.4,53.1-11.6,79-18.4.2-36.9.5-55.3.4,2.5-33.5,5.5-67.1,6.9-100.7Z"/>
      <path class="cls-8" d="M1095.6,395l1.6-.9c0,1.2-.1,1.9-.5,2.9.8,3.9-6.9,54.9-8.7,57.3-.2.3-.5.6-.7.8-2.3-.1-6.2-.8-8.2.2l.3-.3c-1.5,3.5,2.3,4.4-1,11.1,2.4.3,4.7.3,7.1.3v1.2s-19,.2-19,.2c-4.5-.3-9.2,0-13.7,0-7.1-.7-14.7-.2-21.9-.1h-43.8c-42.3.1-84.6-.5-126.8.2-4.2-.3-8.5,0-12.7,0-4.4,0-10.5.7-14.1-2.3-1.5-1.3-3.5-3.8-3.5-5.8,0-1.2.5-2.1,1.4-2.9,5.4-5,21.2-3.2,28.3-3.2,2.1-7.1-.2-16,.7-23.5,1.9-.6,4-.8,5.9-1.1h166.7c0-.1.5.6.5.6-3.6,1.8-15.2.7-19.7.7,0,6.5,1.5,31.5-.8,35.9,4.6,0,13.5,1.4,17.7-.4-1-1.5-1.9-3.2-1.9-5,0-2.1.6-4.4,2.1-6,3.8-4,23.2-2,29.1-2.1,8.9.4,18,.2,26.9.2.2-.2.5-.6.6-.9,1.7-3.3,9-54.7,8-57.3Z"/>
      <path class="cls-10" d="M928.6,430.5c1.4,0,5.1-.4,5.9.4.2,10.4,1.3,25.7-.2,35.4-2,.2-3.8.2-5.8,0,.6-.6,1.1-1.5,1.2-2.4.7-4.4.9-28.4,0-31.9-.1-.4-.8-1.2-1.1-1.6Z"/>
      <path class="cls-7" d="M860.5,430.4c22.6,0,45.5-.6,68.1.2.3.4,1,1.2,1.1,1.6,1,3.6.8,27.5,0,31.9-.2.9-.6,1.7-1.2,2.4-5.6.3-15.3,1.9-20.4,0-3.9-1.5-1-6.3-2.5-9.7-5.8-4.9-36.9-2.5-45.9-2.9,2.1-7.1-.2-16,.7-23.5Z"/>
      <path class="cls-10" d="M934.9,430.4c26.3,0,52.7-.5,78.9,0,0,6.5,1.5,31.5-.8,35.9-8.3.9-17.5.2-25.9.2h-52.4c.3-.4.5-.9.7-1.4,1.4-3.6,1.1-31.4-.5-34.8Z"/>
      <path class="cls-8" d="M627,265.2l1.7,1v95c0,18.6-.4,37.3,0,55.9,58.2,0,116.5-.9,174.6.2l.7.8-1,.2-.5-.5-.4.8h-.3c-6.6-.6-13.6-.1-20.2-.1h-39.9c-37.7,0-75.5-.4-113.2,0v174.2c.2,29.2.6,58.4.1,87.6l144-.2c8,0,37.2,1.3,42.8-.2,10.7,0,21.4,0,32.2,0,4,.1,8,.4,12,0l7.6.2c13.1.8,26.4.4,39.6.4h65.8s62.9,0,62.9,0c10.2,0,20.7.6,30.9,0,12.8.7,134.5,1.1,137.7-.5,19.6,0,41.4.9,60.6-.2,9.6.5,45.8-1.7,51.6,1.9,1,1.4,1,1.6,1,3.4-.6,1.1-.8,1.7-1.9,2.4-4.4,2.6-14.6,1.1-19.8,1.2H365c0,0-240.4,0-240.4,0h-42.2c-8.2-.1-22.1,1.7-29.8-.6-2.1-.6-2.9-1.5-3.9-3.3.2-1.7.3-2.1,1.3-3.4,7.5-2.9,46.3-1.3,56.7-1.3l274.1.3v-199.8c.4-4.9.4-9.8.5-14.7,0,8-.9,30.9.8,37.1v177.3c61-.6,122,.6,183-.2,12.6-.3,25.5-.5,38.1,0h23.8s-.1-415-.1-415Z"/>
      <path class="cls-1" d="M1118.9,515.2h8.1c1.8,3.1,5.5,16.8,4.9,20.4,0,.4-.3.9-.4,1.2l43.5.3c7,0,14.5-.5,21.4.3.8.9,1.3,1.8,1.4,2.9.8,5.4.6,11.2.8,16.6l1.5,32.5,1.8,37.6c.3,6,1.1,12.5.7,18.4,0,.9-.4,1.8-.7,2.6,1.5,3.5,2.7,19.7,1.3,23.4-.2.5-.4.9-.7,1.3h-130.5c4.1-3.3,23.8-20.7,24.7-24.7.7-5.8-1.5-13.7-2.1-19.6-2.1-18.9-4.3-37.8-6-56.7-.7-8-.7-29.1-2.8-35,9.1,0,18.3,0,27.4.1,2.8-3,6-16.2,5.8-20.6,0-.3,0-.7-.1-1Z"/>
      <path class="cls-8" d="M1147.1,647.3c0-.1.1-.2.2-.3,1.5-3.7-7.2-76.1-8.4-87.1-.7-6.7-3-16-2.1-22.5,1.1,2,1.5,4.1,1.8,6.3,1.2,9,11.1,100.7,10.6,102.6-.1.5-.2.7-.5,1.1,6.3,0,51.3-.8,53.2.6,1.5,3.5,2.7,19.7,1.3,23.4-.2.5-.4.9-.7,1.3h-130.5c4.1-3.3,23.8-20.7,24.7-24.7,8.7-2.1,39.5-.7,50.5-.7Z"/>
      <path class="cls-4" d="M379.9,197.4h146.3s47.1,0,47.1,0c9.1,0,18.4.4,27.4-.4,1.1.5,1.7.5,2,1.7,1.9,6.1.3,22.8.3,30.1v76.6s.1,374.9.1,374.9c-12.6-.6-25.5-.4-38.1,0V199.2c-61.1,1.1-122.3.3-183.4.3,0,4.2,0,8.4-.2,12.6l-1.6.3c-.4-4.9-.1-10,0-15Z"/>
      <path class="cls-10" d="M381.5,212.1c0,0,.2,0,.3.1,8,3.1,49.1-2,60.2.8,1.9.5,3.3,1.1,4.2,2.9,1.3,2.7.9,112.3-.5,115.9-.6,1.7-2.4,2.8-4.1,3.4-10.3,3.9-44.2-1.9-51.4,1.5,0,1.1,0,2.2,0,3.2-.5-5.2-5.6-10.7-8.6-14.9-.3-.4-.7-.8-.9-1.3-1.2-1.9-1.6-3.2-1.1-5.4-.2-2.2-.7-4.9-2.4-6.5-1-.9-2.1-1.3-3.5-1.3-4.7,0-9.4,5.3-12.3,8.5-3.1-.5-6-.4-9.1,0-1.1-1.6-2.5-4-4.3-5-1.7-1-2.5-.9-4.2-.5-1.7,1.4-2.2,2.5-2.8,4.5,0,2.1.2,4.3,0,6.4l-.6,10.5c-4.1-1.5-10.8-.8-15.2-.8-10.4,0-51.5,1.5-58.4-1.2-1.3-3-1.9-6-2.1-9.3-.8-11.9,0-24.2,0-36.2-.1-23.2,0-46.4.2-69.6,1.3-1.6,2.9-3.9,4.9-4.6,6.3-2,16-.7,22.7-.7h57.3c9.8,0,20.6,1,30.2-.4l1.6-.3Z"/>
      <path class="cls-7" d="M390.4,237.6c1.5,0,3.2-.2,4.6.2.3,0,.5.2.8.3.3.1.5.2.8.3.3.1.5.3.7.4.2.2.5.3.7.5.2.2.4.4.6.5.2.2.4.4.6.6.2.2.4.4.5.7.2.2.3.5.5.7,1.1,2,1.4,4.1.7,6.2-.9,3.1-2.7,4.3-5.4,5.9-.8,0-1.6,0-2.4-.1-3-.2-5.3-.9-7.3-3.4-1.3-1.7-1.7-3.7-1.3-5.8.7-3.5,3-5.2,5.8-7Z"/>
      <path class="cls-7" d="M317.7,240.9c1.3-.1,2.7-.2,4,0,2.1.3,3.2,1.4,4.4,3,.3,1.3.4,2.4,0,3.7-1.7,7-8.2,11.3-13.9,14.7l-6.5,2.7c.2-3.5.4-7,1.3-10.4,1.6-6.4,5.2-10.3,10.7-13.6Z"/>
      <path class="cls-4" d="M355.5,233.7c7.9-.4,15.1,1.5,21,7,7.2,6.5,9.7,14.3,10.1,23.7,5.5,1.5,10.2,3.2,14.3,7.3.3.3.5.5.8.8.2.3.5.5.7.8.2.3.5.6.7.9s.4.6.6.9c.2.3.4.6.6.9.2.3.4.6.5,1,.2.3.3.7.5,1,.2.3.3.7.5,1,.1.3.3.7.4,1,.1.3.2.7.4,1,.1.4.2.7.3,1.1,0,.4.2.7.2,1.1,0,.4.1.7.2,1.1,0,.4.1.7.1,1.1,0,.4,0,.7,0,1.1,0,.4,0,.7,0,1.1,0,4.2-1.5,8.1-4.5,11-9.4,9.3-28.8,6.4-41.2,6.4-11.3,0-33.7,2-43.3-2.3-4.2-1.9-7.6-5.1-9.2-9.5-1.7-4.7-1.5-10.6.6-15.1,3.7-8,11.7-11.3,19.5-14.1.3-6.8,2-13.2,6.1-18.8,5-6.8,11.8-10.2,20-11.5Z"/>
      <path class="cls-10" d="M381.5,212.1c0,0,.2,0,.3.1,8,3.1,49.1-2,60.2.8,1.9.5,3.3,1.1,4.2,2.9,1.3,2.7.9,112.3-.5,115.9-.6,1.7-2.4,2.8-4.1,3.4-10.3,3.9-44.2-1.9-51.4,1.5,0,1.1,0,2.2,0,3.2-.5-5.2-5.6-10.7-8.6-14.9-.3-.4-.7-.8-.9-1.3-1.2-1.9-1.6-3.2-1.1-5.4h57.6c0,.1,0-95.7,0-95.7l-154.6-.4v96c19.5,0,39,0,58.5-.1,0,2.1.2,4.3,0,6.4l-.6,10.5c-4.1-1.5-10.8-.8-15.2-.8-10.4,0-51.5,1.5-58.4-1.2-1.3-3-1.9-6-2.1-9.3-.8-11.9,0-24.2,0-36.2-.1-23.2,0-46.4.2-69.6,1.3-1.6,2.9-3.9,4.9-4.6,6.3-2,16-.7,22.7-.7h57.3c9.8,0,20.6,1,30.2-.4l1.6-.3Z"/>
      <path class="cls-7" d="M276.8,216.8c55.3,0,110.7-.7,165.9,0v108.3c-20.4,0-40.8.3-61.1,0-.3-.4-.7-.8-.9-1.3-1.2-1.9-1.6-3.2-1.1-5.4h57.6c0,.1,0-95.7,0-95.7l-154.6-.4v96c19.5,0,39,0,58.5-.1,0,2.1.2,4.3,0,6.4-21.4.3-42.8.5-64.2.4v-108.3Z"/>
      <path class="cls-7" d="M1053,467.9c4.5,0,9.2-.3,13.7,0,1.3,20,.8,207.4-.6,210.8l.3,1.9c-10.2.6-20.7,0-30.9,0h-62.9c0,0-65.8,0-65.8,0-13.1,0-26.5.4-39.6-.4l-7.6-.2c-4,.3-8,0-12,0,.2-.4.3-.4.4-.8,1.8-4.9.4-118.7.4-134.5,0-24.2,1.2-49.7,0-73.7,0-1-.3-1.9-.8-2.9,4.2,0,8.5-.3,12.7,0,.9,22.5.2,45.3.2,67.8,0,16.5,1.1,33.5,0,49.9,0,1.2-.3,2-.9,3,64.7.2,129.5,1.5,194.1.4.4-.9.7-1.8.8-2.8.9-9.6.5-114-.4-116.4-.3-.7-.7-1.3-1.2-1.9Z"/>
      <path class="cls-10" d="M1053,467.9c4.5,0,9.2-.3,13.7,0,1.3,20,.8,207.4-.6,210.8l.3,1.9c-10.2.6-20.7,0-30.9,0h-62.9c0,0-65.8,0-65.8,0-13.1,0-26.5.4-39.6-.4,8.1-.7,16.4-.2,24.5-.2h40.7c40.4,0,80.8-.4,121.2.3.4-.7.8-1.5.9-2.2,1.3-6.3.2-21.5.2-28.8,0-16.4,1.1-37.8-.2-53.6,0-1.1-.4-2-1-3l-194.1-.2c.3.4.5.8.6,1.2,1.2,3.2.8,75.1.3,83.3,0,1.1-.4,2.1-.9,3.1-4,.3-8,0-12,0,.2-.4.3-.4.4-.8,1.8-4.9.4-118.7.4-134.5,0-24.2,1.2-49.7,0-73.7,0-1-.3-1.9-.8-2.9,4.2,0,8.5-.3,12.7,0,.9,22.5.2,45.3.2,67.8,0,16.5,1.1,33.5,0,49.9,0,1.2-.3,2-.9,3,64.7.2,129.5,1.5,194.1.4.4-.9.7-1.8.8-2.8.9-9.6.5-114-.4-116.4-.3-.7-.7-1.3-1.2-1.9Z"/>
      <path class="cls-7" d="M860.4,467.9c42.2-.7,84.6,0,126.8,0h43.8c7.2,0,14.8-.7,21.9,0,.5.6.9,1.2,1.2,1.9,1,2.4,1.3,106.8.4,116.4,0,1-.4,1.9-.8,2.8-64.6,1.1-129.5-.2-194.1-.4.6-1,.9-1.8.9-3,1.1-16.4,0-33.4,0-49.9,0-22.5.8-45.3-.2-67.8Z"/>
      <path class="cls-10" d="M1095.1,259c.8.5,1.3,1.1,1.5,2,1.4,6.8.2,27.7.2,35.9,0,18.6.8,37.6,0,56.2,0,1.2-.3,2.5-.8,3.6-1.2,3.1-6.2,7.4-9.1,9.1.6-1.2.9-2.4,1-3.7.7-8.4.7-82.9-.7-86.2-.2-.6-.5-1.1-.8-1.6-8.4,0-40.8-1.3-46.6,1.1,14.9,1.3,30.3.5,45.3.4,1.2,3,1.8,7.7.5,10.8-.2.4-.3.6-.6,1-9.8,0-37-1.4-45,.6,3,2,38.8.9,45.1.9,1.2,3,1.8,7.8.5,10.9-.2.5-.3.6-.6,1.1-13,0-32.9-1.4-44.9.5l-.3.4c14.8,1.2,30.3.7,45.2.4,1.5,2.6,1.9,7.7.9,10.6-.2.6-.6,1.1-1.1,1.5-6.9,0-41.7-1.4-45.4,1.2,6.4,1.8,36.5.6,45.3.6,1.8,2.8,1.8,6.1,1.1,9.4-.2.8-.5,1.3-.9,2-13.8,0-30.5-1.4-43.9.4l-.2.5c11.4,1.8,31.7.5,44.1.5,1.6,2.8,1.7,7.9.8,11-.2.6-.4,1-.8,1.5-5.9,0-41.1-1-43.3.9-.8-.1-1-.3-1.8,0,14.9,1.3,30.2.6,45.2.6,1.3,3.2,1.8,8.3.5,11.6-.2.4-.4.8-.6,1.2-11.1,0-35.4-1.4-45,.4l-.8.9c4.2,1.9,38.4.6,45.8.6,1.6,2.9,1.7,7.3.6,10.4-.2.6-.5,1.1-.8,1.7-12.2.7-24.5-.5-36.8.2-.3-1-.9-1.6-1.6-2.4-5.6-6.2-11.3-8.7-19.5-9.1l-.6,1.2c-.1,0-.2,0-.4,0-2.7.4-4,2.8-6.4,3.8-1.8.8-4.4.4-6.3.9-5,1.3-8.5,7.6-12,11.1,1.4,2.3,1.7,4.6,2.9,6.9,1.6,3.2,7.3,10.1,7.2,13.3h.7c3.7,4.6,21.1,28.9,21.2,33.6h-166.7c-12.2-1.1-25.4,0-37.7,0,.4-.7.8-1.4.9-2.1.9-4.2.2-9.9.2-14.3v-32.7s0-76.7,0-76.7c0-13.2.4-26.4,0-39.6,0-1.7-.2-2.8-1.1-4.2,4.4,0,22.4,1.2,25.6-.5,9.1,1.3,19.2.3,28.4.2l56.3-.2h109.9c15.4,0,30.8.4,46.1,0Z"/>
      <path class="cls-7" d="M843.8,273.9c6.5-1.1,38.1-1.3,44.1,0l-.2.5c-6.9,1.9-33.6.6-42.5.5.1.3.3.5.4.8,1.6,3.3,1,7.6-.2,11,13.8,0,28.7-1.5,42.4.6v.4c-14,1.1-28.3.5-42.3.5.3.6.6,1.1.8,1.7,1,3,.5,6.8-.9,9.6h27.7c4.2-.2,8.8-.6,12.9,0,1.1.1,1.9.2,2.6,1.1-7,1.8-34.2.7-43.3.7.3.6.7,1.2.9,1.9.9,2.7.6,6.6-.7,9,11.1,0,33-1.7,43.1,1-5.5,2.1-35,.7-42.8.6.2.4.3.6.4,1,1,3.4,1,7.1-.8,10.2,7.5,0,38.5-1.3,43,.6l-.6.7c-7.7,1.8-32.9.5-42.4.4.2.4.5.8.6,1.2,1.4,3.1.5,7.1-.6,10.1,11.5,0,31.2-1.5,41.8.7-.2,0-1,0-1.2,0-7.5,2.1-31.2.7-40.3.7.3.4.4.5.5,1.1.9,2.8.5,7.8-.9,10.3h15.3c5.6,0,23.7-1.2,27.7.8-10.1,2.4-31.4,1-42.9,1.1.2.4.5.8.7,1.2,1.4,3,.7,7-.4,10,8.3,0,36.6-1.3,42.3.6l-.4.6c-7.3,1.9-33,.5-42.2.5.3.5.5.9.7,1.4.9,3,.5,7.1-.8,9.8,13.6-.1,27.2,0,40.8.1l.6.8h1c-13.3,2-28.6.6-42.2.5.3.5.6,1,.8,1.6,1.2,4.2,1,38.8-.8,41.8,7.9,0,63.4-1,66.1,0,.4.1.6.5.9.8l1.3-.4-1.1-.3.6.5c-8.8,1.5-18.4.8-27.3.8h-42.6c.1,0,.2-.2.3-.4,1.1-2,1.7-144,.4-149Z"/>
      <path class="cls-4" d="M946.9,279.3c2.8-.3,6-.9,8.7,0,1.7.6,3.3,1.8,4,3.5,1.4,3.4,4.6,86.5,4.1,95.2-.2,4-1.1,7.9-2.9,11.5-2.4,4.9-6.2,9-11.5,10.8-7.8,2.6-15.1-.1-22.1-3.5-.8-1.4-2.4-2.6-3.5-3.7-4.1-4.3-8.2-9.3-10.3-14.9-8.2-21.7-7.2-48.5,2.6-69.5,6.6-14.2,16.1-23.8,30.9-29.3Z"/>
      <path class="cls-4" d="M970.5,283c2.3-3.2,4-4.8,7.9-5.4,7.2-1.2,16.7,3.1,22.4,7.3,15.3,11.3,23.1,32,25.6,50.2.9,6.8,2.3,16.6.4,23.3l-.6,1.2c-.1,0-.2,0-.4,0-2.7.4-4,2.8-6.4,3.8-1.8.8-4.4.4-6.3.9-5,1.3-8.5,7.6-12,11.1,1.4,2.3,1.7,4.6,2.9,6.9,1.6,3.2,7.3,10.1,7.2,13.3-3.9,3-7.9,5.6-12.8,6.8-6.2,1.4-12.7,0-18-3.4-14.1-9.1-11.6-27.8-11.5-42.3,0-3,.3-6.3-.3-9.2,0-.1,0-.2,0-.3,1.1-14.1.4-28.7.2-42.9,0-5.8-.6-12.1.2-17.9.2-1.4.8-2.3,1.7-3.3Z"/>
      <path class="cls-7" d="M970.5,283c1.6,3.6,1.6,56,.5,63.1-.8.3-1.6.7-2.5,1,1.1-14.1.4-28.7.2-42.9,0-5.8-.6-12.1.2-17.9.2-1.4.8-2.3,1.7-3.3Z"/>
      <path class="cls-7" d="M381.7,199.5c61.1,0,122.3.8,183.3-.3v480.9c-60.9.8-121.9-.4-182.8.2v-177.3c.6-5.5.1-11.5.1-17v-30.8c-.2-32.6.6-65.3-.6-97.9,3.5-5.5,6.4-11.1,8.5-17.3,0-1.1,0-2.2,0-3.2,7.1-3.4,41.1,2.4,51.4-1.5,1.6-.6,3.4-1.7,4.1-3.4,1.4-3.6,1.8-113.2.5-115.9-.9-1.8-2.3-2.5-4.2-2.9-11.1-2.8-52.2,2.4-60.2-.8-.1,0-.2,0-.3-.1.2-4.2.3-8.4.2-12.6Z"/>
      <path class="cls-4" d="M518.2,443.8c3,0,6,.5,8.1,2.8,1.2,1.3,1.8,3,1.6,4.8-.3,3.3-2.5,5.2-4.9,7.1-1.2,0-2.6.1-3.8,0-2.1-.3-4.1-1.6-5.3-3.3-.1-.2-.2-.4-.4-.6-.1-.2-.2-.4-.3-.6s-.2-.4-.2-.6c0-.2-.1-.4-.2-.6,0-.2,0-.4-.1-.7,0-.2,0-.4,0-.7s0-.4,0-.7c0-.2,0-.4.1-.7.7-3.2,2.7-4.7,5.2-6.4Z"/>
      <path class="cls-4" d="M519.3,556.4c.8.1,1.5.2,2.2.4,2.3.6,4.5,2.3,5.6,4.4,1,1.9,1.1,4,.4,6-1,2.8-3,3.8-5.5,4.9-1-.1-2.1-.2-3.1-.5-2.1-.6-4.2-2-5.2-3.9-.9-1.6-1-3.4-.5-5.1,1-3.4,3.4-4.6,6.2-6.2Z"/>
      <path class="cls-4" d="M472.3,443.7c1,0,2,0,3,0,2.3,0,4.2,1.1,5.7,2.8,1.3,1.6,1.8,3.6,1.5,5.6-.6,3.2-2.7,4.9-5.2,6.6-2.9,0-5.9-.2-8.1-2.4-1.3-1.3-2-3-1.8-4.8.2-3.7,2.4-5.5,5-7.7Z"/>
      <path class="cls-4" d="M426.9,557.2c1.3,0,2.8,0,4.1.2,2,.3,4.1,1.9,5.3,3.6,1,1.5,1.4,3.3,1,5.1-.7,3.1-2.8,4.6-5.3,6.1-.8,0-1.6,0-2.4,0-2.5-.2-4.7-1.2-6.3-3.2-.1-.2-.3-.4-.4-.5-.1-.2-.2-.4-.3-.6-.1-.2-.2-.4-.3-.6,0-.2-.2-.4-.2-.6,0-.2-.1-.4-.1-.7,0-.2,0-.4,0-.7,0-.2,0-.4,0-.7,0-.2,0-.4,0-.7.5-3.3,2.5-4.9,5-6.7Z"/>
      <path class="cls-4" d="M473.1,556.4c1.2,0,2.4.2,3.6.6,2.2.7,4.3,2.5,5.3,4.6.1.2.2.5.3.7,0,.2.2.5.2.7,0,.2.1.5.1.8,0,.3,0,.5,0,.8,0,.3,0,.5,0,.8,0,.3,0,.5-.1.8,0,.3-.1.5-.2.7,0,.2-.2.5-.3.7-1.1,2.6-3,3.5-5.4,4.6-1,0-2-.1-2.9-.3-2.2-.3-4.4-1.9-5.6-3.7-1-1.6-1.3-3.4-.9-5.2.7-3.3,3.1-4.9,5.8-6.5Z"/>
      <path class="cls-4" d="M427.7,443.2c.7,0,1.4,0,2.1,0,2.2.2,4.3,1.3,5.6,3.1,1.3,1.7,1.5,3.8,1.1,5.8-.7,3.6-2.8,5.2-5.7,7-1.2,0-2.4-.1-3.5-.4-2.2-.5-4.1-2-5.2-4-1-1.9-1.1-4-.5-6,1.1-3.1,3.2-4.3,6-5.7Z"/>
      <path class="cls-2" d="M466.3,300.3c1.4-.1,3-.2,4.4,0,2.1.4,4.2,2.1,5.3,3.9,1.2,2,1.3,4.3.8,6.4-.8,3.5-2.9,5.1-5.8,6.9h-.8c-3.4-.4-6.3-1.3-8.4-4.1-1.3-1.8-1.8-4-1.3-6.2.7-3.5,3-5.1,5.8-6.9Z"/>
      <path class="cls-2" d="M502.4,279c1.3.2,2.6.5,3.9.9,2.3.8,4,2.4,4.9,4.7.9,2,.7,4.1,0,6-1.3,3.4-3.9,5-7,6.5-1.1-.2-2.1-.4-3.1-.9-2.4-1.1-4.3-3-5.3-5.5-.9-2.3-.9-4.8.3-7,1.4-2.8,3.6-3.8,6.4-4.7Z"/>
      <path class="cls-2" d="M502.4,299.8c.6,0,1.2.2,1.7.3,2.7.5,4.6,1.2,6.2,3.7,1.3,2.1,1.7,4.5,1,6.9-1,3.7-3.1,5.3-6.3,7.1-1.5,0-3-.2-4.4-.7-2.4-.9-4.1-2.9-4.9-5.3-.1-.3-.2-.6-.3-.9,0-.3-.1-.6-.2-.9,0-.3,0-.6,0-1,0-.3,0-.6,0-1,0-.3,0-.6.1-1s.1-.6.2-.9c0-.3.2-.6.3-.9.1-.3.3-.6.4-.9,1.4-2.8,3.4-3.6,6.2-4.5Z"/>
      <path class="cls-2" d="M536.4,278.8c.1,0,.3,0,.4,0,3.1.2,6.4,1.4,8.4,3.9,1.4,1.8,1.8,4,1.4,6.2-.7,3.8-3.3,5.6-6.3,7.5-.9,0-1.9.1-2.8,0-2.4-.3-4.7-1.6-6.2-3.6-1.4-1.9-1.7-4.3-1.2-6.6.8-3.7,3.3-5.6,6.3-7.5Z"/>
      <path class="cls-2" d="M467.1,320.9c.8,0,1.7,0,2.5.2,2.4.5,4.9,2.1,6.2,4.2,1.3,2.1,1.5,4.6.9,7-.9,3.3-3.3,5-6.1,6.5-1.2,0-2.5-.2-3.7-.5-2.2-.5-4.4-2.4-5.5-4.2-1.2-2-1.4-4.3-.8-6.5,1-3.6,3.5-5,6.6-6.7Z"/>
      <path class="cls-2" d="M466.4,278.8c.9,0,1.8,0,2.7,0,2.6.4,5.4,2.4,6.7,4.6,1.3,2.1,1.8,4.6,1.1,7.1-.9,3.2-3.1,4.4-5.8,5.8-1.1,0-2.2,0-3.3-.2-2.4-.5-5-2.1-6.3-4.2-1.2-1.9-1.5-4.2-1-6.4.9-3.5,3.1-5,5.9-6.7Z"/>
      <path class="cls-2" d="M500.9,257.6c2-.1,4.2-.2,6.1.7,3.3,1.6,4.3,5.7,5.4,8.9-1.6,3.8-3.1,6.1-6.5,8.5-1.1,0-2.1,0-3.2-.3-2.5-.4-4.4-1.6-5.9-3.8-1.4-2.1-1.9-4.6-1.4-7.1.8-3.4,2.6-5.2,5.5-7Z"/>
      <path class="cls-2" d="M499.8,236.3c.8,0,1.5-.2,2.3-.2,3,0,5.7.9,7.7,3.2,1.6,1.7,2.2,4,2,6.4-.4,3.7-2.5,5.7-5.2,8-.8.3-1.7.5-2.5.5-2.3.1-4.7-.7-6.3-2.4-1.7-1.7-2.3-4.1-2.3-6.4,0-3.9,1.7-6.3,4.3-9Z"/>
      <path class="cls-2" d="M466.4,256.9c3.2.2,5.9.7,8.1,3.2,1.6,1.9,2.2,4.1,2.1,6.5-.3,4.2-2.4,6.5-5.4,9.1-.4,0-.8,0-1.2,0-3-.2-5.9-1.2-7.8-3.6-1.4-1.9-1.9-4.1-1.6-6.4.5-4,2.9-6.3,5.9-8.8Z"/>
      <path class="cls-2" d="M500.5,214.2c.9,0,1.9-.1,2.9,0,2.5,0,4.9,1.1,6.6,3,1.4,1.6,2,3.7,1.9,5.8-.2,4-2.3,6.1-5.2,8.6-1.1,0-2.2.2-3.3.1-2.6,0-4.8-1.1-6.5-3.1-1.5-1.8-2-3.9-1.8-6.3.4-3.8,2.6-5.8,5.5-8Z"/>
      <path class="cls-2" d="M535.8,320.9c1.1,0,2.2,0,3.3,0,2.7.5,5.5,2.2,7,4.5,1.2,1.8,1.4,4.1.9,6.2-.8,3.4-3.2,4.9-5.9,6.5-1.1,0-2.2,0-3.3-.2-2.7-.4-5.1-1.7-6.7-4-1.3-1.8-1.6-4.1-1.1-6.2.8-3.3,3-5,5.8-6.8Z"/>
      <path class="cls-2" d="M536.6,299.5c1,0,1.9,0,2.9.3,2.6.7,5.3,2.2,6.6,4.7,1.1,2.1,1.2,4.5.4,6.7-1.2,3.4-3.6,4.7-6.6,6.2-1.2,0-2.3-.1-3.4-.4-.3,0-.6-.2-.9-.3-.3-.1-.6-.2-.9-.3-.3-.1-.5-.3-.8-.4s-.5-.3-.8-.5c-.2-.2-.5-.4-.7-.6-.2-.2-.4-.4-.6-.7-.2-.2-.4-.5-.6-.7-.2-.3-.3-.5-.5-.8-1.1-1.9-1.1-4.3-.6-6.4,1-3.6,3.2-5.1,6.3-6.8Z"/>
      <path class="cls-2" d="M535.3,236.2c1-.2,2.1-.3,3.1-.2,2.5.1,4.8,1.1,6.5,3,1.4,1.6,1.9,3.7,1.7,5.8-.3,4.1-2.4,6.2-5.4,8.7-.9.3-1.9.5-2.9.5-.3,0-.6,0-.9,0-.3,0-.6-.1-.9-.2-.3,0-.6-.2-.9-.3-.3-.1-.6-.2-.8-.4-.3-.1-.5-.3-.8-.5-.3-.2-.5-.3-.7-.5-.2-.2-.5-.4-.7-.6-.2-.2-.4-.4-.6-.7-1.6-2-2.1-4.8-1.7-7.3.5-3.4,2.5-5.3,5-7.3Z"/>
      <path class="cls-2" d="M501.7,320.2c.2,0,.4,0,.6,0,3.4.5,6.5,1.6,8.4,4.6.1.2.3.5.4.7.1.2.2.5.3.7.1.2.2.5.3.8,0,.3.1.5.2.8,0,.3,0,.5.1.8,0,.3,0,.5,0,.8,0,.3,0,.5,0,.8,0,.3,0,.5-.1.8-.7,3.6-3.1,5.5-6,7.3-1,0-2.1,0-3.1,0-2.5-.3-4.9-1.7-6.3-3.7-1.4-2-1.7-4.4-1.1-6.8.9-3.7,3.3-5.7,6.4-7.6Z"/>
      <path class="cls-2" d="M535.8,214.2c1.1,0,2.1-.1,3.2,0,2.4.2,4.9,1.8,6.3,3.7,1.5,2,2,4.4,1.4,6.9-.7,3.3-3,5-5.6,6.7-1.1,0-2.3,0-3.4,0-2.5-.2-4.9-1.7-6.4-3.7-1.5-2-1.9-4.3-1.4-6.7.8-3.7,2.9-5.1,5.9-6.9Z"/>
      <path class="cls-2" d="M467.1,235.5c.9,0,1.8,0,2.6.2,2.5.6,4.7,1.9,6.1,4.2,1.3,2.3,1.4,5,.6,7.5-1.1,3.5-3.3,5-6.5,6.6-.9,0-1.7-.2-2.6-.5-2.8-.8-5.1-2.5-6.5-5-1-1.9-1.1-4.3-.5-6.3,1.1-3.5,3.6-5.1,6.7-6.7Z"/>
      <path class="cls-2" d="M535.7,257.6c.7,0,1.3,0,2,0,.3,0,.7,0,1,.1.3,0,.7.1,1,.2.3,0,.7.2,1,.3.3.1.6.3,1,.4s.6.3.9.5c.3.2.6.4.9.6.3.2.5.4.8.7.3.2.5.5.7.8,1.6,1.9,2.2,4.4,1.8,6.8-.6,3.6-2.9,5.2-5.5,7.3-1.2.3-2.5.6-3.7.5-2.2-.2-4.2-1.2-5.6-2.9-1.8-2.2-2.2-5-1.8-7.7.6-3.8,2.4-5.5,5.4-7.6Z"/>
      <path class="cls-2" d="M467.8,213.5c.9.1,1.7.2,2.6.5,2.4.7,4.9,2.6,6,4.9,1,2,.9,4.4.2,6.5-1.3,3.9-4.1,5.6-7.6,7.4-3.4-1.2-6.7-3-8.3-6.4-1-2.1-1.1-4.3-.3-6.5,1.4-3.6,4.2-4.8,7.4-6.3Z"/>
      <path class="cls-10" d="M513.1,597.2h31.5s0,21.4,0,21.4h-31.4c0,.1,0-21.4,0-21.4Z"/>
      <path class="cls-10" d="M437.4,597.2h31.6s0,21.5,0,21.5h-31.6s0-21.5,0-21.5Z"/>
      <path class="cls-10" d="M474.9,597.2h32.2s0,21.5,0,21.5h-32.1s0-21.5,0-21.5Z"/>
      <path class="cls-10" d="M399.1,597.2h32.5s0,21.5,0,21.5h-32.5c0,0,0-21.5,0-21.5Z"/>
      <path class="cls-10" d="M513.1,624.2c10.5.2,21.1,0,31.6,0-.2,11.5-.2,22.9,0,34.4-10.5,0-21,0-31.5,0v-34.3Z"/>
      <path class="cls-10" d="M475.7,624.3l31.3-.3c0,11.2.9,23.3-.3,34.5-10.6-.4-21.2-.3-31.8-.3,0-4.9-1.1-30.7.7-33.9Z"/>
      <path class="cls-10" d="M437.2,624.2h32c0,11.5,0,22.9-.2,34.3h-31.8s0-34.3,0-34.3Z"/>
      <path class="cls-10" d="M399.1,624h32.5c0,.1-.2,34.5-.2,34.5l-32.3.2v-34.7Z"/>
      <path class="cls-10" d="M474.9,369.6h32s-.2,58-.2,58c-2.5,1.8-26.8.8-31.8.8v-58.8Z"/>
      <path class="cls-10" d="M399.2,369.6h32.2c-.1,19.6-.2,39.2-.1,58.8h-32.3c0,0,.2-58.8.2-58.8Z"/>
      <path class="cls-10" d="M437,369.5h32.1c0,19.6,0,39.2.3,58.9-10.7.6-21.6,0-32.3,0v-59Z"/>
      <path class="cls-10" d="M519.7,369.4h24.7c0,0,0,58.9,0,58.9h-8.7c0,0-23.4.1-23.4.1v-58.9s7.5-.1,7.5-.1Z"/>
      <path class="cls-10" d="M437.2,482.4h32s0,60.4,0,60.4c-10.5.2-21.1,0-31.6,0l-.3-60.3Z"/>
      <path class="cls-10" d="M512.9,482.3c10.7.1,21.4,0,32.1,0-.7,20.1-.4,40.3-.4,60.5-10.6.2-21.1.3-31.7.3v-60.6Z"/>
      <path class="cls-10" d="M475,482.4h32.2c-.3,20.2,0,40.4-.1,60.6h-32.2c0,0,0-60.6,0-60.6Z"/>
      <path class="cls-10" d="M399.2,482.3c10.8.2,21.7,0,32.5,0-.1,20.2.3,40.4-.1,60.5-10.8,0-21.6,0-32.4,0v-60.4Z"/>
      <path class="cls-7" d="M707.5,196.9h146.6c.4.7.8,1.4.9,2.3.7,6.1.8,55.2-.1,58.7-.1.5-.2.6-.4,1.2-3.2,1.7-21.2.5-25.6.5.9,1.4,1,2.6,1.1,4.2.4,13.1,0,26.4,0,39.6v76.7c0,0,0,32.7,0,32.7,0,4.4.7,10.1-.2,14.3-.2.8-.5,1.5-.9,2.1,12.3,0,25.5-1.2,37.7,0-1.9.3-4,.5-5.9,1.1-.9,7.5,1.3,16.3-.7,23.5-7,0-22.9-1.8-28.3,3.2-.9.8-1.4,1.7-1.4,2.9,0,2,2,4.6,3.5,5.8,3.6,3,9.7,2.2,14.1,2.3.4.9.7,1.8.8,2.9,1.1,24,0,49.5,0,73.7,0,15.8,1.4,129.5-.4,134.5-.1.4-.2.4-.4.8-10.7,0-21.4,0-32.2,0-5.6,1.6-34.9.2-42.8.2l-144,.2c.5-29.2,0-58.4,0-87.6v-174.2c37.6-.4,75.3,0,113.1,0h39.9c6.7,0,13.6-.4,20.2,0h.3s.4-.8.4-.8l.5.5,1-.2-.7-.8c-58.1-1.1-116.5-.2-174.6-.2-.5-18.6-.1-37.3-.1-55.9v-95c0,0-1.7-1-1.7-1-.4-22.7,0-45.5,0-68.3h80.5Z"/>
      <path class="cls-8" d="M654.8,305h73.8c0,0,5.4.5,5.4.5v.3c-7.8.7-16,.3-24,.3-14.3,0-28.7,0-43,0,0,7.2-.5,15.3.4,22.5l-1.3.5h-11.4c0-.1.2-24.2.2-24.2Z"/>
      <path class="cls-8" d="M772.3,339.8h13.7c2.4,3.9,1.9,17.9,1.1,22.4-.1.6-.4,1.2-.6,1.7,0,.2-.1.3-.2.5,0,0,0,.2-.1.3h-131.7c0,0,0-24.6,0-24.6,3.2.2,9.9-.5,12.6.9-.1,7.4-.1,14.9,0,22.3,7.8,0,15.7.1,23.6-.1,20.5,0,41.2-.7,61.6.1,6.8,1,13.8.7,20.7.4,1.6-5.3,1.2-15.1.5-20.6-.2-1.4-.4-1.5-1.5-2.3l.3-.9Z"/>
      <path class="cls-8" d="M654.5,375.1h12.2c.5.7.8.7.7,1.6-.9,7-.4,14.6-.4,21.7,17.3,0,36.8,1.3,53.8-.5,9.8,0,19.7-.2,29.5,0,3.5.7,6.9.6,10.4.6h11.6c.3-.6.6-1.1.8-1.6,1.6-3.9,1.1-17.1-.6-20.7l-6.6-.3,1.3.3c1.6-.8,3.6,0,5.2-.8.2,0,.5-.2.7-.3,4.4,0,8.9,0,13.2.2,1.5,3.1,2,19.6.7,22.9-.2.5-.4.9-.7,1.4-7.9,0-15.8,0-23.7,0l-108.3.2c.3-8.2.2-16.4.2-24.6Z"/>
      <path class="cls-10" d="M742.9,443.4c10.8,0,21.6,0,32.4-.1.4.7.8,1.4.9,2.2.7,3.9,1.1,23.6-.9,26.2-4.5,1.6-26.6.8-32.7.8,0-9.2-1.1-19.9.3-29Z"/>
      <path class="cls-10" d="M662.4,443.2h35.1c0,0,.2,29.2.2,29.2h-35.3s0-29.2,0-29.2Z"/>
      <path class="cls-1" d="M654.5,340c7-1.4,34-.3,42.5-.3h48.1c9-.1,18.2-.5,27.3,0l-.3.9c1.1.9,1.4.9,1.5,2.3.6,5.5,1,15.4-.5,20.6-6.8.4-13.8.7-20.7-.4l-.2-21.5c-20.4,0-41.1,1-61.5-.1,0,7.1-.3,14.4,0,21.5-7.8.2-15.7,0-23.6.1,0-7.4,0-14.9,0-22.3-2.7-1.4-9.4-.7-12.6-.9Z"/>
      <path class="cls-5" d="M676.9,346.3c1.1,0,2.3,0,3.4.1,1.9.2,3.8,1.4,4.9,2.9.1.1.2.3.3.4,0,.2.2.3.2.5,0,.2.1.3.2.5,0,.2.1.3.1.5,0,.2,0,.3,0,.5,0,.2,0,.4,0,.5,0,.2,0,.4,0,.5,0,.2,0,.4,0,.5-.5,2.5-2.2,3.8-4.2,5.1-2.8,0-5.3-.2-7.3-2.3-.1-.1-.2-.3-.3-.4-.1-.1-.2-.3-.3-.4,0-.1-.2-.3-.3-.5,0-.2-.1-.3-.2-.5,0-.2-.1-.3-.2-.5,0-.2,0-.3-.1-.5,0-.2,0-.3,0-.5s0-.4,0-.5c.2-2.7,1.8-4.3,3.7-6Z"/>
      <path class="cls-5" d="M757.7,345.6c1.1-.1,2.2-.2,3.2-.1,1.9.1,3.4,1,4.6,2.5,1.2,1.4,1.6,3.2,1.2,5-.5,2.9-2.4,4.1-4.7,5.6-2.6-.1-5.2-.7-7.1-2.6-.1-.1-.3-.3-.4-.4-.1-.1-.2-.3-.3-.4-.1-.1-.2-.3-.3-.5,0-.2-.2-.3-.2-.5,0-.2-.1-.3-.2-.5,0-.2,0-.3-.1-.5,0-.2,0-.4,0-.5,0-.2,0-.4,0-.5.1-2.8,2.3-4.7,4.2-6.5Z"/>
      <path class="cls-1" d="M666.6,375.1c22.8-.4,45.8-.1,68.6-.1,12.3,0,25.6-1,37.8.2-.2.1-.5.2-.7.3-1.7.7-3.7,0-5.2.8l-1.3-.3,6.6.3c1.7,3.6,2.2,16.8.6,20.7-.2.5-.5,1-.8,1.5h-11.6c-3.5,0-7,.1-10.4-.5l1.2-.5c1.6-4.3.3-15.2.3-20.3h-60.5c0,0,0,20.6,0,20.6,9.9-.2,19.7-.1,29.6,0-17,1.8-36.5.5-53.8.5,0-7.1-.5-14.6.4-21.7.1-.9-.2-.9-.7-1.6Z"/>
      <path class="cls-5" d="M678.2,380.9c2.2.2,4.6,1.2,6.1,2.9,1,1.1,1.2,2.4,1.1,3.8-.3,2.6-2.2,4-4.1,5.5-1.1,0-2.2,0-3.3,0-1.6-.2-3.3-1.1-4.2-2.5-.8-1.1-.9-2.4-.7-3.8.6-3.1,2.7-4.3,5.1-5.9Z"/>
      <path class="cls-5" d="M757.6,381c.7,0,1.3,0,2,0,2.7.1,4.6.7,6.4,2.8,1.1,1.3,1.7,2.9,1.4,4.6-.5,2.7-2.4,4.1-4.5,5.5-.6,0-1.2,0-1.8,0-2.6-.1-4.7-.7-6.4-2.8-.9-1.1-1.4-2.5-1.2-4,.3-2.8,2.2-4.3,4.2-5.9Z"/>
      <path class="cls-10" d="M691.1,377.1h60.5c0,5.1,1.3,16-.3,20.3l-1.2.5c-9.8-.3-19.7,0-29.5,0-9.9-.2-19.7-.2-29.6,0v-20.7Z"/>
      <path class="cls-10" d="M690.6,341.6c20.3,1.1,41.1.2,61.5.1l.2,21.5c-20.4-.8-41.2-.1-61.6-.1-.3-7.1,0-14.4,0-21.5Z"/>
      <path class="cls-1" d="M728.5,305.1c10.8-.6,21.8-.5,32.6-.2,8.2.1,16.5.2,24.7,0,2.1,3.6,2.2,18.2,1,22.3-.2.7-.6,1.3-1.1,1.8-3.4,1.4-112.1,1.2-119.8.2l1.3-.5c-.8-7.1-.3-15.2-.4-22.5,14.3-.2,28.7-.2,43,0,8,0,16.1.4,24.1-.3v-.3c-.1,0-5.5-.5-5.5-.5Z"/>
      <path class="cls-5" d="M677.8,310.9c.5,0,.9,0,1.4,0,2.2.1,4.3.7,5.7,2.5,1,1.2,1.3,2.6,1.1,4.1-.4,3-2.4,4.5-4.7,6.2-2.6-.2-4.8-.4-6.6-2.5-1.1-1.3-1.6-2.8-1.3-4.6.4-2.9,2.2-4.2,4.4-5.8Z"/>
      <path class="cls-5" d="M757.7,311c1,0,2.1,0,3.1,0,2.1.2,4.1,1.4,5.4,3.1.9,1.1,1.1,2.5.8,3.9-.5,2.5-2.3,3.6-4.2,5-1.2,0-2.4.1-3.6,0-1.9,0-3.6-1-4.9-2.5-.1-.1-.2-.3-.3-.4s-.2-.3-.3-.4-.2-.3-.2-.5c0-.2-.1-.3-.2-.5,0-.2,0-.3-.1-.5,0-.2,0-.3,0-.5,0-.2,0-.3,0-.5,0-.2,0-.3,0-.5.4-2.7,2.4-4.3,4.5-5.7Z"/>
      <path class="cls-8" d="M761.2,304.9c8.2.1,16.5.2,24.7,0,2.1,3.6,2.2,18.2,1,22.3-.2.7-.6,1.3-1.1,1.8h-13.5c0,0,.1-.2.2-.3.3-.6.6-1.2.8-1.9,1.1-4.5,1.3-16.9-1.1-20.8-3.7,0-9.7.7-13.1-.5l2.1-.7Z"/>
      <path class="cls-10" d="M691,307h61s0,20.7,0,20.7h-61.2s0-20.7,0-20.7Z"/>
      <path class="cls-8" d="M688.8,269.6c12.9-1.7,31.2-.5,44.6-.5,17,0,34.8-1.3,51.6,0l.6.5c2.4,3.4,2.1,18.4,1.2,22.6-.1.6-.4,1.1-.7,1.6-5.4,0-10.9.1-16.3-.3-12.5.7-25.3.4-37.9.5h-77.4c0-.1,0-24.6,0-24.6h34.3Z"/>
      <path class="cls-1" d="M667.2,270.7c14,0,28.2-.4,42.2.4-6.1.6-12.2.4-18.4.4v21.4c-6.9,1.6-16.8.3-24.1.1,0-7.4,0-14.8.3-22.2Z"/>
      <path class="cls-5" d="M676.4,276.2c.4,0,.8,0,1.2,0,2.7,0,5.5.4,7.4,2.6,1.1,1.3,1.4,2.7,1.1,4.4-.3,1.9-2.3,3.3-3.7,4.4-.8.1-1.6.3-2.3.4-.2,0-.5,0-.7,0-.2,0-.5,0-.7,0-.2,0-.5,0-.7-.1-.2,0-.5-.1-.7-.2-.2,0-.4-.2-.6-.3-.2,0-.4-.2-.6-.3-.2-.1-.4-.3-.6-.4s-.4-.3-.5-.5c-1.1-1-1.6-2.3-1.7-3.8-.1-2.8,1.3-4.2,3.2-6.1Z"/>
      <path class="cls-1" d="M688.8,269.6c12.9-1.7,31.2-.5,44.6-.5,17,0,34.8-1.3,51.6,0l.6.5c-3.8-.2-7.5-.4-11.3-.6l-.5.8-1-.3c-2,3.8,4.2,21.7-1.1,23.6-.6.2-1.1.2-1.8.1-6,.2-12-.4-18-.7v-21.6s3-.3,3-.3v-.4c-21.9-1.7-44.2,1.1-66.1-.6Z"/>
      <path class="cls-5" d="M757.6,275.6c.8,0,1.6,0,2.4.2,2.4.2,4.3.9,5.8,2.9.9,1.3,1.2,2.6.9,4.2-.5,2.9-2.4,4.3-4.6,5.9-.5,0-1.1-.1-1.6-.2-2.6-.4-4.9-1.5-6.4-3.9-.8-1.3-1.1-2.8-.8-4.2.6-2.4,2.4-3.6,4.3-4.9Z"/>
      <path class="cls-10" d="M709.4,271h42.6c0-.1,0,21.5,0,21.5-9.7-.6-19.7-.1-29.4-.1-10.4,0-21.2-.5-31.5.4v-21.4c6.1,0,12.2.2,18.3-.4Z"/>
      <path class="cls-8" d="M738.9,233.5c4.5-.6,31.9-1.6,34.9-.1h12.3c2,3.7,1.9,19,.8,23.3-.1.6-.5,1.1-.8,1.6l-107.8-.2h-23.6c0,.1.1-24.8.1-24.8l84.1.2Z"/>
      <path class="cls-1" d="M738.9,233.5c4.5-.6,31.9-1.6,34.9-.1l-.9.6v.7c.7,4.9,1.8,18.4-.8,22.4-6.7,0-13.5.2-20.2,0,0-5,1.5-18.6-1.3-22.2l2-.5c-2.8-1.4-10.4-.6-13.8-.8Z"/>
      <path class="cls-5" d="M757.7,239.6c1.1,0,2.3,0,3.4,0,.3,0,.5,0,.8.1.3,0,.5.1.8.2.2,0,.5.2.7.3.2.1.5.2.7.4.2.1.4.3.7.4.2.2.4.3.6.5.2.2.4.4.6.6.2.2.3.4.5.6.9,1.2,1.2,2.6,1,4.1-.5,3-2.4,4.4-4.7,6-.3,0-.6,0-.9,0-2.8-.2-5.4-.7-7.3-3-.1-.1-.2-.3-.3-.4-.1-.2-.2-.3-.3-.5,0-.2-.2-.3-.2-.5,0-.2-.1-.3-.2-.5,0-.2,0-.4-.1-.5,0-.2,0-.4,0-.5,0-.2,0-.4,0-.5,0-.2,0-.4,0-.5.3-2.9,2.3-4.4,4.4-6.2Z"/>
      <path class="cls-1" d="M667.2,234.7h39.7c7.6,0,15.3-.3,22.9.3-10.3,1.7-27.7.5-38.6.5v21.6s-12.7.3-12.7.3l-11.4-.2c0-7.5,0-15,.1-22.5Z"/>
      <path class="cls-5" d="M677.1,239.5c.8,0,1.6,0,2.4.1,2.3.2,4.2,1.1,5.6,3,.1.1.2.3.3.4,0,.2.2.3.3.5,0,.2.1.3.2.5,0,.2.1.3.2.5,0,.2,0,.4.1.5,0,.2,0,.4,0,.5,0,.2,0,.4,0,.5,0,.2,0,.4,0,.5-.4,2.7-2.3,3.9-4.4,5.4-2.6,0-5.2-.3-7.1-2.3-1.2-1.2-1.6-2.8-1.4-4.5.3-2.7,2-4.1,4-5.8Z"/>
      <path class="cls-10" d="M750.7,234.9c2.8,3.6,1.3,17.2,1.3,22.2-20.1-.9-40.7-.3-60.9,0v-21.6c10.9,0,28.3,1.2,38.6-.5h21Z"/>
      <path class="cls-1" d="M650.9,504.8h131.3c.5.8.9,1.7,1.1,2.7.8,5.3,1.6,20.5-1.4,24.7-4.8,1.7-28.3.5-34.7.5,0,2.3,0,4.7,0,7h35.1c0,.2,0,.2.1.3,0,.1.1.3.2.4.2.4.4.9.5,1.3,1.2,3.8.7,22.2-1,25.1h-131.2s0-62,0-62Z"/>
      <path class="cls-5" d="M756.8,516.8c2,0,3.2.2,4.8,1.4.3,2,0,2.8-.7,4.7-1.7-.2-2.7-.5-4.1-1.5-.7-2-.5-2.6,0-4.6Z"/>
      <path class="cls-5" d="M757.6,552.1c2,.5,2.5.6,4,2,.5,2,0,3.1-.8,4.9-1.8-.4-3-.6-4.2-2.1-.5-1.9.2-3.1,1-4.7Z"/>
      <path class="cls-3" d="M652.8,540.2v-8h129c-4.8,1.7-28.3.5-34.7.5,0,2.3,0,4.7,0,7h-10.8c-27.6,1.6-55.8.5-83.6.5Z"/>
      <path class="cls-2" d="M736.4,539.6c-.5-.3-.6-.4-.9-.9,2.4,0,4.9,0,7.3-.3,0-1.6,1-3.6.3-5l-6.4-.3c2.8-.9,7.5-.3,10.5-.4,0,2.3,0,4.7,0,7h-10.8Z"/>
      <path class="cls-10" d="M650.9,597c43.7-.6,87.6,0,131.3,0,.4.7.8,1.5,1,2.3.8,3.6.9,56.5,0,58.7-.2.5-.8,1.2-1.2,1.7-5.3,1.8-115.5.5-131.2.5v-63.2Z"/>
      <path class="cls-8" d="M757.5,643.6c1.7.2,2.7.4,4,1.5.5,2,.2,2.7-.5,4.6-1.8-.2-3-.3-4.2-1.7-.4-1.7.1-2.8.8-4.4Z"/>
      <path class="cls-4" d="M707.5,196.9h146.6c.4.7.8,1.4.9,2.3.7,6.1.8,55.2-.1,58.7-.1.5-.2.6-.4,1.2-3.2,1.7-21.2.5-25.6.5.9,1.4,1,2.6,1.1,4.2.4,13.1,0,26.4,0,39.6v76.7c0,0,0,32.7,0,32.7,0,4.4.7,10.1-.2,14.3-.2.8-.5,1.5-.9,2.1,12.3,0,25.5-1.2,37.7,0-1.9.3-4,.5-5.9,1.1-.9,7.5,1.3,16.3-.7,23.5-7,0-22.9-1.8-28.3,3.2-.9.8-1.4,1.7-1.4,2.9,0,2,2,4.6,3.5,5.8,3.6,3,9.7,2.2,14.1,2.3.4.9.7,1.8.8,2.9,1.1,24,0,49.5,0,73.7,0,15.8,1.4,129.5-.4,134.5-.1.4-.2.4-.4.8-10.7,0-21.4,0-32.2,0,.4-.5.7-.9.9-1.5,1.6-4.9.4-87,.4-99.1V207.2c0-2.8.2-5.5-1.1-8-62.2-.3-124.4-.3-186.5,0l-.4,67.1-1.7-1c-.4-22.7,0-45.5,0-68.3h80.5Z"/>
      <text class="cls-9" transform="translate(127.3 131.6)"><tspan x="0" y="0">Research Computing Facility of MedCMU</tspan></text>
    </g>
  </g>
</svg>