<?xml version="1.0" encoding="UTF-8"?>
<svg xmlns="http://www.w3.org/2000/svg" version="1.1" viewBox="0 0 1024 1024">
  <defs>
    <style>
      .cls-1 {
        fill: #7ed7f3;
      }

      .cls-2 {
        fill: #b9bfc3;
      }

      .cls-3 {
        fill: #71aaa6;
      }

      .cls-4 {
        fill: #006d77;
      }

      .cls-5 {
        fill: #67b8c7;
      }

      .cls-6 {
        fill: #83c5be;
      }

      .cls-7 {
        fill: #5ca0aa;
      }

      .cls-8 {
        opacity: .8;
      }

      .cls-8, .cls-9 {
        fill: #edf6f9;
      }

      .cls-10 {
        fill: #4b9594;
      }
    </style>
  </defs>
  <!-- Generator: Adobe Illustrator 28.6.0, SVG Export Plug-In . SVG Version: 1.2.0 Build 709)  -->
  <g>
    <g id="Layer_1">
      <path class="cls-6" d="M178,246c1,0,2,0,3,0,2.3.3,4.8,1.7,6.2,3.5,1.4,1.9,1.9,4.2,1.4,6.5-.7,3.6-3.1,5.5-6,7.4-1.4.1-3,.2-4.4-.2-.3,0-.6-.2-.8-.3-.3,0-.5-.2-.8-.3-.3-.1-.5-.3-.8-.4-.2-.1-.5-.3-.7-.5s-.5-.4-.7-.5c-.2-.2-.4-.4-.6-.6-.2-.2-.4-.4-.5-.7-.2-.2-.3-.5-.5-.7-1.2-2.1-1.4-4.5-.7-6.8.9-3.3,3.2-4.8,6.1-6.5Z"/>
      <path class="cls-9" d="M178.5,249c.2,0,.4,0,.5,0,2.3,0,4.4.3,6,2.1,1,1.2,1.5,2.6,1.3,4.1-.3,2.6-2,3.9-3.9,5.4-.8.1-1.6.2-2.5.2-1.6,0-3.3-.7-4.3-2-1-1.2-1.3-2.9-1-4.4.4-2.6,1.9-3.9,3.9-5.5Z"/>
      <path class="cls-5" d="M573.5,95.5c1.4-.2,2.7-.3,4,0,2.5.4,4.9,1.7,6.2,3.8,1.3,2,1.5,4.3,1,6.6-.9,3.9-3.4,5.6-6.6,7.6-1.2.1-2.5.3-3.7,0-2.3-.5-4.7-1.9-5.9-3.9-1.4-2.2-1.7-4.8-1.1-7.3.9-3.5,3.1-5,6.1-6.7Z"/>
      <path class="cls-9" d="M574.6,98.4c.5,0,1,0,1.6,0,1.8.1,3.6,1,4.7,2.4.8,1.1,1.2,2.5,1,3.8-.4,2.6-1.7,3.8-3.8,5.2-.9,0-1.9.1-2.8,0-1.5-.1-3-1.1-3.9-2.3-.8-1.2-1.1-2.6-.9-4,.5-2.6,1.9-3.9,4.1-5.3Z"/>
      <path class="cls-6" d="M59.3,430.6c1,.2,2,.4,3,.8,2.5.9,4.7,2.9,5.6,5.4.1.3.2.6.3.8,0,.3.1.6.2.9s0,.6,0,.9c0,.3,0,.6,0,.9,0,.3,0,.6,0,.9,0,.3-.1.6-.2.9,0,.3-.2.6-.3.8-.1.3-.2.5-.3.8-1.4,2.9-3.9,4.6-6.9,5.7-1.9-.1-3.7-.2-5.3-1.2-2.3-1.4-4.1-3.5-4.7-6.2,0-.3-.1-.6-.1-.9,0-.3,0-.6,0-.9,0-.3,0-.6,0-.9,0-.3,0-.6.1-.9,0-.3.1-.6.2-.9,0-.3.2-.6.3-.8.1-.3.2-.5.4-.8.1-.3.3-.5.4-.8,1.8-2.8,4.3-3.9,7.4-4.6Z"/>
      <path class="cls-8" d="M57.7,433.4c1,0,.9,0,1.9,0,1.7.1,3.5,1,4.6,2.3,1.3,1.5,1.6,3.5,1.3,5.4-.4,2.6-1.9,3.9-3.9,5.4-.7,0-1.4,0-2.1,0-2-.1-3.6-1-4.9-2.5-1.2-1.4-1.5-3.2-1.2-5,.5-2.7,2.1-4.1,4.2-5.6Z"/>
      <path class="cls-5" d="M790.6,145c1.6,0,3.1-.1,4.6.3.3,0,.6.2.9.3.3.1.6.3.9.4.3.2.5.3.8.5.3.2.5.4.7.6.2.2.5.4.7.7.2.2.4.5.6.7.2.3.4.5.5.8.2.3.3.6.4.8,1.1,2.4,1.1,5.1.2,7.5-1.2,3.2-3.4,4.8-6.4,6.2-1.5,0-2.9.1-4.4-.3-.3,0-.6-.2-.9-.3-.3-.1-.6-.3-.9-.4-.3-.2-.6-.3-.8-.5-.3-.2-.5-.4-.8-.6-.3-.2-.5-.4-.7-.7-.2-.2-.4-.5-.6-.8-.2-.3-.4-.5-.6-.8-.2-.3-.3-.6-.5-.9-.1-.3-.3-.6-.4-.9-.1-.3-.2-.6-.3-.9,0-.3-.1-.6-.2-.9,0-.3,0-.6,0-1,0-.3,0-.6,0-1,0-.3,0-.6.1-1,0-.3.1-.6.2-.9,0-.3.2-.6.3-.9,1.2-3.3,3.6-4.7,6.7-6.1Z"/>
      <path class="cls-9" d="M791.7,147.9c.7,0,1.4.2,2,.4,1.7.5,3.4,2,4.1,3.7.7,1.5.6,3.4,0,4.9-.9,2.2-2.2,2.9-4.2,3.9-1,0-2-.1-3-.3-1.5-.4-3.1-1.6-3.8-3-.7-1.5-.8-3.1-.2-4.7.9-2.6,2.8-3.7,5.1-4.9Z"/>
      <path class="cls-5" d="M85.3,556.8c.5-6.3,2.2-12.8,3.6-18.9,5.5-25,12.7-50.8,24.8-73.5.3,2.1.6,4.4,0,6.5-2.4,1.9-3.9,7.1-5,10-9.7,23.9-17.1,50.1-21.1,75.6-1.2,7.4-2,14.9-2.8,22.3l.3.2c2.7-1.2,8.5-9.1,10.9-11.8l1.3,1.9c-2.6,3.2-6.9,9.6-10,11.8l-3.7,5.2c-.3,9-.5,18-.7,26.9.6,21.2,0,43-.9,64.3-.3,7.9-.2,18-1.9,25.7,0-.9,0-1.8-.1-2.7-.2-1.7-.4-1.7-1.8-2.7,0-5.3.8-10.7,1.1-16,.4-8,.7-16,.8-24,.3-12.9.4-25.8.5-38.7,0-7.6-.1-15.2.4-22.8v-3.4c0,0-.6-.5-.6-.5-2.5,1.9-4.2,5.5-5.7,8.1-8.1,14.4-13.6,29.3-15.8,45.8-1.2,8.6-1.1,17.3-.7,25.9-.3,2.1-.3,3.7-2,5.2-.6-4.9-.7-9.8-.9-14.7.4-25.1,7.1-51.1,22.2-71.5,2.7-3.8,4.3-6.1,4.8-10.8.8-7.9,1.4-16,3-23.7Z"/>
      <path class="cls-8" d="M87.5,556.6c4-25.5,11.5-51.7,21.1-75.6,1.2-2.9,2.7-8.1,5-10,.2,16.9.3,33.7.3,50.6,0,8.9.2,17.9-.2,26.8,0,1.1.2,2.4.1,3.5-6.2,4.8-11.6,11.3-16.6,17.3l-1.3-1.9c-2.4,2.6-8.2,10.6-10.9,11.8l-.3-.2c.8-7.4,1.5-14.9,2.8-22.3Z"/>
      <path class="cls-1" d="M95.9,567.4c5.3-6.8,11.4-13.2,17.8-19,0,1.1.2,2.4.1,3.5-6.2,4.8-11.6,11.3-16.6,17.3l-1.3-1.9Z"/>
      <path class="cls-8" d="M80.3,592.5l.6.5v3.4c-.4,7.6-.3,15.2-.3,22.8,0,12.9-.3,25.8-.5,38.7-.1,8-.4,16-.8,24-.3,5.3-1.1,10.7-1.1,16,1.4,1,1.5,1,1.8,2.7.1.9.1,1.8.1,2.7-.1,2.1-.2,4.3-.5,6.4-.2,4.7-.4,9.9-1.3,14.6-.5,5.8-1.5,11.2-3.1,16.8h-3.6c-.6-2.4-1.6-4.8-2.4-7.2-.6-3.1-1.9-6.2-2.8-9.2l-2.5-8.1-2.3-9.1c-1.2-4.9-2.2-9.8-3.1-14.7-.8-5-1.6-10-2.2-15,1.7-1.5,1.7-3.1,2-5.2-.3-8.7-.4-17.3.7-25.9,2.2-16.4,7.7-31.3,15.8-45.8,1.5-2.7,3.2-6.3,5.7-8.1Z"/>
      <path class="cls-5" d="M58.1,672.4c.6,5.9,1.3,11.8,2.2,17.7-.7.8-1.3,1.7-2,2.5-.8-5-1.6-10-2.2-15,1.7-1.5,1.7-3.1,2-5.2Z"/>
      <path class="cls-5" d="M60.3,690c1.2,5.7,2.3,11.5,3.6,17.2-1.1-.4-1.3-.3-2.5,0-1.2-4.9-2.2-9.8-3.1-14.7.7-.8,1.4-1.7,2-2.5Z"/>
      <path class="cls-5" d="M78.1,697.8c1.4,1,1.5,1,1.8,2.7.1.9.1,1.8.1,2.7-.1,2.1-.2,4.3-.5,6.4-.2,4.7-.4,9.9-1.3,14.6-.4-1.4-.9-1.7-2-2.5.6-6.3,1.1-12.5,1.7-18.8l.2-5Z"/>
      <path class="cls-5" d="M76.2,721.5c1.1.8,1.6,1.2,2,2.5-.5,5.8-1.5,11.2-3.1,16.8h-3.6c-.6-2.4-1.6-4.8-2.4-7.2l2.6-.7c.4,1.3.7,2.5,1.4,3.7h.6c2.3-3.1,2.1-11.3,2.5-15.2Z"/>
      <path class="cls-5" d="M61.5,707.2c1.2-.3,1.4-.4,2.5,0l2.5,9.3,2,6.3,3.3,10.1-2.6.7c-.6-3.1-1.9-6.2-2.8-9.2l-2.5-8.1-2.3-9.1Z"/>
      <path class="cls-10" d="M695.3,237.6c28.1-3.4,56.2-7.7,84.2-11.5,6-.8,20.6-3.8,25.9-3.2,8.9,4.2,23,6.6,32.8,9.2l94.4,24.1c6.6,1.7,13.1,3.4,19.7,5,3.1.7,7.4,1.1,10.2,2.4.4.2.5.4.8.7-.5,9.6-.3,19.3-.3,28.9v46.7c0,0,0,155,0,155l.5,481.5c7,0,46.7-1,50.2.4,1.6.7,2.6,1.7,3.1,3.3.4,1.2.2,2.7-.6,3.7-1,1.3-3,1.9-4.6,2.2-5.3.9-11.5,0-16.9-.1-10.8,0-21.5,0-32.3,0h-133.8s-479.5.2-479.5.2l-215-.2H47.8c0,0-25.3,0-25.3,0-3.3,0-6.7.4-10.1.2-1.5,0-3.3-.4-4.5-1.4-.9-.8-1.3-1.8-1.4-3-.2-1.6.1-3.2,1.3-4.3,1-1,2.9-1,4.3-1.1,11.1-.7,22.8,0,34,0h64.9c0,0,0-29.1,0-29.1-9.1,0-18.1,0-27.2,0-5.4,0-11.2.5-16.5-.4-2.9-.5-5.9-1.6-8.2-3.5-3.1-2.6-5.1-6.6-5.3-10.6-.5-9.3,0-19,0-28.4v-61.8c0,0-.2-59.4-.2-59.4,0-10.5-.5-21.3.3-31.7.2-2.8.3-5.2,2.3-7.3,3.9-4.2,10.3-3.4,15.5-3.5h3.6c1.6-5.6,2.6-11,3.1-16.8.8-4.6,1.1-9.9,1.3-14.6.3-2.1.4-4.3.5-6.4,1.7-7.6,1.6-17.8,1.9-25.7.9-21.2,1.5-43,.9-64.3.1-9,.4-18,.7-26.9l3.7-5.2c3.1-2.3,7.3-8.6,10-11.8,5-6,10.4-12.5,16.6-17.3,0-1.1,0-2.4-.1-3.5.4-8.9.2-17.9.2-26.8,0-16.9,0-33.7-.3-50.6.5-2.1.2-4.4,0-6.5.8-5.3.4-11.3.4-16.7v-30.1s.5-98.7.5-98.7l135-19.8,29.6-4.2c5.3-.8,11.6-2.3,17-1.9v.2s2.8.7,2.8.7c8.9,1.5,17.8,3.1,26.7,4.7,4.9.9,10,2.2,15,2.7v-16.4c14.9-4.6,37.8-5.9,53.8-8.5l3.3-.6c9.7-2.4,138.3-20.6,140.3-20.2,6.7,3.7,49.6,11.9,59,13v-17.5c25.7-3.2,51.3-6.8,76.8-10.8l3-.4c5.3-.7,10.6-1.5,15.9-2.4l2.8-.2Z"/>
      <path class="cls-9" d="M270,948.1c4-.2,7.9,0,11.9,0,0,7.9.4,15.8,0,23.7-4.3-7.7-8-15.8-11.9-23.7Z"/>
      <path class="cls-9" d="M115.4,947.7c6.7.5,13.5.3,20.2.3v28.6c-6.7.5-13.4.2-20.1.2-.3-9.7,0-19.4-.1-29.1Z"/>
      <path class="cls-9" d="M348.7,948.7c8.2-.2,16.5,0,24.8,0,4.7,0,9.5.3,14.1-.3-.2,3.8-.6,7.6-.4,11.4-.6,6,.7,10.8.9,16.7h-39.2c-.2-9.2-.2-18.5-.1-27.7Z"/>
      <path class="cls-3" d="M115.4,947.7c8.3-.9,17.2-.2,25.5-.1l39.3.2c-4.5,9.5-9.8,20.2-15.9,28.8-9.6,0-19.3-.3-28.9.1v-28.6c-6.6,0-13.4.2-20.1-.3Z"/>
      <path class="cls-6" d="M286.9,948.7c19-.4,38.3-.3,57.3,0,.2,9.2.2,18.5-.3,27.7-18.9.7-38.1.1-57,.1-.1-9.3-.1-18.6,0-27.8Z"/>
      <path class="cls-8" d="M97.3,569.2c5-6,10.4-12.5,16.6-17.3v129.1c0,0,0,38.6,0,38.6,0,6.3-.7,13.3.3,19.4l-.4,1.4c-3.3,1.5-33,.6-38.6.4,1.6-5.6,2.6-11,3.1-16.8.8-4.6,1.1-9.9,1.3-14.6.3-2.1.4-4.3.5-6.4,1.7-7.6,1.6-17.8,1.9-25.7.9-21.2,1.5-43,.9-64.3.1-9,.4-18,.7-26.9l3.7-5.2c3.1-2.3,7.3-8.6,10-11.8Z"/>
      <path class="cls-6" d="M296,293.4l2.8.7c8.9,1.5,17.8,3.1,26.7,4.7,4.9.9,10,2.2,15,2.7l-.7,305.5.2,92.8c0,13.5.8,27.6,0,41.1-14.6-.6-29.5,0-44.1,0-.6-19.8,0-39.7,0-59.4l.2-124.7c0-87.8-1.1-175.7.2-263.5Z"/>
      <path class="cls-9" d="M118,614.7c7.5-1,15.1-1.2,22.6-1.7l35.1-2c38.3-2.2,76.7-4.2,115-7,.5,26.5.1,53,.1,79.5,0,19.1.6,38.4,0,57.5h-27.2c-41.8-.9-83.8,0-125.7,0h-20.2c.5-42.1.1-84.2.1-126.4Z"/>
      <path class="cls-4" d="M152.8,681.7c2.7-.3,5.6-.2,8.3-.2v21c0,0-13,.5-13,.5-3.2,0-6.4.1-9.6.3v-21.2c4.7,0,9.5-.1,14.2-.4Z"/>
      <path class="cls-4" d="M160.3,634.7c.6,0,.2,0,1,.3,1.2,5.4.2,15.3.2,21.2-7,.6-14.1.6-21.1.8l-1-.2c-1.4-3.7-.5-16-.5-20.7,7.1,0,14.3-.9,21.4-1.3Z"/>
      <path class="cls-4" d="M254.5,678.2c3.1-.4,6.4-.2,9.5-.3-.2,7.3,0,14.6,0,21.8-4.6.1-9.1.3-13.6.6l-10.8.2v-21.6c5,0,10-.5,15-.8Z"/>
      <path class="cls-4" d="M260.8,629.2h3c.7,7.2.2,14.9.1,22.3-6.8.3-13.5.8-20.3,1.1-1.4.1-2.6.4-3.9-.2-1-7.1-.3-15.1-.2-22.3,7.1,0,14.2-.4,21.3-.8Z"/>
      <path class="cls-4" d="M219.9,679.8c4.5-.3,9-.3,13.5-.3v21.4c-17.5.6-35.1,1.1-52.6,1.4l-12.9.2v-21.1s52-1.6,52-1.6Z"/>
      <path class="cls-4" d="M226.5,630.7c2.2-.2,4.4-.2,6.6-.3v22.5c-19.2.1-38.6,1.7-57.7,2.7-2.4.2-4.9.3-7.3.4v-22c6.8,0,13.8-.8,20.6-1.2l37.8-2.1Z"/>
      <path class="cls-4" d="M239.9,725.8c7.8.7,15.8.2,23.6.2,0,4.8-.6,10.2.2,14.9-41.8-.8-83.8,0-125.7,0l.4-12c7.7-.4,15.4-.7,23.2-1,0,3.9-1,8.3,1,11.8,1.7,1,2.9.7,4.9.7v-12.9c17.7,0,35.4-1,53.1-1.2,4.5,0,8.9,0,13.4,0-.2,4.7-.3,9.3,0,14h6s0-14.5,0-14.5Z"/>
      <path class="cls-6" d="M537.9,255.8c6.7,3.7,49.6,11.9,59,13l-.4,707.6c-19.4.1-39,.2-58.4-.2v-10.4c.7-9.4,0-19.5,0-29v-58.7c0,0,0-183.7,0-183.7v-292.8s-.1-96.2-.1-96.2c0-16.5.6-33.2,0-49.7Z"/>
      <path class="cls-9" d="M288.4,297.7c.6-.1,1.3,0,1.9,0,.2.3.5.5.6.8.9,2.9.2,12.4.2,16v47.1s-.2,241-.2,241c-41.5,3.1-83.1,5-124.6,7.6-15,.9-30.1,1.3-45,2.8-.9.1-1.6,0-2.6,0-1.7-3.4,0-268.1,0-290.3,8.7-1.8,17.6-2.9,26.4-4.2,16.9-2.5,33.7-4.9,50.6-7.2,30.9-4.4,61.8-9.5,92.8-13.4Z"/>
      <path class="cls-4" d="M157.9,566.2c1.2-.2,2.1-.2,3.4,0,1,6.8.2,14.7.2,21.7-6.7,0-13.3.8-19.9,1.4-1.1.2-1.8.2-2.8,0-1-4,0-16-.1-21.1,6.3-1.1,12.9-1.3,19.3-1.9Z"/>
      <path class="cls-4" d="M157.8,425.2c1.2-.2,1.9-.4,3.1,0,.9,7.3.2,15.3.2,22.7-6.2.1-12.3,1-18.4,1.8-1.1,0-2.2,0-3.3,0-.9-7.3-.2-15.3-.2-22.6,6.2-.2,12.6-1.3,18.8-1.9Z"/>
      <path class="cls-4" d="M154.1,519.8c2.4-.3,4.9-.3,7.3-.4,0,7.5,0,15.1,0,22.6-5,0-10.1.4-15,1l-7.6.2c.3-7.4.2-14.8.2-22.2,5-.4,10-.7,15-1.1Z"/>
      <path class="cls-4" d="M160.5,471.8h.4c1.2,3.2.5,18.6.6,22.7-7.2.7-14.3,1.5-21.5,1.7l-.5-.3c-1.3-4.1-.4-17.2-.5-22.3,7.2-.4,14.3-1.5,21.5-1.9Z"/>
      <path class="cls-4" d="M256.4,559.3c2.5-.2,5.1-.3,7.7-.5v22.7c-6.4.2-12.8.8-19.2,1.1l-5.5.5c-.3-7.6.1-15.3-.3-22.9,5.8-.1,11.5-.5,17.3-.9Z"/>
      <path class="cls-4" d="M261.8,412.7c1-.3,1.5-.3,2.4,0,1.1,4.4.2,18.1.2,23.2-7.6.9-15.1,1.6-22.7,2.3h-1.3c-1.6-2.8-.7-18.8-.7-23,7.3-.5,14.7-1.7,22.1-2.5Z"/>
      <path class="cls-4" d="M258.8,510.2c1.6-.3,3.5-.2,5.1-.3v24.1c-6.1.4-12.3.7-18.5,1.5l-5.5.3c-.5-7.9-.3-15.8-.4-23.7l19.3-1.9Z"/>
      <path class="cls-4" d="M263.7,461.2h.4c1.4,2.8.4,19.6.3,23.8-7.8.8-15.6.9-23.4,2.1l-.8-.5c-1.2-6.6-.3-16.6-.3-23.6,7.9,0,15.9-1.3,23.8-1.9Z"/>
      <path class="cls-4" d="M160,333.3c0,0,.1,0,.2,0,0,0,0,0,0,0v.9s.3-.3.3-.3c0,20.9.1,41.8.4,62.7-7.1.7-14.2,1.5-21.3,2-1.9-2.3-1.1-55-1.2-62.6,7.1-1.2,14.4-2.1,21.6-2.7Z"/>
      <path class="cls-4" d="M227.1,561.2c2-.3,4.1-.2,6.1-.3-.3,7.5-.2,15-.2,22.5-9.6.2-19.2,1.1-28.8,1.7-9.9.6-19.8.9-29.6,1.9-2.2,0-4.4.3-6.6.5,0-7.3,0-14.7,0-22,19.7-1.6,39.4-3,59.2-4.3Z"/>
      <path class="cls-4" d="M231.6,416.7h.8c1.6,3.2.3,18.4.2,22.8-21,1.8-41.8,5.4-62.8,7.2h-1c-1.4-3.4-.3-18.1-.3-22.7,7.5-.4,15.1-1.6,22.6-2.5,13.5-1.7,27-3.3,40.5-4.8Z"/>
      <path class="cls-4" d="M227.5,513.2c1.7-.3,3.7-.3,5.4-.4v23.5c-20,.9-40,3.3-60,4.3l-4.8.4c0-7.5,0-15,0-22.4,6.7-.2,13.5-1.1,20.2-1.8,13.1-1.3,26.2-2.5,39.3-3.6Z"/>
      <path class="cls-4" d="M230.3,464.7c1-.3,1.4-.2,2.4,0,1.1,4,.3,18.3.3,23.1-7.4.1-14.9,1.2-22.2,1.9l-40.2,3.8h-1.8c-1.8-2.6-.8-18.5-.8-22.6,20.6-3,41.6-4.5,62.3-6.4Z"/>
      <path class="cls-4" d="M263.9,318.8c1,1.5.6,58.3.6,64.8-8.1.9-16.2,1.9-24.2,3,0-21.6,0-43.3-.2-64.9,7.9-.6,15.9-2.1,23.9-2.9Z"/>
      <path class="cls-4" d="M230.8,322.7c.6-.1,1.4-.2,1.9-.2.8,1.1.6,58,.8,64.9-20.8,2.4-41.7,5-62.5,7.7-.7,0-1.5-.1-2.2-.2-1.1-2.9-.7-55.3-.8-62.7,20.9-3.4,41.9-6,62.7-9.5Z"/>
      <path class="cls-5" d="M64.7,750.2c25-.9,50.2-.2,75.2-.2h141c14.5,0,98.1-1.4,103.4.6,1.7.6,3.4,1.9,4.1,3.6.8,2.1,1,4.7,1.1,6.9.3,7.6,0,15.4,0,23v45.4c-.1,31.8.5,63.7-.3,95.5,0,.8-.1,1.4-.5,2.1l-1.1.3-324.5-.4c-.5-36.1.3-72.3,0-108.4-.1-15.6-.1-31.2,0-46.9,0-6.3-.8-14,.4-20.1.2-1.1.3-.9,1.1-1.4Z"/>
      <path class="cls-9" d="M82,768.6h75.5c12.5-.1,25.5-1,37.9,0,.7,1.1.4,2.5.4,3.8-26.8.3-53.6.1-80.4.1-5.5,0-29,.7-32.4-.5-1.2-1.2-1-1.7-1-3.4Z"/>
      <path class="cls-9" d="M82.2,792h83.1c6.1,0,25.4-.7,30.2.3.9,1.3.7,2.1.7,3.7-12.7,0-110.5.8-113.5-.3-.9-1.4-.6-2.1-.6-3.6Z"/>
      <path class="cls-9" d="M88.6,780.2c13,0,103.1-1.2,107.1.3.4,1.3.4,1.5,0,2.8-1.4,1.1-3.1.8-4.8.8l-96.8-.2c-3.2,0-10.5.8-12.8-1.5.1-.1.2-.3.4-.4,1.9-2,4.3-1.8,6.8-1.7Z"/>
      <path class="cls-9" d="M136.2,807.3c8.5,0,55.3-1.2,59.7,1,.5,1.3.2,1.3,0,2.6-.3.2-.6.5-.9.6-1.6.5-48.6,0-54.2,0h-37.3c-5.8,0-11.9.5-17.6,0-1.4-.1-2.5-.3-3.7-1.1-.1-1.1-.1-1,.6-1.9,1.4-.6,2.5-.9,4-1,4.4-.3,9.1.1,13.6.1l35.9-.2Z"/>
      <path class="cls-9" d="M228.3,780.7c11.2,0,22.5,0,33.7.2v85.4c-.1,0-.1,22.4-.1,22.4,0,3.8.5,7.8-.2,11.6l-.8.5c-11,.2-22.1.1-33.1.1-.1-2.4-.2-4.8-.2-7.3-.3-31-.4-61.9-.2-92.9,0-3.5-.6-16.7.2-19.4.1-.3.5-.5.7-.8Z"/>
      <path class="cls-7" d="M244.4,817.1c2,.1,3.8.3,5.6,1.3,2.3,1.3,4.1,3.6,4.7,6.3.5,2.3.1,4.8-1.2,6.8-1.7,2.6-4.4,4-7.4,4.7-1.9-.1-3.9-.1-5.7-1-2.4-1.2-4.3-3.2-5-5.8-.7-2.2-.3-4.6.8-6.6,1.8-3.2,4.8-4.6,8.1-5.6Z"/>
      <path class="cls-9" d="M243.5,821c1,0,2,0,3,0,1.5.2,3.3,1.5,4.1,2.8.9,1.3,1,2.9.6,4.4-.6,2.4-2.3,3.4-4.3,4.7-1,0-2.1.1-3.1,0-1.5-.2-3.1-1.3-3.9-2.5-.8-1.2-.9-2.7-.6-4.2.6-2.6,2.2-3.8,4.3-5.2Z"/>
      <path class="cls-7" d="M242.5,872.1c1.4-.2,2.8-.4,4.2-.2,2.5.3,5.1,1.6,6.5,3.7,1.3,1.9,1.7,4.3,1.2,6.6-.8,4.3-3.5,6.4-6.9,8.7-1.4.1-2.9.3-4.2,0-2.7-.4-5.5-2.3-6.9-4.5-1.4-2.2-1.7-4.7-1-7.1,1.1-3.8,3.8-5.4,7.1-7.1Z"/>
      <path class="cls-9" d="M244,875c1,0,2,0,3,.1,1.4.3,2.8,1.4,3.6,2.6.9,1.4,1.1,3.2.6,4.8-.7,2.7-2.4,3.6-4.7,4.9-1.3,0-2.4,0-3.6-.5-1.6-.5-2.9-1.6-3.6-3.1-.7-1.4-.7-3.1,0-4.6.9-2.3,2.6-3.3,4.8-4.2Z"/>
      <path class="cls-7" d="M243.7,790.1c1.1,0,2.3-.1,3.4.1,2.6.7,5.6,2.7,6.9,5.1,1.3,2.2,1.4,4.8.6,7.2-1.3,3.6-4,5.3-7.2,6.8-2.5,0-4.8-.1-7-1.4-2.4-1.3-4.3-3.4-5.1-6,0-.3-.1-.6-.2-.8,0-.3,0-.6-.1-.8,0-.3,0-.6,0-.9,0-.3,0-.6,0-.9,0-.3,0-.6.1-.8,0-.3.1-.6.2-.8,0-.3.2-.5.3-.8.1-.3.2-.5.4-.8,1.7-2.9,4.6-4.3,7.7-5.2Z"/>
      <path class="cls-9" d="M243,793.5c1,0,2.2-.1,3.1.1,1.8.5,3.5,2,4.4,3.6.1.2.2.4.3.6,0,.2.1.4.2.6,0,.2.1.4.1.6,0,.2,0,.4,0,.6,0,.2,0,.4,0,.6,0,.2,0,.4,0,.6,0,.2,0,.4-.2.6,0,.2-.1.4-.2.6-.9,2.1-2.5,2.7-4.4,3.5-.7,0-1.5,0-2.2-.2-1.9-.4-3.8-1.5-4.9-3.1-1-1.5-1.1-3.1-.5-4.8.7-2.1,2.5-3.1,4.3-4.1Z"/>
      <path class="cls-7" d="M243.8,844.6c1.5,0,3-.2,4.4.2,2.7.7,5.3,2.5,6.6,5,1.1,2.1,1.2,4.5.4,6.7-1.2,3.6-4.1,5.3-7.3,7-2.1.2-4.1.3-6.2-.5-2.5-.9-4.6-2.8-5.7-5.2-.1-.3-.2-.6-.3-.9,0-.3-.2-.6-.2-.9,0-.3-.1-.6-.1-.9,0-.3,0-.6,0-.9,0-.3,0-.6,0-.9,0-.3,0-.6.2-.9,0-.3.1-.6.2-.9,0-.3.2-.6.3-.9,1.5-3.3,4.4-4.8,7.7-5.9Z"/>
      <path class="cls-9" d="M244.6,847.5c.9,0,1.7,0,2.6.3,1.7.5,3.4,2,4.2,3.6.7,1.5.7,3.3.1,4.8-.9,2.5-2.9,3.3-5.1,4.3-.8,0-1.6,0-2.4-.2-1.9-.5-3.7-1.7-4.5-3.6-.6-1.5-.6-3.2,0-4.6.9-2.5,2.9-3.5,5.1-4.6Z"/>
      <path class="cls-9" d="M277.9,780.6c11.6-.1,23.1-.1,34.7-.1l.4,81.7c0,12.8.3,25.6-.3,38.4-11.7.4-23.4.2-35.1.1-.2-25.4-.2-50.8,0-76.3,0-14.5-.5-29.4.4-43.9Z"/>
      <path class="cls-7" d="M294.8,843.5c1.3.1,2.7.3,3.8.9,3.9,1.8,5.9,5.8,7.3,9.6-2.1,4.9-4.1,7.3-9,9.5-1.1,0-2.2,0-3.3-.4-2.8-.8-5.5-2.5-6.8-5.3-1.1-2.4-1-5.1,0-7.5,1.6-3.7,4.4-5.3,8-6.9Z"/>
      <path class="cls-9" d="M293.5,847.6c.7,0,1.3-.1,2-.1,1.7,0,3.4.9,4.5,2.1,1.1,1.2,1.4,2.7,1.3,4.2-.2,2.8-1.8,4-3.8,5.7-.8,0-1.6.2-2.5.2-1.7,0-3.4-.9-4.4-2.2-1.1-1.3-1.4-2.9-1.2-4.5.4-2.6,1.9-3.9,4-5.4Z"/>
      <path class="cls-7" d="M292.9,817.1c1.3-.1,2.7-.2,4.1,0,2.8.4,5.7,2.2,7.3,4.5,1.3,1.9,1.8,4.2,1.3,6.5-.8,3.9-3.7,5.8-6.8,7.9-1.7.5-3.5.7-5.2.3-2.6-.6-4.8-2.1-6.1-4.3-.2-.3-.3-.6-.5-.9-.1-.3-.3-.6-.4-.9-.1-.3-.2-.6-.3-1,0-.3-.1-.7-.2-1,0-.3,0-.7,0-1,0-.3,0-.7,0-1,0-.3,0-.7.1-1,0-.3.1-.7.2-1,1-3.7,3.5-5.3,6.7-7.1Z"/>
      <path class="cls-9" d="M293.5,821c.5,0,.9,0,1.4,0,2.1,0,4.2.4,5.6,2.1,1,1.2,1.5,2.6,1.2,4.2-.4,2.6-2,3.7-4,5-.9.3-1.9.5-2.9.5-1.5,0-3.4-.8-4.3-2.1-1-1.4-1.3-2.9-1-4.5.4-2.7,1.9-3.7,4-5.2Z"/>
      <path class="cls-7" d="M293,871.6c1.2,0,2.5-.1,3.7,0,2.8.5,5.7,2.2,7.3,4.6.2.3.3.5.5.8.1.3.3.5.4.8.1.3.2.6.3.9,0,.3.1.6.2.9,0,.3,0,.6.1.9,0,.3,0,.6,0,.9,0,.3,0,.6,0,.9,0,.3-.1.6-.2.9-1,3.7-3.8,6-7,7.8-1.9.1-3.7.2-5.5-.4-2.8-.9-5.2-2.9-6.4-5.6-.1-.3-.2-.6-.3-.9,0-.3-.2-.6-.2-.9,0-.3-.1-.6-.2-.9,0-.3,0-.6,0-.9,0-.3,0-.6,0-.9,0-.3,0-.6.1-.9,0-.3.1-.6.2-.9,0-.3.2-.6.3-.9,1.4-3.1,3.8-4.8,6.8-6Z"/>
      <path class="cls-9" d="M294.6,874.6c.9,0,1.7.2,2.6.5,1.5.5,3.2,1.8,3.8,3.3.6,1.5.6,3,0,4.5-1,2.4-2.9,3.3-5.2,4.2-1.1,0-2,0-3.1-.3-1.5-.5-2.8-1.8-3.4-3.3-.7-1.7-.5-3.6.3-5.2,1.1-2.2,2.7-3,5-3.7Z"/>
      <path class="cls-7" d="M294.3,789.5c1.2,0,2.4.1,3.6.5,3,1.1,5.7,2.9,7,5.9,1,2.4,1,4.9,0,7.3-1.4,3.3-4.3,5.1-7.5,6.3-1.4,0-2.8,0-4.1-.3-2.6-.7-5.1-2-6.5-4.4-1.3-2.2-1.5-4.9-.7-7.3,1.4-4.2,4.5-6.1,8.2-8Z"/>
      <path class="cls-9" d="M294,793.4c1,0,2,0,3,.3,1.7.5,3.4,1.9,4.1,3.5,0,.2.2.4.2.6,0,.2.1.4.2.6,0,.2,0,.4,0,.6,0,.2,0,.4,0,.6,0,.2,0,.4,0,.6,0,.2,0,.4-.1.6,0,.2,0,.4-.2.6,0,.2-.1.4-.2.6-1,2-2.7,2.9-4.7,3.8-.6,0-1.3,0-1.9-.1-1.7-.2-3.4-1.2-4.4-2.6-.9-1.3-1.1-3-.7-4.5.7-2.5,2.5-3.7,4.6-4.9Z"/>
      <path class="cls-9" d="M337.8,780.3l26.5-.2c.5,20.4,0,40.9,0,61.3,0,19.9.3,39.8-.2,59.6h-9c-9,0-18,.2-26.9-.3l.3-120.1,9.3-.2Z"/>
      <path class="cls-7" d="M344.6,871.6c1.6,0,3.2,0,4.7.4,2.5.7,4.8,2.4,6,4.8,1.2,2.4,1.2,5.3.2,7.7-1.4,3.7-4.2,5.5-7.6,7.1-1.6-.2-3.2-.4-4.7-1-.3-.1-.7-.3-1-.5-.3-.2-.6-.4-.9-.6-.3-.2-.6-.4-.9-.7-.3-.2-.5-.5-.8-.7-.3-.3-.5-.5-.7-.8-.2-.3-.4-.6-.6-.9-.2-.3-.4-.6-.6-.9-.2-.3-.3-.7-.5-1-.9-2.4-.9-5.1.3-7.4,1.5-3,4.1-4.3,7.1-5.4Z"/>
      <path class="cls-9" d="M345.1,875c.2,0,.3,0,.5,0,2.1,0,4.3.6,5.6,2.4,1.1,1.5,1.4,3.1,1.1,4.8-.6,2.7-2.5,4.1-4.7,5.5-.8,0-1.6,0-2.4-.2-1.6-.3-3.2-1.5-4.1-2.8-.9-1.4-1-3.1-.6-4.7.7-2.7,2.4-3.7,4.7-5Z"/>
      <path class="cls-7" d="M344.5,844c1.6-.1,3.4-.2,4.9.2,2.7.8,5.2,2.8,6.4,5.4.1.3.3.6.4.9.1.3.2.6.3.9,0,.3.1.6.2,1,0,.3,0,.6,0,1,0,.3,0,.6,0,1,0,.3,0,.6-.1,1,0,.3-.1.6-.2.9,0,.3-.2.6-.3.9-1.5,3.5-4.2,5-7.6,6.4-1.1,0-2.2,0-3.2-.2-2.9-.6-5.8-2.3-7.3-4.9-1.3-2.2-1.5-4.8-.7-7.2,1.2-3.7,4.1-5.5,7.4-7.3Z"/>
      <path class="cls-9" d="M344.5,847.5c1.1,0,2.2-.2,3.3,0,1.7.3,3.5,1.5,4.4,2.9.9,1.4,1.1,3,.7,4.6-.6,2.5-2.3,3.6-4.4,4.9-.8,0-1.7.1-2.5,0-1.7,0-3.6-1-4.7-2.4-1.1-1.3-1.4-2.9-1.1-4.6.5-2.7,2.2-4,4.3-5.4Z"/>
      <path class="cls-7" d="M344.8,816.5c1.1,0,2.3,0,3.4.3,2.9.9,5.7,2.9,7.1,5.6.1.3.3.6.4.9.1.3.2.6.3.9,0,.3.2.6.2.9,0,.3,0,.6.1,1,0,.3,0,.6,0,1,0,.3,0,.6,0,1,0,.3-.1.6-.2.9,0,.3-.2.6-.3.9-1.2,3.3-4,5.2-7.1,6.5-1.7,0-3.5.2-5.1-.3-2.6-.8-4.9-2.5-6.2-4.9-1.2-2.4-1.3-5.2-.3-7.7,1.4-3.6,4.2-5.5,7.6-7Z"/>
      <path class="cls-9" d="M345,820.5c1.2,0,2.4,0,3.5.3,1.7.6,3.4,1.8,4.1,3.5.6,1.5.7,3.2,0,4.7-1,2.3-2.8,3.2-5,4.1-1,0-2,.1-3,0-1.6-.2-3.5-1.4-4.3-2.8-.8-1.5-1-2.9-.5-4.5.8-2.8,2.7-3.9,5.1-5.2Z"/>
      <path class="cls-7" d="M345.1,789c1.3,0,2.5.1,3.7.6,3.1,1.2,5.9,3.4,7.1,6.6.1.3.2.6.3.9,0,.3.1.6.2,1,0,.3,0,.7,0,1,0,.3,0,.7,0,1,0,.3,0,.7-.1,1,0,.3-.1.6-.2,1,0,.3-.2.6-.3.9-.1.3-.3.6-.4.9-1.7,3.1-4.5,4.8-7.8,5.7-.8,0-1.6,0-2.4-.2-2.8-.7-5.8-2.7-7.2-5.2-1.3-2.3-1.6-4.9-.7-7.4,1.3-3.8,4.5-6.1,8-7.7Z"/>
      <path class="cls-9" d="M344.6,793c1-.1,1.9-.2,2.9,0,1.7.3,3.4,1.6,4.3,3,.1.2.2.4.3.5,0,.2.2.4.3.6,0,.2.1.4.2.6,0,.2.1.4.1.6,0,.2,0,.4,0,.6,0,.2,0,.4,0,.6,0,.2,0,.4,0,.6,0,.2,0,.4-.1.6-.5,2.3-2,3.6-4,4.8-.9,0-1.9.1-2.8,0-1.9-.1-3.7-1.2-4.8-2.7-1-1.3-1.3-3-1-4.7.5-2.7,2.3-3.8,4.5-5.2Z"/>
      <path class="cls-9" d="M99.1,819.8c13-.5,26.1-.2,39.2-.2h58.3c0,27.6.6,55.4-.1,83-20.8-.2-41.5-.8-62.2-.7-8.7,0-27.1,1.1-34.8-.1-.3-25.1-.4-50.1-.2-75.2v-6.8Z"/>
      <path class="cls-9" d="M344.5,600.2c19.3-.3,38.7-1.9,58-3,26.5-1.3,53-2.8,79.4-4.4,17.1-1,34.4-2.6,51.5-2.8v254.2s0,87.1,0,87.1c0,14.8.6,30,0,44.8-6.5.5-13.4.1-20,.1-28.3.3-56.7.4-85,.3-13.4,0-27,.3-40.4,0-.2-5.9-1.5-10.6-.9-16.7-.2-3.8.2-7.6.4-11.4,4.8-2.3,7.7-5,10.3-9.5.5-13.6.1-27.3,0-40.9v-6c.1-23.3-.2-46.5,0-69.8-.2-8.3,0-16.6,0-24.9.2-10.7-.7-21.8.4-32.5-.5-7.1.6-11.1-3.6-17.4-2.2-2.1-4.6-4.1-7.4-5.2-7.8-2.9-24.7-1.2-33.6-1.3-2.9,0-6.1.1-8.9-.6h-.3s-.2-140.3-.2-140.3Z"/>
      <path class="cls-5" d="M498.6,857.6c1.6,0,3.1,0,4.6.6,2.9,1.1,5.2,3.1,6.4,6,.1.3.3.7.4,1.1.1.4.2.7.3,1.1,0,.4.1.7.2,1.1,0,.4,0,.7,0,1.1,0,.4,0,.7,0,1.1,0,.4-.1.7-.2,1.1,0,.4-.2.7-.3,1.1-.1.4-.2.7-.4,1-1.6,3.6-4.2,5.1-7.7,6.5-1.3,0-2.7-.1-4-.5-.3,0-.7-.2-1-.3-.3-.1-.6-.3-1-.4-.3-.2-.6-.3-.9-.5-.3-.2-.6-.4-.9-.6-.3-.2-.5-.4-.8-.7-.3-.2-.5-.5-.7-.8-.2-.3-.4-.5-.6-.8-.2-.3-.4-.6-.6-.9-.2-.3-.3-.7-.5-1-.1-.3-.3-.7-.4-1.1-.1-.4-.2-.7-.3-1.1,0-.4-.1-.7-.1-1.1,0-.4,0-.7,0-1.1,0-.4,0-.7,0-1.1,0-.4.1-.7.2-1.1,0-.4.2-.7.3-1.1,1.4-3.9,4.2-5.9,7.9-7.5Z"/>
      <path class="cls-5" d="M498.1,902.5c1.3,0,2.6-.1,3.9.2,2.8.7,5.5,2.4,6.9,4.9,1.6,2.8,1.9,6.2.9,9.3-1.3,4-3.8,6.1-7.5,7.9-1.8.1-3.4.2-5.1-.3-.3-.1-.6-.2-1-.4-.3-.1-.6-.3-.9-.5-.3-.2-.6-.3-.9-.5-.3-.2-.5-.4-.8-.6-.3-.2-.5-.5-.7-.7-.2-.2-.5-.5-.7-.8-.2-.3-.4-.5-.6-.8-.2-.3-.3-.6-.5-.9-.2-.4-.3-.7-.5-1.1-.1-.4-.3-.8-.4-1.2-.1-.4-.2-.8-.2-1.2s-.1-.8-.1-1.2c0-.4,0-.8,0-1.2,0-.4,0-.8.1-1.2,0-.4.1-.8.3-1.2.1-.4.2-.8.4-1.2,1.4-3.8,3.8-5.6,7.3-7.3Z"/>
      <path class="cls-4" d="M395.2,722.9c.7,8-.1,16.5-.3,24.6-2.2-2.1-4.6-4.1-7.4-5.2-7.8-2.9-24.7-1.2-33.6-1.3-2.9,0-6.1.1-8.9-.6,8.1,0,16.3,0,24.4,0,.1-5.5.2-11,0-16.6,8.6-.5,17.3-1,25.9-1Z"/>
      <path class="cls-4" d="M492.3,772.7c4.5-.1,9.1-.2,13.7-.2-.1,8-.2,16-.2,24h-10.3s-13.8,0-13.8,0c.3-7.9.2-15.8.2-23.6,3.5,0,7,0,10.5-.2Z"/>
      <path class="cls-4" d="M496.6,668.3c3.2-.2,6.4-.2,9.6-.3,0,8,0,16,0,24-5.2.7-10.6.5-15.9.6l-8.3.5c0-8-.1-16.1,0-24.1,4.9,0,9.9-.4,14.8-.6Z"/>
      <path class="cls-4" d="M496.5,720.7c3.1-.3,6.4-.2,9.6-.3v24.6c-5.2,0-10.4,0-15.5.3l-9.1.2c.2-8.1.2-16.3.1-24.4,4.9,0,9.9-.1,14.8-.4Z"/>
      <path class="cls-4" d="M505.3,616.3h.6c1.6,2.3.3,20.3.2,24.4-7.7.3-15.4.6-23.2.9l-.9-.3c-1.2-4.6-.4-17.7-.5-23.3,7.9-.6,15.9-1.2,23.8-1.7Z"/>
      <path class="cls-4" d="M390.2,672.8c1.7-.2,3.4-.5,5,.1,1,7.2,0,15.4,0,22.6l-21.2.8c-1.6,0-3.1.2-4.6-.4-1.2-6.4-.3-15.4-.3-22,7-.6,14.2-.7,21.2-1.1Z"/>
      <path class="cls-4" d="M384.4,622.3c3.6-.3,7.3-.3,10.9-.3-.1,7.9-.1,15.7,0,23.6-5.8,0-11.5.4-17.3.6-3,.4-6,.4-8.9.5.1-7.8.2-15.8-.3-23.6,5.2-.3,10.5-.6,15.7-.7Z"/>
      <path class="cls-4" d="M472.3,669.2h.6c1.6,2.2.7,19.8.6,23.8-23.4,1-46.7,1.7-70.1,2.1h-.7c-1.6-2.5-.7-19-.7-23.1,8.1,0,16.3-.6,24.5-.9l45.8-1.9Z"/>
      <path class="cls-4" d="M473,721.3l.4.3c1.2,5.1.3,18,.3,23.9-12.6,0-25.1.4-37.7.6-11.3.2-22.6.2-33.9.9-1.4-6.3-.4-17.1-.6-24,23.8,0,47.7-1.2,71.4-1.7Z"/>
      <path class="cls-4" d="M467.5,618.3l6.7-.3c-.2,8.1-.3,16.1-.1,24.2-22,1.6-44.3,2-66.4,3l-5.8.5v-24c9.4,0,18.9-.9,28.3-1.5,12.4-.7,24.8-1.3,37.3-1.7Z"/>
      <path class="cls-4" d="M398.4,764.9c.4,3.2.2,6.4.1,9.6,16.7-.4,33.4-.7,50-.9,8.2-.1,16.8.3,24.9-.5l-.2,23.3c-25,.5-50.3,1.3-75.3.9.2-10.7-.7-21.8.4-32.5Z"/>
      <path class="cls-4" d="M398.1,822.2c1,9.8.3,20,.4,29.9l77.8.3.2,39.7h-78.5c.1-23.3-.2-46.5,0-69.8Z"/>
      <path class="cls-4" d="M398,898c26.1.4,52.3,0,78.4-.3-.3,15.8-.7,31.8,0,47.5h-50.8c-7.9.1-17-.9-24.7.6-2.7.5-5,2.4-6.8,4.3-1.4,1.4-2.7,3-3.8,4.6-1.2,1.6-2.2,3.3-3.1,5.1-.2-3.8.2-7.6.4-11.4,4.8-2.3,7.7-5,10.3-9.5.5-13.6.1-27.3,0-40.9Z"/>
      <path class="cls-2" d="M476.4,945.2c9.2,0,25-2.1,32.1,4.6,4.6,4.4,5.1,10.7,5.1,16.7,0,3.2,0,6.5-.1,9.7-28.3.3-56.7.4-85,.3-13.4,0-27,.3-40.4,0-.2-5.9-1.5-10.6-.9-16.7.9-1.8,1.9-3.5,3.1-5.1,1.2-1.6,2.4-3.1,3.8-4.6,1.9-1.9,4.2-3.7,6.8-4.3,7.7-1.5,16.8-.5,24.7-.5h50.8Z"/>
      <path class="cls-9" d="M532.8,260.2h.5c.4.6.5,1,.5,1.8.2,11.7-.1,23.4-.1,35.1v69.5c0,0,0,221.8,0,221.8-16.4.3-33,1.9-49.3,2.8l-78.8,4.4c-20,1.2-39.9,2.8-59.9,3.4l-.6-.3c-1.4-4.3-.4-63.6-.4-72.1v-238.3c11.2-2.7,23.2-3.8,34.5-5.4l50.4-7.4c34.5-4.8,68.9-10.9,103.4-15.2Z"/>
      <path class="cls-7" d="M493.2,436.9c-2.4-.8-4.5-.5-7-.5-1,0-3.9.2-4.5-.4,2.1-1.5,19.5-1.8,22.9-1.5-3.8,1.2-7.4,2.4-11.4,2.4Z"/>
      <path class="cls-4" d="M504.5,387.2h1.3c1.5,3.7.6,17.5.5,22.1-7.3.6-14.5,1.3-21.7,2.1-1,.2-1.5.2-2.5-.1-1-6.8-.3-14.4-.3-21.2,7.4-1.4,15.1-2,22.6-2.9Z"/>
      <path class="cls-4" d="M390.3,399.2c1.5-.2,3.2-.2,4.6-.2-.1,7-.4,13.9,0,20.9-6.3,1.1-12.9,1.4-19.3,2l-6.6.5-.3-21.3c7.2-.4,14.4-1.2,21.6-1.9Z"/>
      <path class="cls-4" d="M503.7,540.7c1.1-.2,1.1-.4,2.2,0,1.2,7.4.3,16.2.2,23.7-7.2,1-14.6,1.3-21.8,1.8-.6.1-1.1,0-1.8,0-1.6-3.1-.6-19.5-.6-23.9,7.3-.4,14.5-1,21.7-1.5Z"/>
      <path class="cls-4" d="M504.6,434.5l1,.2c1.4,5.3.4,19.3.4,25.5-8,1.4-16.1,1.3-24.1,2.3v-24.5c3.7-.5,7.5-.9,11.2-1.3,4,0,7.6-1.2,11.4-2.4Z"/>
      <path class="cls-4" d="M504.4,487.7c.9-.1.4-.2,1.5.2,1.4,4.9.2,18.9,0,24.9-7.4.7-14.8,1-22.2,1.7-.7,0-1-.2-1.7-.5-1.5-5.4-.4-18.4-.3-24.6,7.5-.2,15-1.2,22.5-1.8Z"/>
      <path class="cls-4" d="M390.2,497.8c1.7-.2,3.4-.5,5,0,1.1,7.5-.2,16,0,23.6-7.2.5-14.4,1-21.6,1.6l-4.3.2c.1-7.9.3-15.9-.3-23.7,7-.1,14.1-1.1,21.1-1.7Z"/>
      <path class="cls-4" d="M392.3,548.2c1-.2,1.4-.2,2.4,0,1,4,.2,18.8.3,24.1-7.4.5-14.9,1-22.3,1.6-1.2,0-2.2,0-3.4-.3-1.1-3.9-.4-18.7-.4-23.9,7.8-.5,15.6-1,23.4-1.7Z"/>
      <path class="cls-4" d="M394.6,446.3h.2c1.5,1.9.3,21,.3,25-8.4.7-16.8,1.3-25.1,1.8h-.5c-1.4-2.3-.5-20.4-.5-24.4,8.5-.3,17.1-1.5,25.6-2.4Z"/>
      <path class="cls-4" d="M468.3,391.2c1.6-.3,3.5-.2,5.2-.3,0,7.3,0,14.5-.1,21.8l-65.2,6.1c-2.1.2-4.1.5-6.2.8,0-7.3-.1-14.7-.3-22,22.2-2.3,44.5-4.5,66.7-6.4Z"/>
      <path class="cls-4" d="M503.8,283.2l1.5-.2.8.6c.7,6.3.1,13.2.2,19.6.2,17.1.1,34.3-.2,51.4-6.9,1-14,1.6-20.9,2.3-1.1.2-1.8.1-2.8,0-1.2-4.5-.3-16.1-.3-21.5v-48.8s21.8-3.2,21.8-3.2Z"/>
      <path class="cls-4" d="M391.3,299.2c1.1-.2,1.8-.2,2.9,0,1.2,5.5.3,15.6.2,21.6v47.3c-6.9.2-13.9,1.4-20.8,2-1.5.2-2.9.3-4.4.4v-1.6c0,0-.2.2-.2.2-.4-22,0-44.1-.2-66.2,7.5-.8,15-2.4,22.5-3.6Z"/>
      <path class="cls-4" d="M472.3,542.8c.4-.1.9,0,1.3,0,1.4,4,.4,19.7.4,24.7-23.3.6-46.8,3-70.1,4.6l-1.3-.2c-1.7-2.5-.7-19.9-.7-24,23.4-2.1,47-3.3,70.4-5.1Z"/>
      <path class="cls-4" d="M471,490.7c1.1-.1,1.3-.3,2.4.2,1.1,7.8.2,16.7.2,24.6l-52.4,4.1c-5.6.4-11.1.5-16.7,1-.8,0-1.5-.2-2.3-.3-1.3-3.8-.3-19.1-.3-23.8,22.9-1.4,46.1-4.2,69.1-5.9Z"/>
      <path class="cls-4" d="M468.1,438.8c1.6-.2,3.8-.7,5.2.1,1.1,7.9,0,16.9,0,25-22,1.8-44,3.7-66,5.7-1.8.2-3.4.4-5.2,0-1-7.8-.2-16.7-.2-24.7,21.9-2.8,44.1-4.2,66.1-6.3Z"/>
      <path class="cls-4" d="M469.8,288.2c.1,0,.3,0,.4,0,1.1-.1,2.3-.3,3.1.4-.7,23.2-.1,46.6.2,69.9-22.1,1.8-44.1,5.6-66.2,7.7-1.7.3-3.1.6-4.8.1-1.6-4.5-.5-58.4-.6-68.7,22.5-3.4,45.2-6.3,67.8-9.3Z"/>
      <path class="cls-9" d="M799.3,227.7h1c.3.5.4.7.5,1.3.6,3.4,0,18.1,0,22.5v66.9c.1,0-.2,253.8-.2,253.8l-144.3,9c-17.8,1.2-35.7,1.8-53.4,3.5l-1.4-.3c-.5-1-.5-1.8-.6-2.8-.4-12.1,0-24.3,0-36.4v-71s0-218.9,0-218.9c16-3.1,32.7-4.7,48.8-6.9l92.9-12.9c18.8-2.5,37.8-4.5,56.5-7.6Z"/>
      <path class="cls-4" d="M651.8,372.2h1.4c1.6,2,.7,18.3.8,22-8,.6-16.1,1.4-24.1,1.8l-1.6-.2c-1.6-1.9-.8-17.6-.9-21.3,8.1-.5,16.3-1.5,24.3-2.4Z"/>
      <path class="cls-4" d="M767.8,360.2c1.1-.2,1.8-.2,2.9,0,1.1,4.5.3,16.8.3,21.9-7.3,1.1-14.6,2-21.9,2.8-1.2.1-2.1.1-3.3,0-1.3-4.3-.4-17.5-.4-22.5,7.5-.5,14.9-1.4,22.4-2.1Z"/>
      <path class="cls-4" d="M764.4,469.8l6.7-.4v23.6c-6.7.8-13.5,1.1-20.2,1.6l-4.8.5v-23.9c6.1-.1,12.2-.8,18.4-1.4Z"/>
      <path class="cls-4" d="M652.6,479.3l.5.2c1.2,3.6.4,18.1.4,23-8.2.8-17,1.2-24.9,3.1-1.4-1.6-.8-20.4-1-24.4,8.3-.2,16.7-1.2,25-1.8Z"/>
      <path class="cls-4" d="M652.8,425.8l.5.3c1.3,6.3.3,16.4.2,23.1l-25.5,2.5c-1.2-6.9-.3-16.6-.2-23.8,8.3-.5,16.7-1.4,25-2.1Z"/>
      <path class="cls-4" d="M770.1,414.8h.4c1.5,2.8.7,19.5.6,23.7-7.9,1-16,1.6-24,2.3h-.7c-1.4-1.4-.9-20.1-.9-23.7,8.2-.8,16.4-1.6,24.7-2.3Z"/>
      <path class="cls-4" d="M643.9,534.3c3.2-.3,6.5-.3,9.7-.4v24.1c-5.8.3-11.5.7-17.2,1.2-3,.3-5.9.5-8.9.8v-24.9c5.5,0,10.9-.4,16.4-.8Z"/>
      <path class="cls-4" d="M767.9,524.7c1.3-.2,1.7-.4,2.8.2.9,8.3,0,17,.2,25.3-7.1.4-14.2.5-21.3,1.3-1.3,0-2.2,0-3.5-.3-1-7.9-.2-16.7-.2-24.7l21.9-1.8Z"/>
      <path class="cls-4" d="M729.1,364.3c2.5-.3,5.1-.3,7.7-.5,0,7.5,0,15,0,22.6-7.4.2-15,1.4-22.4,2-15.2,1.2-30.4,2.6-45.5,4.3-2.1.2-4.2.4-6.3.5.2-7.4.1-14.7,0-22.1,8-.5,16.2-1.9,24.2-2.7l42.2-4.1Z"/>
      <path class="cls-4" d="M735.6,418.2h1.3c1.3,2.2.5,19.7.6,23.7-9.5.5-19,1.6-28.4,2.4l-45.2,3.8-1-.3c-1.5-2.9-.7-18.9-.8-23.3,8.7-.3,17.5-1.4,26.1-2.2l47.4-4.1Z"/>
      <path class="cls-4" d="M732.5,472.2c1.6-.2,3.4-.2,5-.3v24c-23.4,1.7-46.6,4-69.8,5.6l-5.7.5v-23.6c23.5-1.7,47-4.3,70.5-6.3Z"/>
      <path class="cls-4" d="M731,527.7c2.1-.3,4.4-.3,6.5-.4v24.9c-23.5,1-46.8,3.4-70.2,4.8l-5.2.4c.2-8.2,0-16.4-.2-24.5,22.9-2.5,46-3.7,69-5.3Z"/>
      <path class="cls-4" d="M651.2,266.2c.9-.2,1.4-.2,2.3,0,.2.3.4.6.5,1,.5,2.2-.2,14.8-.2,17.9l.2,52.5c-8,.9-15.9,1.8-23.9,2.6-.9.2-1.4.2-2.3,0-1.4-3.2-.3-62.3-.3-70.6,7.9-1,15.8-2.3,23.7-3.5Z"/>
      <path class="cls-4" d="M770.7,249.7h.3c1.1,2,.3,66.3.3,74.4-7.9.9-15.8,1.7-23.7,2.9-.6,0-1.1,0-1.7-.2-.5-1.1,0-67.2-.3-74.1,8.4-.5,16.8-1.8,25.1-3Z"/>
      <path class="cls-4" d="M736,254.2h.3c.2.3.4.5.5.8.4,1.1,0,67,0,73.4-24.2,3.6-48.6,5.9-72.9,8.3l-1-.3c-1.5-3.6.8-60.7-.3-71.9,24.5-3.6,49-7,73.5-10.3Z"/>
      <path class="cls-9" d="M600.8,586.1l130.7-8.2,43.1-2.8c8.6-.6,17.3-1.5,26-1.6l.2,271v88.4c0,13.2-1,30.6,0,43.4-6.6.6-13.4.3-20,.2-10.8,0-21.5-.1-32.3-.1h-119.9c-5.7.1-23.5,1.4-27.7-.5.4-15.2,0-30.5,0-45.7v-82.6c-.1,0-.1-261.5-.1-261.5Z"/>
      <path class="cls-7" d="M732.9,752.2c1.9-.3,4-.2,5.9.2l.4.7c-3.8,1.6-62.3,1.3-71.4,1.5-2.1.2-3.8.2-5.8-.1v-.5c7.2-1.8,15.9-.9,23.3-.9,15.8,0,31.8.5,47.6-.8Z"/>
      <path class="cls-4" d="M685,767.2c6.6-.4,49-1.1,53.5.4-2.8,1.1-19.6.8-23.6.9-10.4,0-20.9.2-31.3.4-6.9.1-14.7.9-21.5-.4,1.8-1.4,19.4-1.1,23-1.3Z"/>
      <path class="cls-4" d="M725.7,710.3c3.8-.3,9.7-1.1,13.3.2-1.6.8-3.4,1.2-5.2,1.4-5.7.6-11.7.2-17.4.4-14.3.5-28.6,1-42.9,1.4-3,.1-9.5,1-12.1-.4,1.5-.9,3.3-1.1,5-1.3,5.2-.4,10.8,0,16.1-.1l43.3-1.5Z"/>
      <path class="cls-5" d="M630.8,857.5c1.9,0,3.4.4,5.2,1.2,2.8,1.4,4.8,3.5,5.7,6.5.1.4.2.7.3,1.1,0,.4.1.7.2,1.1,0,.4,0,.8,0,1.1,0,.4,0,.8,0,1.1,0,.4,0,.7-.2,1.1,0,.4-.2.7-.3,1.1-.1.4-.2.7-.4,1.1-.2.3-.3.7-.5,1-1.8,3.3-4.5,4.6-8,5.6-.9,0-1.9,0-2.8-.2-4.1-.9-6.3-4.3-8.4-7.6-.2-2.3,0-4.7,0-7.1,2.4-4,4.9-5.6,9.2-7.2Z"/>
      <path class="cls-5" d="M630.3,902.5c1.9,0,3.5,0,5.3.8.3.1.7.3,1,.5.3.2.6.4,1,.6.3.2.6.4.9.7.3.2.6.5.8.8.3.3.5.6.7.9.2.3.4.6.6.9.2.3.4.7.5,1,.2.3.3.7.4,1.1.1.4.2.8.3,1.2,0,.4.2.8.2,1.2,0,.4,0,.8,0,1.2,0,.4,0,.8,0,1.2,0,.4,0,.8-.2,1.2,0,.4-.2.8-.3,1.2-.1.4-.3.8-.4,1.1-.2.4-.3.7-.5,1.1-1.8,3.2-4.5,4.8-8,5.8-1.2,0-2.3-.1-3.5-.5-3-.9-5.4-2.9-6.8-5.7-.2-.4-.3-.7-.5-1.1-.1-.4-.3-.8-.4-1.2s-.2-.8-.2-1.2c0-.4,0-.8-.1-1.2,0-.4,0-.8,0-1.2,0-.4,0-.8.1-1.2,0-.4.2-.8.3-1.2.1-.4.2-.8.4-1.1,1.6-3.9,4.5-5.5,8.2-6.9Z"/>
      <path class="cls-5" d="M762.8,902.5c1.5,0,3-.1,4.4.5,2.9,1.2,5.2,3.2,6.4,6.1.2.4.3.7.4,1.1.1.4.2.8.3,1.2,0,.4.1.8.2,1.2,0,.4,0,.8,0,1.2,0,.4,0,.8,0,1.2,0,.4,0,.8-.2,1.2,0,.4-.2.8-.3,1.2-.1.4-.2.8-.4,1.1-1.7,4.1-4.3,5.8-8.3,7.3-2,.1-3.8,0-5.6-.9-2.8-1.3-4.9-3.5-5.9-6.4-1.1-3.2-.8-6.8.8-9.7,1.9-3.5,4.5-4.9,8.1-6.2Z"/>
      <path class="cls-5" d="M762,856.6c1.9,0,3.6,0,5.4.5,2.8.9,5.3,3,6.6,5.7,1.5,3,1.6,6.5.4,9.6-1.5,3.8-4,5.4-7.5,7-2,.2-3.8.2-5.7-.5-3-1-5.3-3.1-6.7-5.9-.2-.4-.3-.8-.5-1.1-.1-.4-.2-.8-.3-1.2,0-.4-.2-.8-.2-1.2,0-.4,0-.8,0-1.2s0-.8,0-1.2c0-.4,0-.8.2-1.2,0-.4.2-.8.3-1.2.1-.4.3-.8.4-1.2,1.5-3.6,4.1-5.3,7.6-6.8Z"/>
      <path class="cls-4" d="M766.1,772.2l4.9-.2c-.1,7.9-.1,15.8,0,23.8l-19.8.5h-5.2s-.2-23.8-.2-23.8c6.8,0,13.6,0,20.4-.3Z"/>
      <path class="cls-4" d="M627.3,774h26.7c-.2,7.6-.3,15.3-.3,23-8.5.4-17.2,0-25.8.1-.6-7.6-.4-15.4-.5-23.1Z"/>
      <path class="cls-4" d="M769.7,714.7c.5,0,.1,0,1,.4,1.2,4.2.4,19.6.4,24.9-7.9.2-15.8.6-23.6,1l-.8-.5c-1.2-5.6-.2-17.9-.4-24.5,7.8-.9,15.7-.9,23.5-1.3Z"/>
      <path class="cls-4" d="M644.9,719.2l8.8-.3c0,8.2,0,16.4-.1,24.6h-15.9c0-.1-10.1,0-10.1,0v-23.6c5.7-.4,11.5-.5,17.3-.8Z"/>
      <path class="cls-4" d="M763.4,601.2c2.6-.2,5.2-.2,7.8-.3.1,8.7,0,17.5-.1,26.2-5.5.4-10.9.5-16.4.9l-8.7.2c.1-8.7.1-17.4,0-26.1,5.8-.2,11.6-.5,17.4-.8Z"/>
      <path class="cls-4" d="M639.5,608.2c4.7-.4,9.5-.3,14.2-.4-.2,8.3-.1,16.6-.2,24.9-4,.3-8,.5-12,.7-4.7.2-9.5.4-14.2.7,0-8.3.5-16.8-.2-25.2l12.4-.7Z"/>
      <path class="cls-4" d="M644.8,662.2c2.9-.2,5.9-.2,8.8-.2v25.5c-5.6,0-11.1,0-16.7.2-3.2.3-6.4.3-9.5.4l-.2-25c5.9,0,11.8-.5,17.6-.8Z"/>
      <path class="cls-4" d="M768,656.2c1.2-.1,1.7-.2,2.8.2,1.1,8.5,0,17.9.2,26.5-7.3.3-14.7.8-22,1.1-1,0-1.6,0-2.6-.3-1.2-6.3-.3-19.1-.3-26.1,7.3-.2,14.7-.9,22-1.4Z"/>
      <path class="cls-4" d="M714,772.7c8.1-.3,16.2-.2,24.3-.3l-.2,24.1c-17.3-.3-34.6,0-51.8,0-8.1,0-16.2.3-24.3.5.1-7.7,0-15.4,0-23.1,17.3-.8,34.7-.8,52.1-1.2Z"/>
      <path class="cls-4" d="M732.3,716.2l5.7-.2c0,8.4-.3,16.7,0,25.1-12.6.2-25.3.9-37.9,1.2-9.7.3-19.4.2-29.1.6h-8.9c.2-8.1,0-16.2,0-24.3l70.3-2.4Z"/>
      <path class="cls-4" d="M731.1,602.8c2.3-.2,4.7-.3,7.1-.5-.2,8.8-.3,17.7-.2,26.5-23.2.5-46.6,1.8-69.8,3l-6.2.2v-24.9s69.1-4.4,69.1-4.4Z"/>
      <path class="cls-4" d="M735.9,658.2c1.2,0,1.3-.3,2.3.5.8,8.3,0,16.9.2,25.3-24.2,1.5-48.5,1.4-72.8,2.9-1,0-2.1,0-3.1,0-1.6-1.9-.6-21.4-.6-25.3,24.6-.8,49.3-2.2,73.9-3.3Z"/>
      <path class="cls-4" d="M663.9,851.2c13.1-.7,26.3-.2,39.4-.2,9.7,0,19.8-.6,29.5.2,2.3.2,4.5.6,6.6,1.5.8,4.3.3,9.1.2,13.5v24.7s-6.1.3-6.1.3l-75.4-.2c-.3-13,0-26,0-39,1.9-.4,3.8-.6,5.7-.8Z"/>
      <path class="cls-4" d="M658.2,897.5c15.8-.3,31.5-.2,47.3-.3,11.2,0,22.9-.8,34,.3v46.9s-81.5,0-81.5,0c0-15.6-.4-31.4.2-47Z"/>
      <path class="cls-2" d="M658.1,944.5h81.5c8.8,0,23.8-1.9,30.5,4.5,7.3,6.9,5.6,18.1,6.3,27.1,7.8,0,16.8-.9,24.4.3-6.6.6-13.4.3-20,.2-10.8,0-21.5-.1-32.3-.1h-119.9c0-8.6-1.3-20.6,5.4-27.2,6.2-6.1,16.1-4.8,24.1-4.7Z"/>
      <path class="cls-6" d="M805.5,222.9c8.9,4.2,23,6.6,32.8,9.2l94.4,24.1c6.6,1.7,13.1,3.4,19.7,5,3.1.7,7.4,1.1,10.2,2.4.4.2.5.4.8.7-.5,9.6-.3,19.3-.3,28.9v46.7c0,0,0,155,0,155l.5,481.5h-114.4s-28,0-28,0c-4.8,0-10.8.6-15.4-.4-.7-7.7-.2-15.7-.2-23.4v-44.5s0-139.7,0-139.7v-347.4c0,0,0-132.2,0-132.2,0-21.9.5-44,0-65.9Z"/>
      <path class="cls-10" d="M874.4,774.1c1.5.4,1.9.3,2.9,1.5.7,5.6,1.1,25.6-.2,30.2-.4,0-.8-.2-1.1-.3-1.1-.4-1.7-.6-2.1-1.8-1-3-.6-27.2.6-29.7Z"/>
      <path class="cls-10" d="M874.3,821.2c1.5.3,2,.1,3,1.3.5,4.8,1.3,27.2-.7,30.3-.7-.2-2.2-.6-2.6-1.2-1.4-2.4-.7-27.2.3-30.3Z"/>
      <path class="cls-10" d="M874.4,727.1c1.5.4,1.9.3,2.9,1.6.5,4.7,1.2,28.1-.8,31-1.1-.3-1.3-.5-2.2-1.1-1.7-3.9-1.5-27.4,0-31.5Z"/>
      <path class="cls-10" d="M873.5,681.2c1.2,0,2,0,3.1.7,1.7,2.7.8,26.7.7,31.3-1.5-.1-2.3,0-3.6-.9-1.2-4.8-.5-25.2-.2-31.1Z"/>
      <path class="cls-10" d="M892.8,726.7c1.3.3,2.1.4,3,1.5.5,5,1,27.4-.7,30.9-1.1-.3-.7-.1-1.7-.6-.8-.4-1.1-.5-1.3-1.4-.9-3.3-.6-27.9.7-30.5Z"/>
      <path class="cls-10" d="M892.8,773.7c1.5.3,2.1.5,3.1,1.8.6,5.5,1.1,25.6-.3,30.5-1.6-.4-2.3-.5-3.3-1.8-.6-5.3-1.2-26.3.6-30.4Z"/>
      <path class="cls-10" d="M892.7,820.7c.4,0,.9.1,1.3.2,1,.3,1.7.5,2,1.6.9,3.2.5,27.5-.9,30-1.3-.2-2-.1-2.9-1.1-.6-5.3-1.2-26.5.5-30.7Z"/>
      <path class="cls-10" d="M873.2,634.8c1.3,0,2.3,0,3.4.7,1.6,3,1,27.5.5,31.9-1.6-.2-2.2-.1-3.4-1.1-1.2-6.3-.6-24.3-.5-31.5Z"/>
      <path class="cls-10" d="M883.9,820.8c1.3.5,1.9.7,2.7,1.9.7,5.4,1,25.4-.5,29.9-1.6-.2-2.3-.2-3.4-1.5-.8-5.2-1-26.5,1.2-30.4Z"/>
      <path class="cls-10" d="M911.3,681.2c1.3,0,2.1,0,3.2.7,1.5,2.6.8,27,.3,31.4-1.3,0-2,0-3.2-.6-1.6-2.5-.9-27.2-.4-31.5Z"/>
      <path class="cls-10" d="M902.8,634.7c1.4.4,2,.7,2.8,1.9.6,5.1.8,26.7-.7,30.8-.4,0-1.3-.2-1.7-.3-.9-.3-1.5-.7-1.7-1.7-.7-3.2-.5-24.7.1-28.3.2-.9.6-1.6,1.1-2.3Z"/>
      <path class="cls-10" d="M883.1,773.8c.9,0,2.5.3,3,1.2,1.6,2.5.9,27.8.2,30.9-.4,0-1.1,0-1.6-.2-.7-.2-1.4-.4-1.7-1.1-1.3-2.9-1.2-27.6,0-30.8Z"/>
      <path class="cls-10" d="M902.2,680.8c1.4.3,2.3.5,3.3,1.6.5,4.6,1.2,27.8-.7,30.7-1.5-.2-2.1,0-3.2-1.2-.7-5-1.1-27.4.6-31.1Z"/>
      <path class="cls-10" d="M901.9,820.7c.3,0,.6,0,.9.1,1.5.3,1.6.5,2.5,1.6.6,5,1.1,26.6-.5,30.3-.4,0-1.2-.1-1.6-.2-.6-.1-1.3-.4-1.6-.9-1.3-2.3-.9-27.2.3-30.9Z"/>
      <path class="cls-10" d="M893.3,634.7c.3.1.6.2.9.3,1,.5,1.7.8,2,1.9.8,3.1.7,25.1,0,28.6-.1.8-.5,1.4-.8,2-1.4-.4-2.3-.5-3.2-1.8-.6-5.9-.9-23.2,0-28.8.1-.9.6-1.5,1.1-2.3Z"/>
      <path class="cls-10" d="M912.3,726.2c.4.1,1.1.3,1.5.5,1,.6,1.2,1,1.3,2.1.4,3.5.3,27.8-.4,29.6-.2.5-.7.9-1.1,1.3-1.2-.4-1.9-.5-2.7-1.6-.6-4.8-.7-25.4.2-29.8.2-.9.7-1.5,1.2-2.2Z"/>
      <path class="cls-10" d="M883.6,726.9c1.4.5,1.9.6,2.9,1.8.8,5,.9,25.7-.2,30.7-1.3,0-2-.2-3.2-.8-.5-.6-.7-1-.8-1.8-.6-4.9-.6-23.2.1-27.9.1-.9.5-1.4,1.1-2Z"/>
      <path class="cls-10" d="M882.8,681.4c1.6,0,2.6-.2,3.9,1,1.2,7.2.6,23,.1,30.7-1.7,0-2.9.2-4.1-1-1-8.2-.6-22.3,0-30.7Z"/>
      <path class="cls-10" d="M892.2,681.1c.5,0,1.4,0,1.8.2.6.2,1.3.5,1.6,1.1,1.3,2.4,1,27.1.3,30.8-1.7-.1-2.6,0-3.9-1.2-1-5.2-.7-25.5.2-30.9Z"/>
      <path class="cls-10" d="M883.2,634.6c1.6.3,2.6.6,3.6,1.9.6,6,1,25.5-.3,30.8-.3,0-.5,0-.8,0-.8-.1-2.1-.3-2.6-1.1-1.5-2.6-.8-28.4.1-31.6Z"/>
      <path class="cls-10" d="M911.3,773.1c1.6.2,2.2.2,3.4,1.2.6,4.8,1,27.7-.5,31.5-1.2,0-1.9-.2-2.9-.8-1.6-3.6-1.5-27.5,0-31.9Z"/>
      <path class="cls-10" d="M912.8,634.4c1.1.4,1.7.7,2.5,1.5.6,4.5.7,25.9-.2,30.1-.2.9-.7,1.6-1.3,2.3-.3-.2-.7-.3-1-.5-1.1-.8-1.5-1.4-1.7-2.8-.9-4.9-.9-22.8.2-27.7.2-1.2.8-2,1.5-2.9Z"/>
      <path class="cls-10" d="M911.4,820.6c.2,0,.4,0,.6,0,.8.1,2.2.4,2.6,1.2,1.2,2.2,1.1,27.1,0,30.7-.5,0-1.4,0-1.9,0-.9-.2-1.4-.7-1.8-1.5-1.3-2.8-.6-27.5.5-30.4Z"/>
      <path class="cls-10" d="M902.4,726.7c1.2.3,1.9.5,2.9,1.3,1.1,2.7.9,28.2-.2,31.2-.2,0-.3,0-.5,0-1.6-.1-2.3,0-3.4-1.2-.6-5.3-1-27.4,1.2-31.3Z"/>
      <path class="cls-10" d="M901.8,772.8c.6,0,1.6,0,2.2.3.6.3,1.1.6,1.3,1.2,1.3,3.5,1.1,28.1-.1,31.2-.5,0-1.4,0-1.9,0-.6-.1-1.3-.3-1.6-.9-1.3-2.4-.8-28.8.2-31.9Z"/>
    </g>
  </g>
</svg>