<?xml version="1.0" encoding="UTF-8"?>
<svg id="Layer_1" xmlns="http://www.w3.org/2000/svg" viewBox="0 0 936.84 933.2">
  <defs>
    <style>
      .cls-1 {
        opacity: .9;
      }

      .cls-1, .cls-2 {
        fill: #fbfbfb;
      }

      .cls-3 {
        fill: #6f8cb1;
      }

      .cls-4 {
        fill: #e9e7df;
      }

      .cls-5 {
        fill: #e9d1d3;
      }

      .cls-6 {
        fill: #dfdedf;
      }

      .cls-7 {
        fill: #a4b9d3;
      }

      .cls-8 {
        fill: #eed5a9;
      }

      .cls-9 {
        fill: #99c9c3;
      }

      .cls-10 {
        fill: #010103;
      }

      .cls-11 {
        fill: #f6f4ef;
      }

      .cls-12 {
        fill: #fff;
        stroke: #000;
        stroke-miterlimit: 10;
      }

      .cls-13 {
        fill: #020c0a;
      }

      .cls-14 {
        fill: #ef8d7f;
      }

      .cls-15 {
        fill: #f3dcb3;
      }
    </style>
  </defs>
  <path class="cls-3" d="M82.64,928.37c-6.01-12.77-13.01-25-18.79-37.89-8.3-18.89-15.85-38.08-22.67-57.55-6.82-19.48-12.87-39.19-18.16-59.13-3.88-14.29-6.47-29.1-9.27-43.64-5-25.93-9.24-51.82-11.49-78.16-6.76-79.39.18-182.41,40.62-252.71,30.63-53.25,75.23-79.74,133.65-94.42,29.49-7.41,59.47-12.18,88.89-20.11,72.43-19.53,137.2-60.68,176.78-125.59,4.54-7.44,8.45-15.43,12.32-23.24,5.68-11.66,10.82-23.56,15.41-35.69,4.83-12.65,9.03-24.91,15.86-36.7,3.79-6.55,8.07-12.86,13.33-18.33,17.85-18.57,45.44-29.32,69.97-35.78,21.39-5.63,43.14-8.23,65.19-9.12,58.21-2.37,116.82,8.74,167.51,38.34,1.49.85,2.97,1.73,4.44,2.62,1.47.89,2.93,1.8,4.38,2.73,1.45.93,2.88,1.88,4.3,2.84,1.42.96,2.83,1.95,4.23,2.95,1.4,1,2.78,2.02,4.16,3.05,1.37,1.04,2.73,2.09,4.08,3.16,1.35,1.07,2.68,2.16,4,3.26,1.32,1.1,2.62,2.22,3.91,3.36,1.29,1.14,2.57,2.29,3.83,3.46,1.26,1.17,2.51,2.35,3.74,3.55,1.23,1.2,2.45,2.41,3.65,3.64,1.2,1.23,2.39,2.47,3.56,3.73,1.17,1.26,2.32,2.53,3.46,3.82,1.14,1.29,2.26,2.59,3.36,3.91,1.11,1.32,2.2,2.65,3.27,3.99,1.07,1.34,2.13,2.7,3.16,4.07,1.04,1.37,2.06,2.75,3.06,4.15s1.99,2.81,2.96,4.23c.97,1.42,1.92,2.85,2.85,4.3.93,1.45,1.84,2.9,2.74,4.37.89,1.47,1.77,2.95,2.63,4.44.86,1.49,1.7,2.99,2.52,4.5.82,1.51,1.62,3.03,2.4,4.56.78,1.53,1.54,3.07,2.29,4.62.74,1.55,1.47,3.11,2.17,4.68.7,1.57,1.39,3.15,2.05,4.73.66,1.59,1.31,3.18,1.93,4.78.62,1.6,1.23,3.21,1.81,4.83.58,1.62,1.15,3.24,1.69,4.87.54,1.63,1.06,3.27,1.57,4.91.5,1.64.98,3.3,1.44,4.95.46,1.66.9,3.32,1.32,4.99,11.46,43.89,7.56,89.03-3.59,132.57-2.8,10.94-6.33,21.61-9.49,32.43-4.75,16.23-8.16,33.54-16.85,48.25-12.2,20.64-21.04,26.48-43.53,32.33l.94-4.26c.15,0,.3,0,.45-.02,11.18-.65,23.15-9.36,30.3-17.49,14.09-16.03,18.34-36.82,24.21-56.71,12.16-41.18,23.77-82.35,20.63-125.85-3.91-54.05-27.62-107.03-69.16-142.6C773.81,14.94,695.07-1.11,619.35,4.92c-38.64,3.08-94.21,15.24-120.35,46.04-14.61,17.21-21.12,39.4-29.24,60.01-18.19,46.17-45.58,87.38-84.57,118.52-38.74,30.94-82.37,49.42-130.04,61.72-25.86,6.67-52.44,10.52-78.23,17.29-23.31,6.12-46.65,14.23-67.43,26.63-43.5,25.96-70.05,69.44-85.24,116.67C5.28,510.77.07,583.19,5.47,644.7c.76,9.33,1.68,18.64,2.79,27.93,1.1,9.29,2.38,18.56,3.83,27.81,1.45,9.25,3.07,18.46,4.86,27.65,1.79,9.19,3.76,18.34,5.89,27.45,2.13,9.11,4.44,18.18,6.91,27.21,2.47,9.03,5.11,18,7.92,26.93,2.81,8.93,5.78,17.8,8.92,26.62,3.14,8.82,6.44,17.57,9.9,26.27,9.01,22.72,18.85,45.48,31.7,66.3-11.12.04-22.4.43-33.49-.16,8.88-1.27,18.96-.37,27.94-.34Z"/>
  <path class="cls-10" d="M171.54,17.14c33.2-1.78,63.02,5.45,89.47,26.42,26.28,20.84,43.14,49.67,47,83.12,3.64,31.55-6.12,65.86-25.91,90.76-23.53,29.6-55.83,47.23-93.4,51.42-32.8,1.01-60.42-5.8-86.83-26.24-.84-.65-1.67-1.31-2.49-1.98-.82-.67-1.64-1.35-2.44-2.04-.81-.69-1.6-1.39-2.39-2.1-.79-.71-1.57-1.43-2.34-2.16-.77-.73-1.53-1.47-2.28-2.22-.75-.75-1.5-1.51-2.23-2.27-.73-.77-1.46-1.54-2.17-2.33-.71-.79-1.42-1.58-2.11-2.38-.7-.8-1.38-1.61-2.06-2.43s-1.34-1.65-1.99-2.48c-.65-.84-1.3-1.68-1.93-2.53-.63-.85-1.26-1.71-1.87-2.58-.61-.87-1.21-1.74-1.81-2.62-.59-.88-1.17-1.77-1.74-2.67-.57-.9-1.13-1.8-1.67-2.71-.55-.91-1.08-1.83-1.61-2.75-.52-.92-1.04-1.85-1.54-2.79-.5-.94-.99-1.88-1.47-2.82-.48-.95-.94-1.9-1.4-2.86-.45-.96-.9-1.92-1.33-2.89-.43-.97-.85-1.95-1.26-2.93-.41-.98-.8-1.97-1.19-2.96-.38-.99-.75-1.98-1.11-2.98-.36-1-.7-2-1.04-3.01-.33-1.01-.66-2.02-.96-3.04-.31-1.02-.6-2.03-.89-3.06-.28-1.02-.55-2.05-.81-3.08s-.5-2.06-.74-3.1c-.23-1.04-.45-2.07-.66-3.11-.21-1.04-.4-2.08-.58-3.13-.18-1.05-.35-2.09-.51-3.14-.16-1.05-.3-2.1-.43-3.15-.12-.98-.23-1.97-.32-2.96-.1-.99-.18-1.97-.25-2.96-.07-.99-.13-1.98-.18-2.97-.05-.99-.08-1.98-.1-2.97-.02-.99-.03-1.98-.03-2.97s.02-1.98.04-2.97c.03-.99.06-1.98.11-2.97.05-.99.11-1.98.19-2.97.07-.99.16-1.98.26-2.96.1-.99.21-1.97.33-2.96.12-.98.26-1.97.4-2.95.15-.98.31-1.96.48-2.94.17-.98.35-1.95.55-2.92s.4-1.94.62-2.91c.22-.97.45-1.93.69-2.89.24-.96.5-1.92.76-2.88.27-.96.54-1.91.83-2.86.29-.95.59-1.89.9-2.83.31-.94.64-1.88.97-2.81.33-.93.68-1.86,1.04-2.79.36-.92.73-1.85,1.11-2.76.38-.92.77-1.83,1.17-2.73.4-.91.82-1.81,1.24-2.7.42-.9.86-1.79,1.31-2.67.45-.89.9-1.77,1.37-2.64.47-.87.95-1.74,1.44-2.61.49-.86.99-1.72,1.5-2.57.51-.85,1.03-1.69,1.56-2.53.53-.84,1.07-1.67,1.62-2.49.55-.82,1.11-1.64,1.68-2.45.57-.81,1.15-1.61,1.74-2.41.59-.8,1.19-1.58,1.8-2.37,23.94-30.46,55.94-45.36,93.89-49.8Z"/>
  <path class="cls-2" d="M183.21,20.68c30.21.47,60.42,11.42,82.66,32.12,23.48,21.85,37.65,50.77,38.6,82.91.98,33.41-10.68,64.75-33.79,89.03-.74.78-1.49,1.56-2.25,2.32-.76.76-1.53,1.52-2.31,2.27-.78.75-1.57,1.48-2.36,2.21-.8.73-1.6,1.44-2.42,2.15-.81.71-1.64,1.4-2.47,2.09-.83.69-1.67,1.36-2.52,2.02-.85.66-1.71,1.32-2.57,1.96-.87.64-1.74,1.28-2.62,1.9-.88.62-1.77,1.23-2.67,1.83-.9.6-1.8,1.19-2.71,1.76-.91.58-1.83,1.14-2.75,1.7-.92.55-1.86,1.1-2.8,1.62s-1.88,1.05-2.83,1.55c-.95.51-1.91,1-2.87,1.48-.96.48-1.93.95-2.91,1.41-.98.46-1.96.9-2.94,1.34-.99.43-1.98.86-2.98,1.26-1,.41-2,.81-3.01,1.19-1.01.38-2.02.76-3.04,1.11-1.02.36-2.04.7-3.06,1.04-1.02.33-2.05.65-3.09.96-1.03.31-2.07.6-3.11.89-1.04.28-2.08.55-3.13.81-1.05.26-2.1.5-3.15.73-1.05.23-2.11.45-3.17.65-1.06.2-2.12.39-3.18.57-1.06.18-2.13.34-3.2.49-1.07.15-2.14.29-3.21.41-1.07.12-2.14.23-3.22.33-1.07.1-2.15.18-3.22.25-1.08.07-2.15.13-3.23.17-1.08.04-2.15.07-3.23.09-30.65-.82-59.34-11.48-81.92-32.5-24.49-22.79-39.31-53.71-40.5-87.29-1.13-32.19,11.18-62.57,33.17-85.94,24.79-26.35,58.52-37.81,94-38.89Z"/>
  <path class="cls-10" d="M170.01,30.13c.31-.04.61-.09.92-.12,21.52-2.08,48.41,3,67.43,13.27,6.3,3.41,12.01,7.91,17.45,12.54,23.52,20.04,37.31,44.88,39.77,75.79.07.92.13,1.84.17,2.77.05.92.08,1.85.11,2.77.02.92.04,1.85.04,2.77,0,.92,0,1.85-.03,2.77-.02.92-.05,1.85-.1,2.77-.04.92-.1,1.85-.16,2.77-.07.92-.14,1.84-.23,2.76-.09.92-.19,1.84-.3,2.76-.11.92-.23,1.83-.36,2.75-.13.92-.28,1.83-.43,2.74-.16.91-.32,1.82-.5,2.73-.18.91-.37,1.81-.56,2.71-.2.9-.41,1.8-.63,2.7-.22.9-.45,1.79-.7,2.68-.24.89-.5,1.78-.76,2.67-.26.89-.54,1.77-.83,2.65-.29.88-.58,1.76-.89,2.63-.31.87-.63,1.74-.95,2.61-.33.86-.67,1.72-1.02,2.58-.35.86-.71,1.71-1.08,2.55-.37.85-.75,1.69-1.14,2.53-.39.84-.79,1.67-1.2,2.5-.41.83-.83,1.65-1.26,2.47-.43.82-.87,1.63-1.32,2.44-.45.81-.91,1.61-1.38,2.41-.47.8-.95,1.59-1.44,2.37-.49.78-.99,1.56-1.5,2.34-.51.77-1.03,1.54-1.55,2.3-.53.76-1.06,1.51-1.61,2.26-.55.75-1.1,1.49-1.66,2.22-.56.73-1.14,1.46-1.72,2.18-.58.72-1.17,1.43-1.77,2.14-18.61,21.68-47.8,39.26-76.65,41.48-.14.02-.27.04-.41.05-30.89,3.4-60.23-5.36-84.48-24.77-22.88-18.31-38.32-46.94-41.49-76.02-3.22-29.6,4.17-58.2,22.99-81.57,20.73-25.75,48.78-39.36,81.23-42.95Z"/>
  <path class="cls-2" d="M139.17,167.56c.96.05,2,.09,2.94.27,1.43.29,2.41,1.05,3.14,2.29.73,1.24.81,2.28.37,3.65-.63,1.95-2.18,2.88-3.96,3.63-2.14-.36-3.79-.63-5.16-2.5-.78-1.06-1.16-2.24-.83-3.56.48-1.93,1.88-2.85,3.49-3.79Z"/>
  <path class="cls-7" d="M233.75,79.76c1.88.71,3.67,1.55,4.81,3.3.77,1.19.96,2.41.64,3.8-.46,2-2.43,3.2-4.05,4.16-.73.01-1.59.07-2.31-.07-1.18-.24-2.54-1.02-3.2-2.08-.83-1.34-.9-2.71-.46-4.21.73-2.54,2.41-3.63,4.58-4.91Z"/>
  <path class="cls-2" d="M101.49,174.93c1.11-.04,2.27-.12,3.37,0,1.44.16,2.95,1.33,3.72,2.53.84,1.31,1.01,2.67.57,4.15-.68,2.28-2.15,3.03-4.1,4.12-1.92.06-3.97-.49-5.38-1.89-1.1-1.09-1.55-2.65-1.4-4.18.23-2.24,1.6-3.39,3.22-4.74Z"/>
  <path class="cls-2" d="M201.65,121.4c.86-.02,1.87-.1,2.71.06,1.54.29,2.72,1.39,3.45,2.74.94,1.76.99,3.57.34,5.43-.65,1.87-1.62,2.58-3.33,3.47-.64-.03-1.08-.03-1.74-.13-1.82-.27-3.39-1.07-4.44-2.62-.81-1.2-1.03-2.58-.76-3.99.47-2.45,1.84-3.54,3.78-4.95Z"/>
  <path class="cls-2" d="M225.51,48.77c.39-.02.78-.04,1.17-.05,1.97-.04,3.59.39,4.95,1.97,1.18,1.38,1.53,3.09,1.18,4.83-.46,2.26-1.62,3.43-3.45,4.71-.48.07-.97.15-1.45.19-1.48.12-3.19-.19-4.26-1.31-.99-1.04-1.5-2.23-1.51-3.66-.01-3.06,1.25-4.65,3.38-6.68Z"/>
  <path class="cls-2" d="M185.64,204.41c.81.19,1.65.38,2.42.69,1.63.67,2.96,2.41,3.46,4.06.05.18.1.37.14.56.04.19.06.38.08.57.02.19.02.38.02.57,0,.19-.01.38-.04.57-.02.19-.05.38-.09.57-.04.19-.09.37-.15.55-.06.18-.13.36-.21.54-.08.18-.16.35-.26.51-1,1.81-2.34,2.31-4.24,2.91-.91-.19-2.06-.36-2.89-.76-1.39-.68-2.54-2.35-3.04-3.8-.06-.18-.12-.37-.16-.55-.05-.19-.08-.38-.11-.57-.03-.19-.04-.38-.05-.58,0-.19,0-.39.01-.58.01-.19.04-.38.07-.57.03-.19.08-.38.13-.56.05-.19.11-.37.18-.55.07-.18.15-.35.24-.53.99-1.92,2.54-2.46,4.48-3.06Z"/>
  <path class="cls-2" d="M146.46,213.46c.88.07,1.77.15,2.63.34,1.87.42,3.67,1.72,4.67,3.35.76,1.23,1,2.6.61,4.01-.6,2.18-2.08,3.02-3.9,4.13-.86.09-1.75.18-2.61.1-1.85-.19-3.56-1.32-4.56-2.87-.89-1.38-1.17-2.98-.79-4.57.57-2.35,1.97-3.34,3.95-4.47Z"/>
  <path class="cls-2" d="M175.63,155.96c1-.16,2.21-.29,3.21-.11,1.32.23,2.64,1.17,3.39,2.26.99,1.43,1.26,3.19.88,4.87-.55,2.42-1.78,3.76-3.81,5.07-.67.01-1.34.02-2.01-.02-1.81-.1-3.3-.89-4.47-2.27-1.04-1.23-1.39-2.8-1.17-4.36.38-2.67,1.91-3.91,3.97-5.45Z"/>
  <path class="cls-2" d="M93.22,131.9c.64-.01,1.27,0,1.9.1,2.12.32,4.07,1.29,5.24,3.15.1.16.2.33.29.51.09.17.16.35.23.53.07.18.13.37.18.55.05.19.09.38.12.57.03.19.05.39.06.58,0,.19,0,.39,0,.58,0,.19-.03.39-.06.58-.03.19-.07.38-.12.57-.63,2.41-2.35,3.59-4.38,4.82-.35-.03-.71-.06-1.07-.1-2.48-.31-4.41-.91-5.91-3.04-.89-1.27-1.16-2.82-.84-4.33.54-2.56,2.26-3.76,4.36-5.08Z"/>
  <path class="cls-2" d="M191.66,55.36c.61.02,1.21.05,1.82.11,2.08.22,3.8,1.06,5.06,2.77.12.17.24.34.34.52.11.18.2.36.29.55.09.19.16.38.23.58.06.2.12.4.16.6s.08.41.1.61c.02.21.03.41.03.62s-.01.41-.03.62c-.02.21-.06.41-.1.61-.55,2.62-2.27,3.81-4.43,5.14-.5-.02-1-.04-1.51-.09-1.98-.17-4.14-.92-5.34-2.62-.97-1.38-1.33-2.82-1.01-4.47.53-2.69,2.21-4.1,4.38-5.56Z"/>
  <path class="cls-2" d="M279.03,115.4c.44-.04.89-.06,1.33-.07,2.19-.02,4.24.4,5.81,2.04,1.11,1.16,1.58,2.64,1.5,4.24-.14,2.8-1.95,4.68-3.97,6.36-1.01.06-1.98.1-2.99-.03-1.95-.27-3.6-1.31-4.73-2.93-.95-1.35-1.27-2.99-.92-4.61.55-2.52,1.91-3.63,3.98-5Z"/>
  <path class="cls-1" d="M288.63,162.91l.43.15c1.2,3.26-4.65,16.38-6.02,19.92-2.79.1-7.74.7-10.11-.74-.99-3.76-2.12-7.37-3.5-11.01,6.18-3.17,12.72-5.83,19.2-8.32Z"/>
  <path class="cls-1" d="M272.75,186.82l8.77.19c-7.3,16.12-19.36,29.17-32.75,40.42l-5.89,4.73c.74-7.37,1.68-14.72,2.53-22.08,5.67-.15,11.53-1.28,16.37-4.38,6.91-4.44,9.43-11.22,10.98-18.89Z"/>
  <path class="cls-1" d="M186.85,165.91c10.17,5.32,24.7,10.13,35.69,14.22-.76,4.75.15,9.15,1.25,13.75-3.93,1.63-7.84,3.3-11.72,5.03-5.5,2.65-11.04,5.19-16.63,7.64-2.47-2.63-5-5.37-8.39-6.79-2.32-9.22-3.69-18.67-6.12-27.86,2.6-1.73,4.35-3.25,5.91-5.99Z"/>
  <path class="cls-1" d="M168.16,168.01l.57.03c2.57,2.1,4.83,3.73,8.09,4.56,2.57,9.18,4.24,18.73,6.1,28.08-4.89,3.04-5.18,4.68-6.73,9.87-2.18,2.59-13.28,4.85-16.86,5.86h-1.15c-2.6-3.55-4.99-5.94-9.27-7.19-1.34-9.13-3.03-18.21-4.62-27.3,2.91-2.72,4.29-4.64,5.42-8.52l18.45-5.39Z"/>
  <path class="cls-2" d="M243.01,164.02c4.79-.43,9.35-.1,13.78,1.94,5.06,2.32,8.71,6.64,10.58,11.85.12.33.24.67.34,1.01.11.34.2.68.29,1.03.09.34.17.69.24,1.04.07.35.13.7.19,1.05.05.35.1.71.14,1.06.04.35.06.71.08,1.07.02.36.03.71.03,1.07,0,.36,0,.71-.02,1.07-.02.36-.04.71-.08,1.07-.03.35-.08.71-.13,1.06-.05.35-.11.7-.18,1.05-.07.35-.15.7-.24,1.04-.09.35-.18.69-.29,1.03-.1.34-.22.68-.34,1.01-.12.34-.25.67-.39,1-.14.33-.28.65-.44.98-3.05,6.29-8.33,9.17-14.66,11.29-5.1.61-9.84.51-14.47-2.03-.32-.17-.63-.36-.94-.55-.31-.19-.61-.39-.91-.59-.3-.21-.59-.42-.88-.64-.29-.22-.57-.45-.85-.68-.28-.23-.55-.47-.81-.72-.26-.25-.52-.5-.77-.76-.25-.26-.5-.52-.74-.8-.24-.27-.47-.55-.7-.83-.23-.28-.44-.57-.65-.86-.21-.29-.42-.59-.61-.9-.2-.3-.38-.61-.57-.92-.18-.31-.36-.63-.52-.95-.17-.32-.32-.65-.47-.98-.15-.33-.29-.66-.42-1-.13-.34-.26-.68-.38-1.02-.12-.34-.22-.69-.32-1.04-1.53-5.54-.49-11.56,2.35-16.51,3.2-5.57,7.76-8.22,13.73-9.95Z"/>
  <path class="cls-2" d="M147.41,88.9c2.45.11,4.5.82,6.79,1.63,9.32,3.3,11.2,9.08,18.34,14.33l.69.5c-.29,5.37-1.21,11.53-3.49,16.45-3.75,8.09-10.34,10.28-18.04,13.17-1.34.44-2.04.87-3.47.4-1.74-.57-3.33-1.95-4.99-2.76-5.75-2.82-11.68-3.75-14.55-10.21-2.33-5.24-2.08-13.86.07-19.14,3.05-7.49,11.71-11.36,18.65-14.37Z"/>
  <path class="cls-1" d="M267.36,123.64l3.79.03c.92,2.2,1.92,4.22,3.15,6.26,2.51,1.15,5.61,2.41,8.42,2.18,4.11-.34,6.44-3.48,8.83-6.45.32,10.84.18,20.89-1.11,31.66-5.93,2.98-11.98,5.69-18.16,8.13l-6.27,2.23c-6.13-5.06-11.61-6.82-19.35-7.86-1.78-11.23-2.76-22.59-4.65-33.81,8.41-1.03,16.9-1.65,25.34-2.38Z"/>
  <path class="cls-1" d="M217.4,60.07h1.13c3,2.54,5.94,3.75,9.75,4.45,1.29,4.04,1.78,8.33,2.33,12.52-2.51,1.91-4.58,3.59-5.49,6.72-.64,2.18-.47,4.35.67,6.33,1.85,3.22,4.49,4.17,7.88,5.13,1.42,8.92,2.46,17.93,3.7,26.88l-15.19,1.51c-3.14.47-6.38.68-9.54,1.02-.39-.87-.78-1.75-1.28-2.56-1.65-2.69-4.05-3.38-6.96-4.09-1.65-7.23-2.37-14.68-3.41-22.01-1.23-8.09-2.55-16.17-3.96-24.23.33-.19.67-.39.99-.6,3.44-2.17,4.64-4.53,5.49-8.42,4.51-1.21,9.28-1.83,13.88-2.66Z"/>
  <path class="cls-1" d="M225.39,197.42c3.58,1.51,6.22,9.07,16.45,12.27-1.36,8.26-1.45,17.07-3.42,25.17-10.9,6.26-21.62,10.86-33.6,14.68-2.8.83-5.53,1.29-8.42,1.71-2.81-10.04-3.92-20.55-6.51-30.67,3.48-2.66,3.87-3.38,5.39-7.36,2.11-5.54,23.97-13.2,30.11-15.8Z"/>
  <path class="cls-1" d="M171.17,34.14c19.32-2.22,45.56,2.41,62.8,11.5,20.67,10.9,38.61,29.52,48.53,50.69,2.7,5.77,4.6,11.8,6.44,17.88-.95-.73-1.93-1.5-3.02-2-2.5-1.16-5.67-1.49-8.27-.47-3.49,1.37-5.16,4.26-6.61,7.52-9.88.85-19.76,1.77-29.62,2.77-1.32-9.15-2.77-18.27-3.77-27.46.11-.09.23-.19.35-.28,1.79-1.42,2.95-2.84,4.25-4.71.71-2.58,1.35-5.38.18-7.92-1.47-3.18-4.91-4.51-7.96-5.69-.93-4.03-1.32-8.24-1.87-12.34.1-.12.19-.24.3-.35,1.57-1.69,2.71-3.51,3.52-5.68,1-2.67.61-5.99-.7-8.49-1.08-2.08-2.9-3.55-5.17-4.15-.31-.08-.62-.15-.94-.2-.32-.05-.64-.09-.96-.1-.32-.02-.64-.02-.96,0-.32.01-.64.05-.96.09-.32.05-.63.11-.94.19-.31.08-.62.18-.92.29s-.6.24-.89.38c-.29.14-.57.3-.84.47-3.75,2.34-4.76,5.81-5.7,9.83l-13.91,3.04c-1.84-3.29-4.15-6.1-7.9-7.24-.3-.09-.6-.17-.9-.23-.3-.06-.61-.1-.92-.13-.31-.03-.62-.04-.93-.03-.31,0-.62.03-.93.07-.31.04-.61.09-.91.17-.3.07-.6.16-.89.26-.29.1-.58.22-.86.36-.28.13-.55.28-.81.45-3.35,2.07-4.65,5.3-5.42,9-9.34,7.76-17.58,17.44-26.36,25.89-3.92-1.09-7.32-1.58-11.36-1.59-1.41-15.08-4.17-30.01-5.38-45.12,9.86-3.81,20.73-5.69,31.21-6.64Z"/>
  <path class="cls-1" d="M135.42,42.46c1.29,3.25,1.53,7.81,2.07,11.32,1.73,11.14,3.14,22.32,4.24,33.54-6.29,2.78-11.49,7.68-16.53,12.23-1.02,8.11-2.51,15.94-.45,24.03-6.76,3.25-13.5,6.64-20.47,9.41-1.96-2.23-4.03-4.14-6.97-4.94-2.67-.72-5.33-.26-7.65,1.25-.32.21-.62.44-.92.68-.3.24-.58.5-.85.77-.27.27-.52.55-.76.85-.24.3-.46.6-.67.92-.21.32-.4.65-.58.99-.18.34-.33.69-.47,1.04-.14.35-.26.71-.37,1.08-.1.37-.19.74-.25,1.11-.43,2.57.13,5.36,1.71,7.46,1.75,2.33,4.47,3.47,7.28,3.88,2.77.4,5.4.1,7.63-1.71,2.91-2.36,3.75-5.53,4.14-9.11,6.77-4,14.35-6.94,21.61-9.94.85,1.13,1.73,2.32,2.87,3.17,3.36,2.51,14.89,7.99,19.22,9.96,6.54-2.23,14.54-5.2,19.47-10.17,6.39-6.43,8.41-17.92,8.49-26.64-5.85-4.48-9.98-11.38-16.44-14.77,8.02-7.21,14.97-15.49,22.93-22.76,2.86,3.54,4.9,5.02,9.39,6.01,1.04,7.31,2.47,14.58,3.61,21.87,1.22,7.81,2.15,15.67,3.52,23.46-2.54,1.71-4.71,3.24-5.92,6.17-1.01,2.42-.93,5.05.15,7.43.16.34.34.68.53,1,.19.33.4.64.63.94.23.3.47.59.73.87.26.28.53.54.81.79.29.25.58.48.89.7.31.22.63.42.96.6.33.18.67.35,1.02.5.35.15.7.28,1.07.39.27.09.55.16.83.21.28.06.56.1.84.13.28.03.57.04.85.04.28,0,.57-.02.85-.05.28-.03.56-.07.84-.14.28-.06.55-.13.82-.22.27-.09.54-.19.8-.3.26-.12.51-.24.76-.39,3.06-1.76,4.18-4.58,5.14-7.81,8.35-.78,16.71-1.46,25.07-2.06,2.3,10.93,3.83,22.5,4.78,33.63-1.06.24-2.1.53-3.13.87-7.8,2.55-12.23,8.46-15.78,15.42-11.94-4.51-25-8.36-36.14-14.55-.49-2.73-1.13-5.14-3.18-7.15-2.01-1.98-4.64-3.14-7.48-3-.32.02-.63.05-.94.1-.31.05-.62.11-.93.19-.31.08-.61.18-.9.29-.3.11-.59.24-.87.38-.28.14-.56.3-.83.47-.27.17-.53.35-.77.55-.25.2-.49.4-.71.62-.23.22-.44.45-.64.7-2.37,2.84-2.76,5.62-2.43,9.17l-6.69,1.76c-3.78,1.34-7.63,2.4-11.49,3.48-1.47-2.19-3.19-4.19-5.66-5.27-1.89-.82-3.91-.9-5.83-.11-4.23,1.74-5.89,5.7-7.57,9.6-5.42,2.19-11.4,3.34-17.09,4.59-1.17-2.05-2.55-4.36-4.53-5.73-2.21-1.54-6.07-1.69-8.61-1.09-1.98.47-3.59,1.62-4.62,3.38-1.41,2.41-1.63,5.55-.77,8.18,1,3.08,3.55,5.91,6.53,7.18,1.76.75,3.58.83,5.34-.02,2.97-1.43,5.56-4.9,6.69-7.91,6.41-1.29,12.63-2.8,18.8-4.97,2.3,2.45,4.63,3.26,7.74,4.3,2.43,8.9,3.67,18.47,4.86,27.62-1.88,1.65-3.9,3.12-5.89,4.63-.76,3.21-1.32,6.01-.17,9.22,1.03,2.87,3.06,5.21,5.92,6.35.29.12.59.22.9.31.31.09.61.16.93.22.31.06.63.1.95.13.32.03.63.04.95.03.32,0,.64-.03.95-.06.32-.04.63-.09.94-.16.31-.07.62-.15.92-.25.3-.1.6-.21.89-.34,3.79-1.68,5.54-4.93,7.03-8.6,6.18-1.47,12.25-3.32,18.34-5.14,2.29,3.16,4.58,4.26,8.07,5.7,2.94,9.98,4.65,20.48,6.66,30.69-17.15,1.23-34.29.24-50.52-5.91-.87-.32-1.73-.66-2.59-1-.86-.34-1.71-.7-2.57-1.07-.85-.37-1.7-.74-2.54-1.13-.84-.39-1.68-.78-2.51-1.19-.83-.41-1.66-.83-2.48-1.25-.82-.43-1.64-.87-2.45-1.31-.81-.45-1.61-.91-2.41-1.37-.8-.47-1.59-.95-2.38-1.43-.79-.49-1.57-.99-2.34-1.49-.77-.51-1.54-1.02-2.3-1.55s-1.52-1.06-2.27-1.61c-.75-.54-1.49-1.1-2.22-1.66-.74-.56-1.46-1.14-2.18-1.72-.72-.58-1.43-1.17-2.14-1.77-.71-.6-1.41-1.21-2.1-1.82-.69-.62-1.37-1.24-2.05-1.87-.68-.63-1.34-1.27-2-1.92-.66-.65-1.31-1.31-1.96-1.97-.64-.67-1.28-1.34-1.9-2.02-.63-.68-1.24-1.37-1.85-2.07-.61-.7-1.21-1.4-1.8-2.11-.59-.71-1.18-1.43-1.75-2.16-.57-.73-1.14-1.46-1.7-2.2-.56-.74-1.1-1.49-1.64-2.24-.54-.75-1.07-1.51-1.58-2.28-.52-.77-1.03-1.54-1.53-2.32-.5-.78-.99-1.57-1.47-2.36-.48-.79-.95-1.59-1.41-2.39-.46-.8-.91-1.61-1.35-2.43-.44-.81-.87-1.63-1.29-2.46-.42-.83-.83-1.66-1.23-2.49-.4-.84-.79-1.68-1.17-2.52-11.41-25.39-13.44-56.17-3.33-82.3,10.96-28.34,32.41-49.59,60.02-61.79Z"/>
  <path class="cls-10" d="M88.19,928.87c-12.85-20.82-22.7-43.58-31.7-66.3-3.46-8.69-6.77-17.45-9.9-26.27-3.14-8.82-6.11-17.69-8.92-26.62-2.81-8.93-5.45-17.91-7.92-26.93-2.47-9.03-4.78-18.1-6.91-27.21-2.13-9.11-4.1-18.26-5.89-27.45-1.79-9.19-3.41-18.4-4.86-27.65-1.45-9.25-2.72-18.52-3.83-27.81-1.1-9.29-2.03-18.61-2.79-27.93-5.4-61.51-.19-133.93,18.76-192.89,15.19-47.23,41.74-90.71,85.24-116.67,20.78-12.4,44.12-20.51,67.43-26.63,25.79-6.77,52.38-10.62,78.23-17.29,47.68-12.3,91.3-30.78,130.04-61.72,38.99-31.14,66.39-72.35,84.57-118.52,8.12-20.61,14.63-42.8,29.24-60.01,26.14-30.8,81.71-42.96,120.35-46.04,75.73-6.03,154.47,10.01,213.33,60.43,41.53,35.57,65.25,88.55,69.16,142.6,3.15,43.5-8.46,84.68-20.63,125.85-5.87,19.89-10.13,40.68-24.21,56.71-7.14,8.13-19.12,16.85-30.3,17.49-.15,0-.3.01-.45.02l-.94,4.26c-1.68,9.08-3.85,18.06-5.68,27.11-4.14,21.09-8.38,42.17-12.74,63.22-4.52,22.06-8.05,45.27-15.06,66.68-37.85-.14-75.75.43-113.59-.15,7.45,16.52,11.07,31.14,10.33,49.36,4.77-.08,10.47-.9,15.1-.02,3.05,3.16,1.96,23.31,1.97,28.6-14.73.93-29.92.23-44.71.22l-79.52.03c-12.39-.02-24.67.94-37.05,1.04l-117.11.36c-31.95.2-63.92-.73-95.87-.02.74,1.12,1.52,2.22,2.33,3.29.81,1.07,1.65,2.12,2.52,3.15.87,1.02,1.78,2.02,2.71,2.99.93.97,1.89,1.91,2.88,2.82.99.91,2.01,1.79,3.05,2.65,1.04.85,2.11,1.67,3.2,2.46,1.09.79,2.21,1.54,3.34,2.26,1.14.72,2.29,1.4,3.47,2.05,7.44-.5,15.03-.25,22.49-.27l38.76-.08,118.88-.09,397.31.94c.06-8.1.45-16.35.05-24.44l-177.07.16c-6.91-.02-41.16.74-45.05-.35-.58-1.13-.54-1.47-.5-2.76l.51-.83c6.77-1.34,16.08-.31,23.17-.29,18.11.06,36.41.46,54.5-.28l-3.07-3.61c9.21-22.97,15.33-47.64,22.47-71.35l32.29-104.06,9.53-31.24c1.46-4.83,2.58-9.91,4.54-14.57,6.01,1.62,31.9,8.73,35.71,11.84-2.26,9.04-5.67,17.94-8.41,26.86l-25.49,80.35-22.82,73.89c-3.3,10.55-5.97,21.5-10.01,31.79,2.8.03,6.98.59,9.59-.27.24-1.65-1.67-2.22-1.35-4.12.84-4.98,3.03-10.26,4.57-15.09,2.97-9.2,5.84-18.44,8.6-27.71,11.68-39.13,23.62-78.19,35.8-117.16,4.04-13.16,7.47-26.44,11.29-39.66,1.75-6.08,3.25-12.52,5.71-18.35,12.19,4.07,25.34,7.16,37.11,12.19l-39.47,126.83-15.02,48.75c-3.5,11.52-6.66,23.18-10.7,34.52l42.9.05c7.75,0,16.36-.78,23.97.59,1.68,1.95,1.07,26.44.84,30.84-.04.81-.05.58-.5,1.44-5.78,1.82-21.58.46-28.57.52-.52,84.48-.43,168.95.24,253.42,6.17-.07,16.61-1.48,22.19,1.37l-.03,1.17c-2.07,1.05-4.22,1.36-6.51,1.5-8.2.51-16.72.02-24.95,0l-50.45-.03-152.96-.03H216.43s-117.78.1-117.78.1c-7.23,0-38.12.88-42.94-.27-.51-.12-.61-.21-1.01-.43-.57-1.28-.28-2.16,0-3.46,11.1.59,22.38.2,33.49.16Z"/>
  <path class="cls-3" d="M629.48,516.3c1.36,1.16,2.71,2.67,3.23,4.4-.39,1.79-.95,1.83-2.41,2.86-.85-.15-1.56-.47-2.22-1.05-.86-.76-1.34-1.65-1.2-2.82.19-1.65,1.46-2.38,2.61-3.39Z"/>
  <path class="cls-2" d="M649.51,600.85c1.43.05,2.41.06,3.68.82.87,1.08,1.32,1.76,1.27,3.2-.07,1.93-.91,3.09-2.24,4.37-1.15-.16-2.21-.44-3.19-1.1-.94-.63-1.62-2.03-1.56-3.16.09-1.77.95-2.82,2.04-4.13Z"/>
  <path class="cls-3" d="M596.43,561.35c1.47,1.22,1.87,3.44,2.44,5.21-5.26,2.78-11.02,4.99-16.46,7.44-.91-.13-1.77-.67-2.41-1.3l.13-1.07c2.29-3.61,12.37-7.92,16.3-10.29Z"/>
  <path class="cls-2" d="M400.24,579.67c2.34,1.07,4.55,1.75,5.56,4.32,1.66,4.22-2.57,10.66-4.38,14.37-.97,1.03-2.14,2.38-3.63,2.47l.17-.66-.36.27c.03-6.22,1.04-14.8,2.63-20.77Z"/>
  <path class="cls-5" d="M850.18,443.22c7.85.87,19.95,5.68,28.13,7.96l-1.65,5.11c-3.62-.19-22.85-7.14-27.29-8.82-.41-1.47.32-2.86.81-4.25Z"/>
  <path class="cls-6" d="M844.4,462.56c9.38,2.76,18.73,5.65,28.03,8.68l-1.82,5.26c-8.91-3.45-18.77-5.59-27.91-8.53l1.7-5.41Z"/>
  <path class="cls-2" d="M472.82,612.23c2.97.5,5.83,1.11,8.73,1.91-1.1,5.84-2.29,11.67-3.58,17.47h-9.75c2.18-6.27,3.33-12.89,4.61-19.38Z"/>
  <path class="cls-3" d="M559.05,632.1c-18.12-.09-36.33,1.24-54.45.32,1.53-.45,3.13-.48,4.69-.84,3.45-.8,7.06-2.39,10.57-2.75,11.23-1.15,22.7.38,33.94-.47l.6-.05c1.56,1.22,3.24,2.4,4.66,3.79Z"/>
  <path class="cls-5" d="M892.06,449.38c9.32,3.6,19.23,6.26,28.77,9.26l-1.84,5.52c-9.42-3-18.91-5.81-28.32-8.88l1.38-5.9Z"/>
  <path class="cls-5" d="M886.42,470.2c9.19,3.2,18.74,5.79,28.05,8.65-.56,1.75-1.09,3.39-1.26,5.23-4.91.81-22.87-6.41-28.41-8.65.57-1.73,1.09-3.48,1.62-5.22Z"/>
  <path class="cls-6" d="M889.41,459.73c7.97,3.8,19.73,6.15,28.41,8.62l-1.95,6.35c-9.38-2.78-18.93-5.45-28.05-8.99.6-1.97,1.08-3.98,1.59-5.98Z"/>
  <path class="cls-6" d="M847.58,451.58c8.75,4.07,18.67,6.33,27.97,8.8l-1.91,6.35c-9.4-2.32-18.55-6.22-28.01-8.09l1.95-7.07Z"/>
  <path class="cls-2" d="M622.92,523.27c4.91,4.07,8.47,9.69,11.86,15.02-5.17.15-10.37.11-15.54.16-4.09,0-8.18.26-12.27.46,5.58-4.92,10.73-10.36,15.95-15.65Z"/>
  <path class="cls-3" d="M645.51,454.81c7.91,6.72,15.74,15.4,22.33,23.41-1.55,1.74-3.18,3.42-4.77,5.13-4.07-2.81-19.98-18.49-22.35-22.57,1.39-2.15,3.12-4.03,4.79-5.97Z"/>
  <path class="cls-3" d="M635.58,553.55c1.78.1,3.79.31,5.42,1.05,3.92,1.78,5.17,6.07,6.43,9.82-.33.68-.67,1.35-1.03,2.01-1.73,3.14-3.76,4.12-7.11,5.13-2.12,0-4.25.08-6.25-.74-2.34-.96-4.36-2.95-5.21-5.34-.09-.27-.18-.53-.24-.81-.07-.27-.12-.55-.16-.83-.04-.28-.06-.56-.07-.84,0-.28,0-.56.02-.84.02-.28.06-.56.11-.84.05-.28.12-.55.2-.82.08-.27.17-.53.28-.79.11-.26.23-.51.36-.76,1.59-2.86,4.22-4.44,7.25-5.39Z"/>
  <path class="cls-2" d="M326.48,638.91c10.01-.31,42.36-1.16,50.67,1.18,1.62.46,11.5,3.6,11.86,4.22-19.67,1.05-40.2-.08-60.02.25-.95-1.83-1.7-3.76-2.5-5.66Z"/>
  <path class="cls-14" d="M855.92,421.99c9.3,3.34,18.7,6.36,28.2,9.06-1.6,5.53-3.05,11.11-4.57,16.67-9.1-3.48-18.6-6.77-28.18-8.54l4.55-17.19Z"/>
  <path class="cls-3" d="M678.7,432.32c4.18,2.13,8.5,7.85,11.78,11.27-8.53,7.93-16.7,16.23-24.5,24.87l-.4.21c-2.72-1.27-8.45-8.3-10.82-10.66,7.94-8.61,15.92-17.17,23.95-25.69Z"/>
  <path class="cls-2" d="M623.35,542.66c4.64-.14,9.31.03,13.95.09,1.56,2.32,3.01,4.74,4.5,7.11-2.27-.31-4.69-.61-6.96-.22-8.17,1.43-7.67,6.62-12.3,11.47-1.11,1.16-2.54.82-4.01.84-5.06.05-11.26.78-16.19-.24-1.42-.29-1.83-.61-2.66-1.77-.1-2.48,1.11-5.06,1.95-7.37,1.15-3.18,1.5-6.22,1.88-9.56,6.62-.07,13.23-.19,19.84-.36Z"/>
  <path class="cls-2" d="M272.39,421.32c6.68,1.33,13.82,1.3,20.2,3.83,10.04,3.99,30.14,23.25,34.19,32.82l-.49.18-1.85-1.3c-2.13-1.58-4.3-3.09-6.5-4.56-2.21-1.46-4.45-2.87-6.73-4.21-2.28-1.35-4.59-2.63-6.94-3.86-2.35-1.23-4.72-2.39-7.13-3.49-2.41-1.1-4.84-2.14-7.3-3.12-2.46-.98-4.95-1.89-7.45-2.73s-5.04-1.63-7.59-2.34c-2.55-.72-5.12-1.36-7.7-1.95,1.65-3.19,3.26-6.32,5.3-9.28Z"/>
  <path class="cls-14" d="M899.44,424.85c9.67,3.24,20.09,5.71,29.4,9.83-1.63,6.71-4.05,13.41-6.24,19.98-7.32-1.32-21.19-6.74-29-9.3,2.17-6.8,4.15-13.56,5.84-20.5Z"/>
  <path class="cls-3" d="M467.08,635.95c29.94,1.23,60.09.96,90.06,1,.05,1.98.35,4.24-.42,6.09-1.34.97-1.9.81-3.51.87l-90.19.27c1.6-2.65,2.82-5.4,4.07-8.23Z"/>
  <path class="cls-2" d="M390.59,902.68l24.38-.03c17.8-.01,30.12.45,45.59,10.88l-8.88.02-68.43-.15c-.93-3.43-1.49-6.98-2.14-10.46,3.14-.2,6.33-.18,9.48-.24Z"/>
  <path class="cls-2" d="M383.99,917.57h45.15c10.46,0,21-.27,31.43.45.28,3.53.22,7,.13,10.53l-74.76.04c-.7-3.68-1.72-7.26-1.95-11.02Z"/>
  <path class="cls-2" d="M726.67,879.14l66.74-.41c6.02-.04,21.02-1.06,26.33.24,1.44.35,2.19.92,2.9,2.22.82,1.5.69,3.64.14,5.17-1.13,1.12-2.02,1.21-3.51,1.43-22.66-.34-45.33-.39-67.99-.14-5.48.03-20.78.99-24.8.12-1.57-.34-2.3-.89-3.11-2.24-.25-1.47-.26-2.93.44-4.32.65-1.29,1.6-1.59,2.85-2.09Z"/>
  <path class="cls-2" d="M462.59,902l37.37-.21c8.87-.05,18.96-1.14,27.56,1.01,4.17,1.05,25.63,7.71,27.1,10.18-10.04.91-20.7-.02-30.83-.03l-59.69.26-1.51-11.23Z"/>
  <path class="cls-2" d="M326.58,591.2c3.06,2.4,5.85,7.39,8.21,10.55,9.42,12.58,18.68,24.38,32.33,32.67l-.13.37-2.29.06-39.91-.06c-3.65-14.76-.61-28.92,1.79-43.59Z"/>
  <path class="cls-2" d="M524.82,603.51c7.11-.9,14.08,2.41,19.64,6.56,2.93,2.19,8.19,7.19,8.24,10.92.02,1.28-.56,1.69-1.38,2.54-2.48-.83-5.65-6.06-7.76-8.02-1.21-1.13-2.5-2.17-3.88-3.1s-2.81-1.76-4.3-2.47c-2.62-1.23-7.26-3.14-10-2.15l-.41.95c.1.53-.07,1.18.29,1.59,1.39,1.62,13.27,5.26,16.63,8.5,1.23,1.19,2.16,2.68,2.22,4.41l-.67.71c-1.23.02-1.8-.28-2.86-.87-.42-.89-.89-1.75-1.36-2.62l-.24-.09c-15.01-5.83-16.46,3.21-28.01,6.54-9.17,2.65-18.98,3.33-28.45,4.24,1.09-5.09,1.76-10.29,2.57-15.43,15.45-2.44,25.68-8.9,39.71-12.21Z"/>
  <path class="cls-2" d="M561.12,916.67c1.84-.69,4.69.09,6.42.91,4.73,2.26,7.46,6.32,9.18,11.07l-96.76-.09h-15.24s-.14-11.1-.14-11.1c20.82-.32,41.66-.1,62.48-.13,11.3-.01,22.81.42,34.06-.65Z"/>
  <path class="cls-1" d="M415.67,806.86c2.62,2.79,4.69,6.91,6.7,10.21,14.74,24.08,31.29,62.1,36.42,89.89-7.23-3.06-14.71-5.42-22.24-7.6-4.14-18.05-7.47-36.27-11.46-54.35-2.81-12.78-6.19-25.47-9.42-38.15Z"/>
  <path class="cls-3" d="M680.5,623.22c6.82-.49,13.76-.38,20.6-.5.15,6.8.05,13.63.07,20.43-33.42-.51-66.92-.15-100.35-.22h-20.73s-.08-12.09-.08-12.09c9.69-1.34,19.62-1.75,29.37-2.6,23.68-2.12,47.38-3.79,71.12-5.02Z"/>
  <path class="cls-3" d="M639.3,467.28c6.31,2.17,15.58,14.03,20.43,19.14-9.26,9.3-18.1,19.08-27.07,28.66-1.21-1.06-2.28-2.29-3.95-2.48-3.67,1.37-33.57,32.29-37.24,36.9-.48.6-.97,1.21-1.48,1.79-.81.9-1.54,1.34-2.75,1.33-4.7-.06-11.89-9.9-15.08-13.4,8.43-10.55,18.5-20.2,27.8-29.99l39.35-41.95Z"/>
  <path class="cls-9" d="M688.52,777.07c11.36,4.03,35.12,18.56,45.47,26.09,9.55,6.94,19.3,15.75,21.17,28.02.28,1.87.9,4.32-.27,5.89-8.21-5.42-45.37-37-50.12-37.71l-.76.59v1.35c1.13,1.88,2.79,3.17,4.41,4.6,14.29,11.28,31.03,23.4,44.33,35.55-4.21,4.43-9.77,8.16-15.66,9.88-6.46,1.89-13.44,1.51-19.35-1.89-18.09-10.39-24.2-52.93-29.22-72.37Z"/>
  <path class="cls-9" d="M793.37,829.48c3.3-5.43,6.6-10.83,10.75-15.67,14.75-17.21,38.36-28.66,56.71-41.83-5.43,23.59-12.61,56.36-34.59,70.27-5.73,3.62-13,6.26-19.75,6.96l-.09.57c-1.85.92-4.55.89-6.57.6-3.55-.52-8.86-2.33-10.73-5.69-1.26-2.25.73-8.55,1.65-11.07.63-1.73.91-3.34,2.63-4.14Z"/>
  <path class="cls-13" d="M789.8,845.44c5.85-4.14,10.94-9.11,16.3-13.84,4.7-4.15,9.57-8.1,14.27-12.24,3.39-2.98,6.77-6.63,10.61-9,.99-.62,1.5-.89,2.7-.73.24,1.15.08,2.01-.6,2.97-5.35,7.6-31.62,28.9-39.65,34.88,4.64,1.56,8.17,2.11,13.06,1.75l-.09.57c-1.85.92-4.55.89-6.57.6-3.55-.52-8.86-2.33-10.73-5.69-1.26-2.25.73-8.55,1.65-11.07.63-1.73.91-3.34,2.63-4.14-1.64,5.59-3.73,9.96-3.57,15.96Z"/>
  <path class="cls-14" d="M733.76,891.66c27.21-.62,54.52-.16,81.74-.22-2.19,10.55-6.02,21.02-9.05,31.37l-1.81,5.9c-20.2-.29-40.48.13-60.69.16-2.99-7.71-10.02-29.03-10.8-36.52l.61-.7Z"/>
  <path class="cls-2" d="M467.33,541.91c33.77.98,67.67-.81,101.46.09,3.85,3.5,7.22,7.52,11.03,11.06,1.99,1.85,4.45,3.48,7.28,3.3,5.26-.32,9.2-6,12.35-9.68-1.5,4.03-3.18,7.72-5.65,11.25-.23.23-.46.47-.69.7-2.85,2.76-8.19,5.67-12.08,6.29-4.32.7-9.08.32-13.46.31l-23.95-.11c-27.05-.08-54.13.17-81.17-.26,1.2-7.6,2.59-15.61,4.87-22.96Z"/>
  <path class="cls-2" d="M655.5,541.49c46.37-.38,92.74-.22,139.1.47-1.6,6.41-3.24,12.82-4.92,19.21l-.92,3.88c-15.49,1.01-31.44.29-46.98.29-21.91,0-43.9.43-65.8-.26-5.78-8.3-12.92-16.87-20.48-23.58Z"/>
  <path class="cls-2" d="M263.26,782.38c6.96-.12,13.92-.15,20.88-.08,2.69,13.23,6.98,26.38,10.18,39.54l25.85,106.98c-7.49.12-15.01,0-22.5,0-11.42-48.83-22.04-97.84-34.42-146.45Z"/>
  <path class="cls-2" d="M169.98,782.58c7.42-.28,14.84-.37,22.27-.28-2.56,11.66-5.9,23.17-8.62,34.81l-17.28,77.17c-2.59,11.55-5.66,23.02-7.85,34.66-7.61.06-15.22.04-22.83-.04.72-4.69,2.22-9.39,3.25-14.04,3.07-13.6,6.24-27.17,9.52-40.72,7-30.56,14.18-61.08,21.54-91.55Z"/>
  <path class="cls-2" d="M373.35,355.87c1.22,6.38-.61,14.93-1.37,21.42,4.47,3.39,9.44,7.23,12.46,12.05-2.08,1.11-4.18,2.09-6.28,3.15-4.03,2.03-4.49,7.17-5.66,11.08-3.49-.19-11.36-2.89-14.25-1.35l.02.86c2.81,3.61,8.52,3.86,12.73,4.43-.88,3.94-1.72,7.9-2.69,11.82-.8,3.22-2.05,6.85-5.15,8.53-6.04,3.29-18.06-1.11-24.36-2.88-3.96,8.26-8.15,16.4-12.59,24.42-2.11-2.47-4.23-4.93-6.37-7.38-4.46-5.04-9.5-9.55-14.21-14.36-.29-2.54-.25-5.08-.27-7.64,10.77-5.11,17.95-10.19,22.24-21.66-.94-2.39-1.48-4.82-2.07-7.32-2.99-1.76-8.12-3.92-9.8-7.04-1.38-2.56-1.55-6.19-.71-8.94.88-2.87,2.79-5.61,5.5-7.01,1.69-.87,3.55-1.03,5.33-.34.17.06.33.14.49.21,2.51,1.03,3.19,3.45,4.7,5.48.81,1.09,1.26,1.67,2.6,1.91l.48-.6c0-2.05-1.06-4.14-1.79-6.04,15.51.7,28.46-4.03,41.03-12.81Z"/>
  <path class="cls-10" d="M364.09,370.02c1.88-.24,4.05-.79,5.58.66,1.57,1.49,2,4.06,1.9,6.12-.21,4.19-1.45,7.01-4.52,9.78-1.32.23-2.61.11-3.73-.7-1.71-1.24-2.44-3.39-2.59-5.42-.3-4.12.76-7.29,3.35-10.44Z"/>
  <path class="cls-2" d="M366.87,373.28c.37,1.66.42,4.01.15,5.68-.23,1.41-.61,1.89-1.73,2.72-.59-1.11-1.24-2.2-1.23-3.5.02-2.14,1.37-3.51,2.8-4.9Z"/>
  <path class="cls-14" d="M116.01,515.11c6.68,2.22,13.35,4.47,20.01,6.76,2.92,6.46,4.57,13.81,6.46,20.63,2.87,10.02,5.54,20.09,8,30.22,3.39,14.1,6.89,28.16,9.73,42.38,6.17,30.93,10.69,62.07,15.98,93.15,2.64,15.54,5.82,31.04,8.86,46.51-4.35-.73-8.55-1.77-12.44-3.92-6.19-3.42-10.15-8.22-11.87-15.09-2.25-8.99-2.62-26.13-3.61-36.13-1.66-16.79-4.37-33.54-7.07-50.2-2.23-14.42-4.9-28.76-8.01-43.02-3.11-14.26-6.66-28.41-10.64-42.45-4.73-16.41-10.62-32.46-15.39-48.83Z"/>
  <path class="cls-14" d="M883.55,480.06c9.09,3.59,18.84,6.31,28.2,9.14-3.89,11-6.85,22.29-10.31,33.42l-23.94,77.5c-4.21,13.59-7.44,28.52-13.32,41.46-5.91-.12-24.29.91-28.25-2.74-.17-8.31,11.51-40.82,14.62-50.98l33-107.81Z"/>
  <path class="cls-14" d="M841.33,471.95c9.01,3.81,18.48,6.13,27.98,8.34-3.36,8.45-5.73,17.43-8.63,26.06-10.77,32.1-20.06,64.77-30.21,97.08-2.56,8.15-8.2,31.93-12.89,37.51-7.02.09-17.26,1.21-23.86-.36-1.59-.38-2.79-.87-3.65-2.32,1.28-6,3.57-11.97,5.41-17.83,2.98-9.5,5.89-19.02,8.71-28.57l37.14-119.9Z"/>
  <path class="cls-2" d="M881.84,675.17c7-.15,14.04,0,21.05,0,.6,27.96.2,56.03.2,84l-.17,169.4-21.31.02.12-171.39-.1-52.5c-.03-9.79-.43-19.77.21-29.53Z"/>
  <path class="cls-3" d="M388.71,781.27c1.56.76,3.05,1.65,4.47,2.64,5.74,3.97,12.95,10.07,16.18,16.39,2.95,5.78,4.05,13.36,5.56,19.63,3.83,15.88,7.24,31.74,10.55,47.73,2.14,10.3,4.79,20.51,6.62,30.87l-35.26.24-16.27.05c-8.76-22.85-18.53-45.33-27.93-67.91,12.8-15.98,24.36-32.87,36.08-49.65Z"/>
  <path class="cls-1" d="M288.05,782.44l16.72.07c10.1,10.36,19.92,22.33,27.43,34.72,3.79,6.25,6.82,13.11,10.75,19.24.84,1.31,1.24,2.03,2.78,2.41,1.66-.67,2.62-2.4,3.64-3.81,5.24,10.3,9.48,21.23,14.01,31.85,4.72,11.08,10.29,22.61,13.44,34.25,2.18,8.08,3.04,17.25,4.45,25.55l.09,1.45-.6.67c-6.82.52-13.83.14-20.67.14l-35.75.05c-6.11-27.15-12.99-54.09-19.61-81.12-5.35-21.83-10.29-43.93-16.68-65.48Z"/>
  <path class="cls-3" d="M321.56,307.65c25.01-.13,46.01,8.5,67.18,20.9-2.08,5.43-5.88,11.01-9.53,15.52-11.08,13.68-26.3,20.22-43.71,20.63-4.83.11-9.9-.88-14.67-.27-3.09.39-5.71,1.88-7.58,4.39-2.47,3.33-3.3,8.05-2.63,12.09,1.15,6.95,6.16,9.06,10.86,13.08,1.05.9,1.48,2.09,1.52,3.46.12,4.28-4.46,8.77-7.25,11.63-4.45,3.63-9.09,6.71-14.59,8.5-17.27,5.61-41.06-2.58-56.53-10.35,19.07-13.44,26.17-34.93,31.39-56.71,2.57-10.73,5.13-22.89,12.95-31.21,8.42-8.96,20.88-11.12,32.59-11.66Z"/>
  <path class="cls-10" d="M342.12,312.32c.48.4,1,.87,1.31,1.42.89,1.59.45,4.39.18,6.09-1.42,8.97-9.96,24.95-17.38,30.32-1.13-.63-1.52-.77-2.19-1.85.78-4.54,6.68-9.15,9.25-13,4.38-6.55,5.46-19.06,8.82-22.97Z"/>
  <path class="cls-10" d="M374.18,329.25c1.38.23,1.48.1,2.33,1.18.05.68.05,1.29-.19,1.94-3.96,11.11-24.04,22.48-34.05,27.09-.96-.21-1.31-.58-2.06-1.19,0-.35-.1-.72,0-1.06.59-2.11,7.54-5.02,9.46-6.04,10.17-5.36,17.54-12.97,24.51-21.92Z"/>
  <path class="cls-10" d="M291.95,348.1c1.46.44,1.99.35,2.65,1.84,2.39,5.39-3.01,28.29-4.73,33.9-2.9,9.47-8.31,22.17-17.48,27.05-1.07-.27-1.26-.52-2.03-1.27.02-.34-.05-.69.05-1.01.36-1.19,4.4-4.95,5.45-6.23,1.48-1.78,2.82-3.64,4.05-5.6,1.22-1.96,2.3-3.99,3.25-6.1,3.8-8.42,5.65-17.93,6.65-27.08.55-5.06,0-10.81,2.15-15.5Z"/>
  <path class="cls-3" d="M506.37,347.98c29.34.44,58.74.02,88.08,0l147.05.13,57.14-.02c11.6-.03,23.33-.42,34.9.15-.62,7.13-2.39,14.34-3.78,21.38l-8.12,39.94c-8.78,42.75-17.97,85.51-26.12,128.38l-143.77-.13c-1.89-1.93-3.7-3.94-5.54-5.91l137.34-.09c3.41-10.01,4.86-21.12,7.19-31.45,6.99-31.03,12.81-62.29,19.8-93.31,1.79-7.65,10.07-40.04,7.55-45.1-.3-.6-.26-.53-.89-.7-7.5-2.01-19.07-.94-27.09-.96-16.62-.06-33.24-.05-49.85.06l-142.28.13-53.06-.07c-8.45-.07-17.09-.76-25.51-.43-1.67.06-2.93.39-4.39,1.18-1,1.96-1.49,4.1-1.97,6.23-1.51,6.69-2.5,13.53-3.89,20.26-6.46,31.26-12.61,62.58-18.45,93.96l-6.28,32.22c-1.08,5.45-2.98,11.41-3.01,16.92.99.92,1.57,1.2,2.95,1.29,9.66.63,19.81-.09,29.52-.12,19.98-.05,39.98.04,59.96-.28-1.76,1.98-3.25,4.15-4.79,6.31l-100.99.06c1.92-7.46,3.23-15.16,4.79-22.71,4.61-22.29,8.53-44.71,13.05-67.02l12.46-60.64c2.77-13.2,6.01-26.29,7.99-39.65Z"/>
  <path class="cls-3" d="M422.37,707.2c11.08,7.39,21.37,15.39,30.39,25.22,38.76,42.25,57,110.43,68.56,165.54-10.06.2-20.15.04-30.21.02h-29.69c-8.01-32.51-29.93-80.74-52.55-105.67-5.32-5.87-11.19-10.56-17.68-15.04,12.3-18.69,27.6-47.79,31.18-70.07Z"/>
  <path class="cls-14" d="M66.79,498.93c3.81,1.37,7.48,3.12,11.33,4.45,10.68,3.7,21.63,6.79,32.47,10.01,13.73,36.18,23.75,74.39,31.35,112.31,5.1,25.48,8.41,51.42,11.29,77.23,1.21,10.88.85,22.66,3.23,33.27.94,4.21,2.99,8.1,5.69,11.44,4.28,5.3,9.71,8.26,16.25,9.92,8.87,2.25,18.54,1.54,27.62,1.48l38.19-.11c8.39-.03,17.15-.51,25.47.5,12.1,1.47,22.29,8.5,29.6,18.11.2.26.39.53.59.79h-91.66s-30.4.15-30.4.15c-13.31.1-26.33.89-39.35-2.64-9.17-2.48-19.12-7.93-22.43-17.42-2.25-6.45-.91-24.88-1-32.67-.14-7.63-.42-15.25-.84-22.86-2.77-50.15-10.43-99.3-24.87-147.45-5.86-19.54-12.43-38.71-22.52-56.52Z"/>
  <path class="cls-1" d="M196.23,782.36l62.96-.03,23.99,102.09c3.4,14.82,7.17,29.54,9.88,44.51l-32.72-.07h-97.52c1.42-12.53,5.86-26.85,8.66-39.34l17.06-74.86c2.51-10.78,5.42-21.46,7.7-32.3Z"/>
  <path class="cls-2" d="M517.71,363.89c33.51-.34,67.06.15,100.57.11l190.61.25c1.21.01,5.49-.15,6.29.66-.56,6.47-2.34,12.92-3.69,19.27l-6.85,32.25c-7.72,37.17-14.98,74.53-23.99,111.41-16.19.98-32.75.13-48.99.12-29.37-.06-58.73.09-88.09.45-1.04-1.27-2.16-2.58-2.98-4-.72-1.23-3.08-6.77-2.78-7.89,1.06-3.98,17.08-19.5,20.79-22.89,3.55-3.24,12.9-9.36,13.9-14.09.38-1.8-3.28-5.52-4.2-7.21l-.24-.45c9.12-9.68,18.42-19.18,27.9-28.5-4.87-5.71-11.35-11.85-17.31-16.41-9.36,8.99-18.09,18.69-26.98,28.15-1.26-1.02-2.54-2.11-3.92-2.96-1.01-.61-2.8-1.49-3.99-1-2.21.9-7.38,7.26-8.11,9.48.55.94.28.64,1.06,1.33.18.16.36.31.55.46-.21,2.59-30.84,33.7-34.5,37.52-6.13,7.09-12.47,13.98-19.03,20.67-1.65,1.82-3.27,3.65-5.01,5.38-2.29,2.41-3.5,2.44-6.76,2.53-3.33.09-6.66-.24-9.99-.27-6.66.34-13.53.03-20.21.05-11.67.08-23.34.08-35.01,0-7.18.11-14.37.16-21.55.16,6.26-29.32,11.32-58.94,17.04-88.37,4.95-25.45,10.6-50.76,15.49-76.22Z"/>
  <path class="cls-6" d="M556.04,493.64c-.39-.98-.79-1.71-.66-2.78.09-.78.57-1.1,1.23-1.47,2.6-1.46,6.66-1.12,9.44-.42,1.28.32,1.93.56,2.64,1.66l-.8,1.82c-3.85.42-6.95-1.71-10.5-1.29-.5.81-.93,1.63-1.35,2.49Z"/>
  <path class="cls-8" d="M767.69,477.85c-.02,1.57-.07,3.14-.17,4.71.84-.8.49-.26.79-1.37.29-1.07.61-1.67,1.35-2.48-2.58,12.51-5.56,25.09-8.58,37.5-.63,2.59-1.52,5.08-2.07,7.7l-.71.54.53.08-.5.11c-.35-1.92-.31-3.68.02-5.6.77-4.61,2.45-9.21,3.44-13.81,1.94-9.02,3.26-18.55,5.9-27.37Z"/>
  <path class="cls-8" d="M693.04,495.13c-4.79,8.4-4.02,21.38-8.62,29.31l-.46-.24c-.22-4.71,9.8-43.65,12.17-49.8h.53c-1.76,6.62-2.28,13.93-3.62,20.72Z"/>
  <path class="cls-6" d="M573.73,480.47c.47-2.46.7-6.28,2.31-8.16,1.18-.39,1.52-.41,2.72.17.38.18.8.52,1.14.77l.51-.26c1.49-.73,2.5-1.11,4.15-1.2,1.13.51,1.24.44,1.74,1.55-.32,2.82-.72,5.63-1.18,8.43l-1.91-.4c-1.86-.32-3.62-.54-5.52-.58-1.51.16-2.49.04-3.97-.31Z"/>
  <path class="cls-10" d="M663.5,372.03c.73.23,2.28.61,2.58,1.35,1.35,3.37-4.51,22.65-5.93,26.96-1.18-.02-1.87,0-2.88-.66.07-3.93,4.77-22.97,6.24-27.65Z"/>
  <path class="cls-4" d="M534.54,466.54l1.68.71c.53,4.2-10.22,53.47-12.84,59.56-.41.16-.14.09-.85-.01,2.16-11.92,4.44-23.94,6.96-35.79,1.72-8.09,3.97-16.27,5.04-24.47Z"/>
  <path class="cls-4" d="M573.73,480.47c1.48.35,2.46.47,3.97.31-1.23,3.6-1.47,7.07-2.23,10.75-2.58,7.89-4.38,28.97-8.04,34.6-1.01.14-.53.13-1.72,0-1.18-.12-.73.12-1.44-.77.15-6.4,2.53-13.49,3.99-19.73,1.95-8.37,3.78-16.76,5.48-25.18Z"/>
  <path class="cls-8" d="M786.05,455.92l1.43.36c.29.69.33,1.08.2,1.82-2.27,12.91-6.02,25.81-8.9,38.6-1.87,8.3-2.9,17.5-5.94,25.41-.33.86-.73,1.55-1.26,2.29l-.53-.24c-.15-1-.22-2.01-.22-3.02,0-1.01.09-2.02.26-3.02,1.41-9.14,4.12-18.11,6.26-27.1,2.54-10.67,4.53-21.11,7.73-31.62.62-.7.3-.49,1.2-.85.22-.09.44-.16.67-.24.12-1.11-.36-1.47-.91-2.4Z"/>
  <path class="cls-4" d="M577.7,480.78c1.89.04,3.65.27,5.52.58l1.91.4c-2.14,9.2-7.6,37.15-12.3,43.98l-.7.05c-1.69-4.98,4.8-25.09,5.84-31.18.14-1.56,1.11-5.45.32-6.51-1.28,1.02-1.97,2.03-2.82,3.43.76-3.68,1-7.15,2.23-10.75Z"/>
  <path class="cls-11" d="M577.7,480.78c1.89.04,3.65.27,5.52.58-3.82,4.33-3.27,8.22-5.25,13.25.14-1.56,1.11-5.45.32-6.51-1.28,1.02-1.97,2.03-2.82,3.43.76-3.68,1-7.15,2.23-10.75Z"/>
  <path class="cls-4" d="M516.06,496.08c-1.18,2.3-1.61,5.47-2.31,8.01-2.12,7.58-3.96,15.65-6.75,23.01l-.81.3c-.31-1.04-.34-.69-.18-1.69,1.64-10.2,4.72-20.14,6.92-30.23,1.67-7.69,3.18-20.75,6.01-27.58.49-1.18,1.2-2.31,2.53-2.65,1.16-.3,1.66,0,2.62.52.48,1.38.2,1.62-.29,3.02-2.65,9.08-4.17,18.52-7.74,27.29Z"/>
  <path class="cls-6" d="M503.46,490.43c2.29-.05,4.59.03,6.89.05-.87,3.84-1.22,7.76-2.08,11.61-1.75,7.78-4.26,15.5-6.46,23.16-.82.91-3.89,1-5.15,1.17,1.11-11.59,4.27-24.56,6.81-36Z"/>
  <path class="cls-8" d="M708.56,475.73l1.62-2.81,1.98.49c1.24.6,2.2.72,2.81,2-2.05,11.09-4.4,22.12-7.05,33.08-1.17,5.04-2.03,10.55-3.8,15.4-1.23.64-2.12.55-3.48.19l1.34-5.1-2.41-.82c2.8-13.01,4.93-26.26,7.99-39.17l.99-3.26Z"/>
  <path class="cls-4" d="M708.56,475.73l1.62-2.81,1.98.49c-.39.31-.87.52-1.16.92-.8,1.12-1.11,5.39-1.37,6.93-1.32,8.03-2.93,15.94-4.7,23.88-.97,4.36-2.28,8.85-2.89,13.26-.03.19-.04.38-.06.58l-2.41-.82c2.8-13.01,4.93-26.26,7.99-39.17l.99-3.26Z"/>
  <path class="cls-4" d="M556.04,493.64c.42-.86.85-1.68,1.35-2.49,3.55-.42,6.65,1.71,10.5,1.29l-2.04,1.05.42-.21.23.54-1.14.11c.82,1.02,1.38,1.37,1.25,2.76-.64,6.63-4.35,20.64-6.11,27.75-3.63-.05-7.28,0-10.89-.49,2.51-9.26,6.49-20.72,6.45-30.31Z"/>
  <path class="cls-15" d="M772.94,454.97c4.07,0,9.26-.42,13.11.94.55.94,1.03,1.3.91,2.4-.22.08-.45.15-.67.24-.91.36-.59.15-1.2.85-1.18-.28-1.79-.29-2.97.02l-.32.48.6.39c.57,1.13-.25,3.89-.63,5.16-.45,1.52-1.22,2.94-1.64,4.49-2.64,9.86-9.84,49.11-13.85,54.12-1.17.51-1.09.48-2.28.04-2.62-5.54,14.83-58.38,12.28-64.77l-1.21-.41.25-.21.78.3-.38-.35c-2.12,1.31-2.67,5.01-3.22,7.34-1,4.22-1.7,8.52-2.85,12.7-.73.81-1.06,1.41-1.35,2.48-.29,1.11.05.57-.79,1.37.09-1.57.14-3.13.17-4.71.12-5.57,3.8-17.11,5.25-22.88Z"/>
  <path class="cls-6" d="M596.9,448c4.56-.16,9.11-.12,13.67-.07-.35,3.58-.76,6.96-1.72,10.43l-1.8,1.71.08.21-.2,1.29c-.2.11-.41.19-.6.32-1.11.71-1.72,1.75-2.44,2.82-.65-.63-1.05-1.26-1.5-2.04l-.82.21c-.3,1.08-.48,2.02-.59,3.13-.16,1.51-.64,2.75-1.22,4.14l-.38.03c-.15-2.93,1.18-5.52.56-8.35l-.57-.16c-1.51,2.39-16.08,57.3-15.84,58.42.04.2.14.37.21.56-1.65,1.82-3.27,3.65-5.01,5.38-.79-9.1,9.98-43.07,12.84-54.06,2.05-7.9,3.62-15.98,5.35-23.96Z"/>
  <path class="cls-8" d="M738.71,432.62c4.2-.39,10.5-1.68,14.42-.15l.41.79c-1.02,1.94-3.31,2.79-5.21,3.67-1.11,8.4-17.24,85.55-20.23,88.15l-.92-.28c-.47-5.63,2.82-15.3,4.13-20.93,1.52-6.57,12.67-52.46,10.41-56.4-1.13-.6-1.14-.45-2.4-.09-.95.86-1.66,1.56-2.08,2.82-.99,2.93-1.35,6.22-2.17,9.24-2.09,7.68-4.29,15.34-6.58,22.96-2.47,10.67-5.27,21.21-8.02,31.81-.7,2.69-.9,6.33-1.93,8.81-.5,1.2-.96,1.38-2.03,1.93l-.62-.39c-.75-4.82,9.29-37.07,11.33-44.19l6.65-28.33c1.47-6.41,2.57-13.25,4.84-19.41Z"/>
  <path class="cls-15" d="M752.48,435.44c3.24.6,8.32.25,10.43,2.79.24,1.42-.14,2.27-.65,3.56-3.95,16.03-7.59,32.14-10.92,48.31-3.22,10.39-3.32,21.88-6.64,32.35-.39,1.24-.81,1.8-1.94,2.38l-.67-.65c-.4-3.16,1.77-7.05,2.55-10.18,2.17-8.63,3.73-17.47,5.43-26.21.99-7.43,9.85-42.66,9.01-46.26l-1.13.48-.09.4c-1.13,5.05-2.87,10-4.24,15l-12.09,43.48c-.9,3.33-5.18,22.6-6.47,23.8-1.28.23-1.54.25-2.77-.17-.42-2.05,9.95-40.6,11.41-47.08,3.15-13.94,5.26-28.18,8.77-42.01Z"/>
  <path class="cls-10" d="M529.9,373.46c5.39-.08,17.76-1.18,22.57.12,1.64,4.3-2.88,21.24-4.52,25.81-4.27.13-19.84,1.3-22.8-.28-1.15-4.89,2.62-20.67,4.75-25.65Z"/>
  <path class="cls-2" d="M532.07,377.35c5.82-.12,11.63-.11,17.45.01-1.43,6.12-3.16,12.2-4.76,18.28-5.05,1.01-11.08.35-16.24.24,1-6.21,2.32-12.37,3.56-18.53Z"/>
  <path class="cls-10" d="M678.73,372.87c8.27.34,16.59.15,24.87.31l-4.78,26.57c-4.2-.11-21.87.68-24.29-.67-.66-4.98,2.93-20.53,4.21-26.21Z"/>
  <path class="cls-2" d="M681.76,376.93l17.63.02c-1.74,6.22-2.62,12.62-3.68,18.98-6,0-11.99.04-17.98-.32,1.67-6.15,2.83-12.43,4.03-18.68Z"/>
  <path class="cls-8" d="M699.09,474.83c.76-3.96.99-13.08,4.38-15.48,2.93-2.08,7.15-.49,10.26.37l-2.38,9.48-1.15,3.73-1.62,2.81-.99,3.26c-3.05,12.92-5.18,26.17-7.99,39.17l2.41.82-1.34,5.1-2.66.43c-.98,0-1.59-.05-2.49-.45-.58-1.55.05-3,.4-4.6l-1.91.94c-.14,1.3-.18,2.32-.94,3.44-1.32.3-1.57.38-2.85-.03-1.68-2.53,1.06-9.4,1.56-12.49-.26-.18-.42-.47-.62-.72.83-4.73,2.3-9.36,3.06-14.08.4-2.49.15-5.06,1.01-7.45,0,1.72-.81,3.92-1.73,5.38-.14.22-.29.44-.43.66,1.33-6.8,1.85-14.1,3.62-20.74l2.43.43Z"/>
  <path class="cls-15" d="M708.56,475.73c-.82-1.16-1.57-1.72-1.34-3.23.22-1.49.99-2.19,2.06-3.12.63-.55,1.26-.25,2.06-.19l-1.15,3.73-1.62,2.81Z"/>
  <path class="cls-4" d="M696.66,474.39l2.43.43c-1.41,6.73-5.01,32.47-7.33,36.5-.26-.18-.42-.47-.62-.72.83-4.73,2.3-9.36,3.06-14.08.4-2.49.15-5.06,1.01-7.45,0,1.72-.81,3.92-1.73,5.38-.14.22-.29.44-.43.66,1.33-6.8,1.85-14.1,3.62-20.74Z"/>
  <path class="cls-15" d="M702.59,480.07l-.48-1.23c1.06-.89,3.93.02,5.45.15-3.05,12.92-5.18,26.17-7.99,39.17l2.41.82-1.34,5.1-2.66.43c-.98,0-1.59-.05-2.49-.45-.58-1.55.05-3,.4-4.6l-1.91.94c2.2-8.64,3.2-17.62,5.41-26.31.04-3.65,1.02-11.1,3.2-14.03Z"/>
  <path class="cls-11" d="M699.57,518.17l2.41.82-1.34,5.1-2.66.43c.83-2.02,1.15-4.23,1.59-6.36Z"/>
  <path class="cls-4" d="M702.59,480.07c.75.48,1.86.88,2.04,1.79.49,2.45-.7,6.83-1.86,9.04-1.83,9.43-3.89,19.46-6.88,28.58l-1.91.94c2.2-8.64,3.2-17.62,5.41-26.31.04-3.65,1.02-11.1,3.2-14.03Z"/>
  <path class="cls-4" d="M526.5,465.85c1.86.29,3.6.49,5.32,1.29.04,4.86-3.03,14.26-4.15,19.52-2.68,12.64-4.62,25.72-8,38.17l-.46.68-1.58-1.27c-.37,1.2-.38,2.16.27,3.27.07.12.16.24.25.36,2.96-.08,5.91-.19,8.87-.08,2.5-8.21,3.86-16.98,5.5-25.41,2.2-11.33,4.91-23.37,5.63-34.88,3.94.69,7.82,1.39,11.66,2.5-2.8,7.92-9.12,50.68-12.73,54.28-.7-.5-.77-.32-.88-1.1-.39-2.63,1.43-7.1,2.06-9.77,1.56-6.61,7.81-31.76,5.97-37.11-1.37,1.33-2.49,9.76-3,12.08-2.94,13.34-6.96,26.25-10.7,39.38,4.03-.01,29.8-.68,31.42.53-6.66.34-13.53.03-20.21.05-11.67.08-23.34.08-35.01,0,1.26-.98,4.31-.57,5.97-.6,1.93-11.95,5.06-23.86,7.84-35.63,2.06-8.73,3.76-17.57,5.97-26.25Z"/>
  <path class="cls-11" d="M518.14,527.86c-.79-.06-1.51-.17-2.27-.35,1.25-4.15,2.03-8.42,3.02-12.65.08-.35.19-.88.29-1.19.48-1.45.89-2.75,1.22-4.25l.6-.27c2.42,3.51-2.99,11.02-1.59,15.15.06.18.17.34.26.51l-.46.68-1.58-1.27c-.37,1.2-.38,2.16.27,3.27.07.12.16.24.25.36Z"/>
  <path class="cls-10" d="M520.31,408.13l194.4-.17h56.86c7.6-.01,18.35-.92,25.67.28l.6.93c-.34,1.26-.34,1.41-1.33,2.24l-236.3.17c-11.05-.08-22.1.19-33.15.04-2.56-.04-6.14.33-8-1.59.21-1.23.37-1.11,1.25-1.9Z"/>
  <path class="cls-10" d="M520.64,428.35c.72-1.11,1.61-2.99,3.01-3.27,5.31-1.07,25.01-.17,31.52-.2,15.71-.17,31.42-.26,47.12-.26,5.9,0,12.02-.51,17.89-.12,2.61.17,4.62.49,6.7,2.13,1.21,2.15,1.03,4.78.37,7.1-.38,1.33-.89,2.2-2,3.05-8.88,1.67-28.3.52-38.41.54-20.99.03-42.18.82-63.15.2-.65-.02-1.09-.16-1.66-.47-.73-1.01-1.3-1.91-1.82-3.04-.31-1.82-.51-3.99.43-5.64Z"/>
  <path class="cls-7" d="M520.2,433.99c-.31-1.82-.51-3.99.43-5.64.18.06.35.13.54.17,4.05.94,13.11-.03,17.63-.05l55.48-.17c8.64-.02,17.93-.72,26.51-.02,1.26.1,2.17.31,3.23,1.04.3,1.02.17,1.93-.33,2.89-.59,1.11-1.89,1.65-3.07,1.84-4.76.79-18.03-.02-23.86-.02l-49.8-.08c-8.87-.02-17.9-.41-26.75.04Z"/>
  <path class="cls-10" d="M564.6,373.66c9.77,0,85.62-1.01,89.73.37.92,4.13-2.14,19.82-3.84,23.89-.49,1.16-.69,1.2-1.79,1.64l-58.75-.08c-9.26,0-19.43.84-28.6-.19-1.63-.18-2.22-.22-3.28-1.5-.75-3.17,1.82-19.76,3.52-22.58.81-1.34,1.58-1.24,3.01-1.55Z"/>
  <path class="cls-2" d="M564.65,377.42c28.71-.21,57.43-.26,86.14-.16-.82,6.23-2.46,12.3-3.1,18.55-8.43,1.15-18.76.21-27.42.2l-58.45-.09c.43-6.18,1.73-12.42,2.83-18.51Z"/>
  <path class="cls-10" d="M711.54,373.45c8.4-.11,90.6-.35,92.48.26.71.23.51.21.92.96-.16,6.24-2.77,19.45-4.95,25.28-3.78,1.02-24.27.04-29.41.01l-63.77-.06c1.85-8.71,3.79-17.59,4.72-26.45Z"/>
  <path class="cls-2" d="M715.03,377.31c28.61.17,57.22-.19,85.83.19-.74,6.27-2.39,12.57-3.63,18.77-28.7.12-57.4.02-86.1-.3,1.26-6.23,2.57-12.45,3.9-18.66Z"/>
  <path class="cls-2" d="M265.5,434.37c4.73,1.03,9.45,2.09,14.07,3.53,14.34,4.47,28.13,12.47,40.64,20.75,52.23,34.56,50.41,68.66,76.43,118.5-.97,6.24-4.65,19.98-2.8,25.74.33,1.01,1.2,2.01,2.23,2.37,1.59.57,3.58.03,4.95-.84,5.43-3.44,7.58-12.92,8.98-18.76,22,11.52,35.71,14.06,59,20.67-.83,13.62-5.19,25.91-11.01,38.11-27.18.1-58.43,2.8-83.22-10.17-1.8-.96-3.56-1.99-5.29-3.08-1.73-1.09-3.41-2.24-5.05-3.46-1.64-1.21-3.24-2.49-4.78-3.82-1.55-1.33-3.05-2.72-4.49-4.16-19.9-19.55-50.35-66.1-55.69-93.15-.61-3.24-1.04-6.5-1.3-9.78-.26-3.28-.35-6.57-.27-9.86.12-4.87,2.77-10.82,1.35-15.39-1-.85-.95-.75-2.28-.65-.92.92-1.23,1.84-1.53,3.07-1.18,4.83-1.4,10.32-1.45,15.27-.33,29.32,15.05,53.03,29.73,77.05-2.99,14.77-6.88,31.65-3.54,46.58,7.6,33.91,40.73,44.42,68.73,56.83,5.1,2.21,10.11,4.62,15.02,7.23,4.91,2.61,9.71,5.41,14.4,8.4-11.18,52.13-42.12,85.79-72.44,127.38-3.94-6.34-7.29-13.01-11.37-19.28-11.6-17.78-33.61-45.96-52.81-54.88-15.4-6.21-42.24-2.43-59.55-3.64-6.17-11.61-11.27-23.01-14.46-35.85-7.69-30.9-3.43-72.43,2.85-103.46,1.57-7.57,3.25-15.12,5.04-22.65,1.14-4.64,2.69-9.3,3.33-14.03-.76-1.09-1.18-1.02-2.38-1.48-1.44,1.03-1.87,2.66-2.37,4.32-3.76,12.52-6.08,26.1-8.37,38.97-6.51,36.47-10.32,77.88,2.29,113.41,2.54,7.16,6.1,13.93,9.7,20.61-9.47.35-18.99.24-28.47.35-5.43-24.97-9.31-50.18-13.59-75.36-1.66-9.77-5.2-23.34-5.13-32.87.05-7.94,3.36-17.19,5.31-24.92,10.16-40.09,22.43-83.38,41.11-120.27,4.72-9.32,10.65-18.17,16.98-26.47,2.84-3.72,11.78-13.32,13.08-16.41-.43-1.15-.42-1.24-1.45-1.89-.64.03-1.16.13-1.72.45-4.31,2.5-8.45,9.08-11.53,13.01-34.24,43.77-50.08,111.66-63.87,164.97-1.63-8.25-4.88-17.57-4.55-25.98.3-7.77,3.88-17.49,5.83-25.15,10.01-39.44,24.71-87.42,53.35-117.29,8.17-8.52,18.09-16.4,27.94-22.94,4.63-3.07,9.88-5.47,14-9.24.14-.13.28-.27.42-.4Z"/>
  <path class="cls-10" d="M306.25,632.37l2.09.08c.39.26.85.45,1.18.79.55.59,15.23,32.37,17.07,36.2,3.15,6.55,4.95,13.1,2.28,20.24-2.37,6.35-7.73,10.59-13.79,13.21-9.53,4.12-19.94,5.31-29.68,1.38-2.4-1.31-4.7-2.65-6.74-4.5-2.3-2.08-4.06-4.52-5.59-7.19-2.47-4.34-3.97-9.45-5.92-14.05-2.65-6.27-5.97-12.47-8.21-18.88-.46-1.33-.68-2.49-.76-3.89.41-1.04,1.12-1.47,2.06-2.01,4.26-2.42,9.29-4.24,13.75-6.33l32.25-15.06Z"/>
  <path class="cls-2" d="M305.61,637.4l.56-.05c2.54,1.41,3.36,5.53,4.26,8.16l-43.13,20.02c-.54.02-.14.04-1.12-.39-1.59-2.47-2.56-5.16-3.62-7.89,14.15-6.7,28.45-14.26,43.05-19.85Z"/>
  <path class="cls-2" d="M311.7,649.4c2.06,1.33,10.6,20.31,12.48,24.3,2.22,4.7,3.08,9.46,1.18,14.44-2.05,5.35-6.99,9.05-12.07,11.3-8.57,3.8-17.92,4.51-26.66,1.11-11.4-5.8-14.49-19.81-18.61-31,14.64-6.55,29.2-13.27,43.69-20.15Z"/>
  <path class="cls-1" d="M363.54,674.13c19.16.55,38.43.09,57.6.09l123.54-.19,332.52,1.01v253.73c-22.68.4-45.67.45-68.35-.11,4.09-12.08,7.49-24.69,10.78-37.02,1.67-.28,3.28-.66,4.65-1.72,1.98-1.52,3.42-4.27,3.55-6.76.01-.24.02-.48,0-.71-.01-.24-.03-.47-.07-.71-.04-.23-.08-.47-.14-.7-.06-.23-.13-.46-.22-.68-.08-.22-.18-.44-.29-.65-.11-.21-.23-.42-.36-.62s-.27-.39-.42-.58-.31-.36-.48-.53c-1.62-1.61-3.87-2.55-6.09-2.96-4.28-.8-9.12-.29-13.48-.28-9.67.03-19.33.11-29,.25,1.56-10.08,5.91-16.62,12.53-24.23,7.37,2.51,14.21,3.29,21.9,1.7,14.54-3.01,25.67-12.27,33.66-24.51,9.28-14.2,12.94-30.07,16.82-46.27.75-3.14,3.15-8.9,2.06-12.01-.48-1.37-.92-1.55-2.09-2.28-6.4,1.41-48.6,31.35-54.96,37.04-8.74,7.81-20.37,23.77-21.11,35.86.8,2.41,2.08,6.61.93,9.03-1.54,3.25-5.01,6.04-7.03,9.11l-.51-.16c-.32-1.57.02-7.51-.71-8.15l-.76.21c-1.59,3.47-2.24,8.13-2.61,11.92l.84-.09c.41-.97.8-1.93,1.17-2.92l.58.57c-.37,2.36-1.12,3.23-2.79,4.8-.61.58-1.05,1.16-1.53,1.85l-.45.15c-.16-.18-4.31-11.23-5.35-13.19-2.62-4.95-6.17-8.97-9.87-13.12.33-1.01.62-2.03.86-3.06,1.52-6.75-.62-14.01-4.32-19.69-11.07-17.04-36.57-30.13-54.37-39.39-3.98-2.07-9.19-5.6-13.56-6.3-1.09-.17-.92-.06-1.75.49-.24.68-.27.67-.39,1.5-.48,3.47,1.57,9.1,2.31,12.6,3.93,18.58,9.04,45.48,21.54,60.06,4.83,5.63,10.98,8.97,18.43,9.49,12.52.88,19.61-4.05,28.65-11.88,3.68,3.54,6.88,6.93,9.27,11.48,2.51,4.78,6.06,13.08,4.39,18.48-2.33,2.01-10.21.95-13.32.91-7.39-.09-29.5-1.92-34.4,3.29-1.49,1.59-3.09,4.45-2.68,6.7.72,3.96,6.3,5.85,9.36,7.58,5,10.42,8.33,24.91,11.44,36.17-21.88.6-43.91-.04-65.8-.17l-91.6.11c-.8-1.99-1.7-4-2.85-5.81-7.86-12.4-39.58-21.5-53.72-24.61-4.96-24.71-12.04-53.12-20.05-76.88-13.03-38.68-32.95-80.53-65.33-106.6-11.66-9.39-25.03-16.68-38.29-23.55-12.45-6.44-25.77-10.9-38.28-17.11Z"/>
  <path class="cls-13" d="M781.67,807.7c-8.12-1.55-15.11-5.82-19.83-12.68-6.59-9.59-7.17-21.72-4.98-32.82,4-20.31,13.75-39.37,23.21-57.58,1.98-3.82,4.29-10.06,7.65-12.69,1.03.35.67.03,1.19,1.04,2.18,4.27,3.31,10.04,4.74,14.64,6.68,21.6,17.38,61.44,10.02,82.64-2.2,6.35-6.57,12.23-12.73,15.17-1.85.89-3.86,1.46-5.83,2.04-.07,8.14-.61,16.26-1.62,24.34-1.14,8.49-2.27,17.11-4.04,25.49,2.43-2.9,4.85-5.81,7.45-8.58-.88-2.98-1.56-5.3-.82-8.42.8,2.41,2.08,6.61.93,9.03-1.54,3.25-5.01,6.04-7.03,9.11l-.51-.16c-.32-1.57.02-7.51-.71-8.15l-.76.21c-1.59,3.47-2.24,8.13-2.61,11.92l.84-.09c.41-.97.8-1.93,1.17-2.92l.58.57c-.37,2.36-1.12,3.23-2.79,4.8-.61.58-1.05,1.16-1.53,1.85.89-5.85,2.19-11.63,3.14-17.47.89-5.47,1.47-11.03,2.57-16.46.84-8.23,2.1-16.57,2.32-24.84Z"/>
  <path class="cls-9" d="M786.68,700.24c2.44,3.27,3.67,9.67,4.78,13.72,5.54,20.29,17.22,61.54,5.95,80.41-3.02,5.06-7.22,7.62-12.77,9.11-.14-9.61-.33-19.3.28-28.9.82-12.89,2.51-25.73,3.21-38.64l-.46-.39c-1.02.14-1.71.16-2.58.74-.85.57-.75,2.51-.88,3.51-1.09,14.06-2.6,28.15-3.15,42.25-.28,7.11.02,14.26-.01,21.37-2.83-.75-5.47-1.59-8-3.12-6.58-3.98-10.67-10.63-12.3-18.02-1.24-5.64-1.28-11.68-.37-17.37,2.7-16.85,17.2-50.47,26.29-64.67Z"/>
  <path class="cls-1" d="M88.19,928.87c-12.85-20.82-22.7-43.58-31.7-66.3-3.46-8.69-6.77-17.45-9.9-26.27-3.14-8.82-6.11-17.69-8.92-26.62-2.81-8.93-5.45-17.91-7.92-26.93-2.47-9.03-4.78-18.1-6.91-27.21-2.13-9.11-4.1-18.26-5.89-27.45-1.79-9.19-3.41-18.4-4.86-27.65-1.45-9.25-2.72-18.52-3.83-27.81-1.1-9.29-2.03-18.61-2.79-27.93-5.4-61.51-.19-133.93,18.76-192.89,15.19-47.23,41.74-90.71,85.24-116.67,20.78-12.4,44.12-20.51,67.43-26.63,25.79-6.77,52.38-10.62,78.23-17.29,47.68-12.3,91.3-30.78,130.04-61.72,38.99-31.14,66.39-72.35,84.57-118.52,8.12-20.61,14.63-42.8,29.24-60.01,26.14-30.8,81.71-42.96,120.35-46.04,75.73-6.03,154.47,10.01,213.33,60.43,41.53,35.57,65.25,88.55,69.16,142.6,3.15,43.5-8.46,84.68-20.63,125.85-5.87,19.89-10.13,40.68-24.21,56.71-7.14,8.13-19.12,16.85-30.3,17.49-.15,0-.3.01-.45.02l7.24-36.61c1.24-6.17,3.12-12.81,3.62-19.06.19-2.31.25-4.42-.71-6.56-2.3-1.52-6.76-1.7-9.5-1.76-26.04-.6-52.25.21-78.3.21-50.67-.3-101.34-.31-152-.04-20.3.08-40.6.06-60.91-.08-9.64-.04-22.32-1.14-31.59.43-3.15,8.98-4.54,19.29-6.54,28.63-4.03,18.4-7.92,36.84-11.65,55.3l-16.46,83.14c-3.12,15.27-7.27,30.6-9.68,45.97-.46,2.92-.96,6.61.18,9.39.32.77.73.96,1.51,1.24,4.3,1.51,14.53.67,19.33.71l68.05.11c7.26.03,21.27-.86,27.86.63l-.15.65c-.42,1.89-.91,3.52.2,5.3.79,1.28,2.16,2.27,3.66,2.5,3.91.6,18.11-6.22,22.06-8.35l.67-1.05-.63-1.91c6.62-.9,13.94.11,20.67.09,1.93,4.03,4.38,6.84,8.75,8.3.48.16.96.29,1.45.41.49.11.99.2,1.49.26.5.06,1,.1,1.51.11.5.01,1.01,0,1.51-.04.5-.04,1-.1,1.5-.19.5-.09.99-.2,1.47-.33.49-.13.96-.29,1.43-.47.47-.18.93-.39,1.38-.61,2.39-1.2,3.8-2.81,5.43-4.88,1.57,4.75,6.4,22.99,4.6,27.57-2.98,1.24-8.35-.26-10.08,3.33-1.15,2.39.21,6.86,1.36,9.04,1.01,1.93,3.35,3.78,5.43,4.39,1.35.4,2.77.25,4-.48,2.04-1.21,3.13-3.41,3.64-5.65,2.61-11.68-4.2-39-8.77-50.04-1.85-4.48-3.77-9.35-6.18-13.53-2.59-4.5-6.97-9.6-8.48-14.53-.42-1.37-.34-1.97.21-3.26l1.12-.48c3.75,3.61,6.72,8.04,10.35,11.79,15.99,16.46,28.49,28.51,35.09,51.43,1.12,3.77,1.98,7.59,2.6,11.47.62,3.88.98,7.78,1.09,11.71.03,2.14.02,4.28-.04,6.42-12.17.45-104.62,6.19-108.27,9.65-1.83,1.74-1.1,11.8-1.07,14.61l-14.83.02c.37-2.52,1.45-6.54.05-8.82-.44-.72-1.25-1.41-1.86-2-1.42-1.39-3.09-2.57-4.66-3.79,1.74-1.59,2.67-2.96,2.73-5.39.13-5.11-3.77-10.29-7.29-13.73-6.03-5.9-14.43-10.14-22.99-9.89-8.65.26-17.04,4.9-25.03,7.83-2.47.91-4.99,1.68-7.54,2.32-2.56.64-5.14,1.14-7.75,1.5-.18-.08-.37-.16-.55-.24-4.08-1.75-8.52-1.53-12.49-3.23l-.14-.67c-.4-1.82-.55-3.4-2.3-4.41-3.22-1.84-14.45-3.1-18.79-4.24-16.03-4.22-29.14-10.51-43.52-18.6-3.06-1.72-7.9-3.57-9.84-6.57-.15-.23-.3-.45-.44-.67-4.7-7.46-7.81-16.96-11.02-25.15-5.84-14.9-11.57-30.06-19.23-44.14-5.8-10.67-12.77-19.96-21.47-28.44-3.78-3.68-8.39-7.14-11.62-11.3-2.52-3.25-3.84-7.54-6.26-11.04,4.23-7.42,8.37-14.78,11.91-22.57,7.38,1.78,18.23,5.31,25.23,1.05,1.84-1.12,3.2-2.72,4.18-4.62,3.47-6.73,5.23-20.29,8.7-28.87,2.79-.86,7.39-2.71,8.79-5.46.74-1.46.82-2.85.17-4.37-1.95-4.58-7.82-8.15-11.16-11.83.48-7.61,1.19-15.3.86-22.93,7.1-7.71,12.08-15.79,15.94-25.55-3.68-3.38-8.67-5.8-13.11-8.09-19.21-9.91-39.24-15.94-61.08-15.06-12.09.49-25.07,3.58-33.57,12.8-10.12,10.97-11.94,26.2-15.49,40.05-2.1,8.17-4.77,16.72-8.58,24.25-1.36,2.68-2.89,5.25-4.61,7.72-1.71,2.47-3.59,4.8-5.63,7.01-2.81,3.02-11.02,8.77-12.21,11.5.14,1.2.11,1.36,1.12,2.15,5.73,4.5,20.7,9.18,27.85,11.17-2.34,3.86-4.82,8.89-8,12.06-3.8,3.79-9.14,6.38-13.52,9.48-4.57,3.2-8.99,6.61-13.26,10.22-4.26,3.61-8.35,7.4-12.27,11.37-27.9,28.85-40.44,67.24-51.35,104.97-2.91,10.08-4.82,20.85-8.64,30.62-3.75-17.43-8.32-35.08-13.15-52.24-2.6-9.23-6.25-18.79-7.87-28.21l-51.97-16.72c-8.11-2.61-17.61-7.25-26.05-7.91l-.52.52.12-.51-.37.1c-.51,1.21-.45,1.71.1,2.92,3.65,8.2,8.55,15.79,11.94,24.16,21.83,53.93,32.57,115.14,36.37,172.97.62,9.36,1.2,18.8,1.35,28.17.13,8.34-1.27,29.65.77,36.39,3.09,10.17,12.96,16.6,22.54,19.78,9.95,3.3,20.74,4.18,31.16,4.09-5.9,22.44-10.44,45.33-15.83,67.91-4.27,17.77-8.44,35.56-12.52,53.37-1.92,8.25-4.23,16.53-5.85,24.84-14.38-.01-28.79.15-43.17-.05Z"/>
  <path class="cls-10" d="M617.96,584.99c3.71-.28,7.3.05,10.72,1.62.27.12.53.25.8.39.26.14.52.28.78.43.26.15.51.3.75.47.25.16.49.33.73.5.24.17.47.35.7.54.23.19.45.38.67.58.22.2.43.4.64.61.21.21.41.42.61.64.2.22.39.44.58.67.19.23.37.46.54.7.17.24.34.48.51.73.16.25.32.5.47.75s.29.51.43.78c.14.26.27.53.39.8.12.27.24.54.35.82.11.27.21.55.3.83.18.52.34,1.04.46,1.57.13.53.23,1.07.3,1.61.07.54.12,1.09.14,1.63.02.55,0,1.09-.03,1.64-.04.54-.1,1.09-.2,1.62-.09.54-.21,1.07-.36,1.6s-.32,1.04-.52,1.55c-.2.51-.43,1-.68,1.49-2.36,4.5-6.1,6.48-10.75,7.88-3.65.8-7.65.39-11.11-1.02-4.17-1.69-7.43-4.89-9.08-9.08-1.71-4.37-1.61-9.45.49-13.67,2.45-4.94,6.44-6.96,11.38-8.66Z"/>
  <path class="cls-3" d="M619.36,589.03c2.71.02,5.43.29,7.93,1.45,3.37,1.56,6.08,4.47,7.17,8.04.9,2.95.66,6.2-.87,8.91-1.89,3.35-4.77,4.91-8.32,6.01-1.18.09-2.36.11-3.55.07-3.55-.14-7.26-1.28-9.68-4.01-3.16-3.55-3.08-7.85-2.92-12.29.23-.41.46-.82.7-1.22,2.45-4.12,4.92-5.79,9.54-6.95Z"/>
  <path class="cls-10" d="M619.61,593.93c.89-.08,1.83-.17,2.73-.09,2.07.2,4.39,1.9,5.51,3.61.13.2.25.41.36.62.11.21.21.43.29.66.09.22.16.45.23.68.07.23.12.47.16.7s.07.48.09.72c.02.24.03.48.02.72,0,.24-.02.48-.05.72-.03.24-.07.48-.12.71-.55,2.54-2.19,3.56-4.25,4.87-1.16.07-2.36.16-3.52.08-1.86-.13-3.78-1.32-4.9-2.78-1.17-1.52-1.5-3.32-1.15-5.18.53-2.85,2.35-4.45,4.61-6.05Z"/>
  <path class="cls-6" d="M619.99,598.27h.23c.83.05,1.8.04,2.6.28,1.31.39,1.74,1.17,2.28,2.31-.06,1.57-.66,2.27-1.57,3.45-.81,0-1.76.01-2.54-.2-1.28-.35-1.7-1.04-2.28-2.14-.02-1.65.42-2.37,1.28-3.69Z"/>
  <path class="cls-10" d="M527.92,157.73c3.2,1.6,16.75,17.23,21.15,21.03-7.11,7.47-14.5,14.88-22.06,21.91-7.06-7.03-13.87-14.32-21.06-21.22,7.2-7.36,14.53-14.6,21.97-21.72Z"/>
  <path class="cls-3" d="M528.02,162.83c5.14,5.38,10.11,10.91,15.27,16.28-5.22,5.3-10.25,10.98-15.95,15.77-5.78-4.27-10.96-10.39-16.01-15.52,5.68-5.38,11.07-11.08,16.69-16.54Z"/>
  <path class="cls-10" d="M698.36,40.49c3.06-.33,6.33.55,9.09,1.85,3.83,1.8,6.8,5.3,8.09,9.31,1.45,4.52.73,9.38-1.59,13.47-2.93,5.17-7.02,7.4-12.54,8.82.48,11.25,1.06,22.5,1.72,33.74,1.64.36,3.37.73,4.95,1.31,4.66,1.71,8.77,5.17,10.9,9.68,2.41,5.09,2.08,11.19.34,16.44,11.87,8.75,24,17.12,35.82,25.97,3.18-3.05,6.86-5.14,11.13-6.26.38-.1.76-.19,1.14-.28.38-.08.77-.16,1.16-.22s.78-.12,1.17-.16c.39-.04.78-.08,1.17-.1.39-.02.78-.04,1.18-.05.39,0,.79,0,1.18.01.39.01.78.04,1.18.07.39.03.78.08,1.17.13.39.05.78.12,1.16.19.39.07.77.15,1.15.25.38.09.76.19,1.14.3.38.11.75.23,1.12.36.37.13.74.27,1.1.41.36.15.72.3,1.08.47.36.16.71.34,1.06.52.35.18.69.37,1.03.57,5.89,3.53,10.15,9.69,11.66,16.36,1.45,6.39-.02,14.02-3.63,19.5-4.16,6.32-11.36,9.73-18.58,11.1-.33,16.03.1,32.18.12,48.22l.5.06c5.03.67,9.63,2.79,12.69,6.97.35.48.67.97.97,1.48s.57,1.03.82,1.57c.25.54.47,1.08.66,1.64.19.56.36,1.12.49,1.7.14.57.24,1.15.32,1.74.08.58.13,1.17.15,1.76.02.59.01,1.18-.03,1.77-.04.59-.1,1.17-.2,1.76-.1.59-.24,1.17-.4,1.75-.16.58-.36,1.14-.58,1.7-.22.56-.47,1.1-.74,1.64-.28.53-.58,1.05-.9,1.55-.33.5-.68.99-1.06,1.46s-.77.91-1.2,1.34c-.42.43-.86.83-1.32,1.22-.46.38-.94.74-1.44,1.08-3.64,2.44-7.98,3.39-12.28,2.45-.31-.07-.62-.14-.92-.23-.31-.08-.61-.17-.91-.27-.3-.1-.6-.21-.9-.32-.3-.11-.59-.24-.88-.37-.29-.13-.58-.27-.86-.41-.28-.14-.56-.3-.84-.46-.27-.16-.54-.33-.81-.5-.27-.17-.53-.35-.78-.54-.26-.19-.51-.38-.75-.58-.25-.2-.49-.41-.72-.62-.24-.21-.47-.43-.69-.65-.22-.22-.44-.45-.65-.69-.21-.24-.42-.48-.62-.72-.2-.25-.39-.5-.58-.75-.19-.26-.37-.52-.54-.78-.17-.27-.34-.54-.5-.81-2.19-3.72-2.99-8.06-1.78-12.25,1.91-6.59,7.47-10.88,13.25-13.95.08-15.96.03-31.92-.16-47.88-9.07-1.9-14.52-5.7-19.97-12.95-5.34,2.38-10.29,6.04-15.21,9.18l-24.98,15.98c.5.98.83,1.92,1.09,2.99,1.05,4.34.27,8.82-2.11,12.59-.3.48-.62.94-.96,1.38-.34.44-.71.87-1.09,1.28-.38.41-.79.8-1.21,1.17-.42.37-.86.71-1.32,1.04-.46.33-.93.63-1.42.91-.49.28-.99.53-1.5.76-.51.23-1.03.43-1.57.61-.53.18-1.07.33-1.62.45-5.54,1.25-10.14-.25-14.81-3.13-12.03,11.14-25.48,20.99-38.01,31.61,1.98,2.94,3.17,5.71,4.12,9.1-.56,2.16-1.11,4.35-2.1,6.36-1.77,3.56-4.59,6.51-8.44,7.74-.45.14-.91.26-1.37.35-.46.09-.93.16-1.4.21-.47.05-.94.07-1.41.07-.47,0-.94-.03-1.41-.08-.47-.05-.93-.12-1.4-.22-.46-.1-.92-.22-1.37-.36-.45-.14-.89-.31-1.32-.5-.43-.19-.85-.4-1.27-.63-3.66-2.04-6.47-5.68-7.42-9.77-1.05-4.55.14-8.17,2.58-11.98-5.34-2.67-33.87-20.21-36.34-20.57l-.86,1.01c-2.17,1.95-4.76,3.39-7.65,3.89-3.99.7-7.59-.49-10.88-2.71-8.52,10.32-17.94,20.14-25.91,30.87,1.13,1.82,2.18,3.59,2.85,5.64,1.43,4.39.79,8.38-1.46,12.36-2.27,4.02-5.59,6.67-10.05,7.9-4.31,1.18-8.77.53-12.6-1.76-3.77-2.26-6.22-5.89-7.2-10.15-.07-.28-.13-.57-.18-.86s-.1-.58-.13-.87c-.04-.29-.07-.58-.09-.87-.02-.29-.04-.58-.04-.88,0-.29,0-.58,0-.88,0-.29.02-.58.04-.87.02-.29.05-.58.09-.87.04-.29.08-.58.13-.87.05-.29.11-.57.18-.86.07-.28.14-.57.22-.85.08-.28.17-.56.26-.83s.2-.55.31-.82c.11-.27.23-.54.35-.8.12-.26.25-.53.39-.78.14-.26.28-.51.43-.76.15-.25.3-.5.47-.74.3-.44.62-.86.96-1.26.34-.4.7-.79,1.08-1.15.38-.37.78-.71,1.19-1.04.42-.33.85-.63,1.29-.91.45-.28.91-.54,1.38-.77.47-.23.96-.44,1.45-.63.49-.19,1-.34,1.51-.48.51-.13,1.03-.24,1.55-.32,4.66-.75,8.49.42,12.2,3.2,8.94-10.1,18.15-20.29,26.4-30.96-.08-.19-.16-.38-.24-.56-.89-1.93-1.61-3.56-1.79-5.72-.31-3.76.38-7.71,3.05-10.52,4.11-4.32,9.48-4.38,15.01-4.53,6.44-5.67,17.51-22.74,22.65-30.57-1.61-1.65-3.35-3.36-4.66-5.27-.22-.33-.44-.66-.64-1-.21-.34-.4-.68-.59-1.03-.19-.35-.37-.7-.54-1.06-.17-.36-.34-.72-.49-1.08-.16-.37-.3-.73-.44-1.11-.14-.37-.27-.75-.38-1.13-.12-.38-.23-.76-.33-1.15-.1-.38-.19-.77-.27-1.16-.08-.39-.15-.78-.22-1.17-.06-.39-.12-.79-.16-1.18-.04-.39-.08-.79-.1-1.19s-.04-.79-.05-1.19c0-.4,0-.79,0-1.19.01-.4.04-.79.07-1.19.03-.4.07-.79.12-1.18.05-.39.11-.79.18-1.18,1.53-8.23,7.29-13.27,13.89-17.63-3.85-14.98-9.57-29.49-13.99-44.32-.84.02-1.7.04-2.54-.04-5.89-.54-11.93-3.47-15.58-8.18-3.08-3.98-4.01-8.56-3.22-13.47.84-5.24,3.37-10.27,7.83-13.32,4.15-2.83,9.96-3.75,14.84-2.62,5.16,1.2,9.61,4.89,12.2,9.45.16.28.31.56.46.84.14.28.28.57.41.86.13.29.25.59.37.89.11.3.22.6.32.9.1.3.19.61.27.92.08.31.16.62.22.93.07.31.13.63.18.94.05.32.09.63.13.95.03.32.06.64.08.96.02.32.03.64.03.96,0,.32,0,.64-.02.96-.01.32-.04.64-.07.96-.03.32-.07.64-.12.95-.05.32-.1.63-.17.94-.06.31-.14.62-.22.93-.08.31-.17.62-.27.92-1.87,5.83-6.07,9.76-11.41,12.38,5.3,14.24,9.85,29.07,13.81,43.74,10.01-1.11,16.62.73,24.47,6.99,6.19-2.58,12.11-6.12,17.96-9.39,9.84-5.5,19.59-11.18,29.57-16.4-.1-.48-.21-.95-.3-1.43-1.07-5.9-.9-11.6,2.81-16.62,3.18-4.3,7.56-6.71,12.76-7.55-.79-11.39-.94-22.89-2.08-34.25-1.63-.66-3.31-1.31-4.85-2.16-4.21-2.35-7.56-6.4-8.73-11.12-.13-.53-.23-1.06-.31-1.6-.07-.54-.12-1.08-.14-1.62-.02-.54-.01-1.09.02-1.63.04-.54.1-1.08.19-1.62.09-.54.21-1.07.35-1.59.14-.52.32-1.04.51-1.55s.42-1,.66-1.49c.25-.48.52-.95.81-1.41,2.99-4.59,7.54-6.68,12.73-7.74Z"/>
  <path class="cls-14" d="M574.46,229.92c1.19.02,2.19.17,3.34.5,2.85.82,5.47,2.37,6.81,5.12,1.03,2.11,1.07,4.52.24,6.71-1.29,3.38-4.03,5.26-7.21,6.67-2.49.16-4.54.15-6.79-1.1-.26-.14-.52-.3-.77-.47-.25-.17-.49-.35-.72-.55-.23-.19-.45-.4-.66-.61s-.41-.44-.6-.67c-.19-.24-.36-.48-.53-.73-.16-.25-.32-.51-.46-.78s-.26-.54-.38-.82c-.11-.28-.21-.56-.29-.85-.09-.3-.16-.61-.21-.92-.06-.31-.1-.62-.12-.94-.02-.31-.03-.63-.02-.95,0-.32.03-.63.07-.94.04-.31.09-.62.16-.93.07-.31.16-.61.26-.91.1-.3.21-.59.34-.88.13-.29.27-.57.43-.84,1.66-2.91,3.99-4.16,7.11-5.09Z"/>
  <path class="cls-3" d="M632.78,266.42c1.42.08,2.76.41,4.05,1,4.5,2.08,6.56,6.02,8.27,10.4-.38,1.12-.81,2.23-1.3,3.31-1.72,3.79-4.03,5.43-7.84,6.85-1.17.07-2.25.11-3.4-.18-2.85-.71-5.58-2.3-7.01-4.95-1.42-2.63-1.55-5.73-.57-8.53,1.39-3.94,4.11-6.19,7.79-7.91Z"/>
  <path class="cls-2" d="M526.56,278.97c2.86-.18,5.28-.02,7.82,1.44,4.05,2.32,5.66,6.3,6.81,10.57-.35,1.59-.67,3.23-1.35,4.72-1.82,3.98-4.66,5.76-8.62,7.28-2.75.52-5.35.6-7.96-.59-3.1-1.41-5.39-4.05-6.47-7.26-1.1-3.26-.92-7,.75-10.03,2.1-3.83,5.02-5,9.02-6.12Z"/>
  <path class="cls-2" d="M698.19,44.56c2.6-.23,4.64-.07,7.04,1.08,3.15,1.5,5.45,4.09,6.46,7.44.12.41.22.83.3,1.25.08.42.14.85.18,1.27.04.43.05.86.05,1.28,0,.43-.03.86-.08,1.28-.05.43-.12.85-.21,1.27-.09.42-.2.83-.34,1.24-.13.41-.29.81-.46,1.2s-.37.78-.58,1.15c-2.31,4.06-5.56,5.52-9.82,6.77-2.03-.17-4.1-.25-5.94-1.21-3.46-1.8-6.09-4.65-7.13-8.46-.11-.4-.19-.8-.26-1.2-.07-.41-.11-.81-.13-1.22-.02-.41-.03-.82-.01-1.23.02-.41.06-.82.11-1.23.06-.41.14-.81.24-1.21.1-.4.22-.79.36-1.18.14-.39.3-.76.48-1.13.18-.37.37-.73.59-1.08,2.12-3.49,5.32-5.11,9.15-6.09Z"/>
  <path class="cls-2" d="M691.95,210c2.75-.1,5.07,0,7.52,1.36.43.24.85.49,1.26.77.41.28.8.58,1.18.89.38.32.74.65,1.08,1.01.34.35.67.72.98,1.11.31.39.6.79.86,1.2.27.41.52.84.74,1.28.23.44.43.89.61,1.35.18.46.34.93.48,1.4.85,3.01.52,6.14-1.03,8.87-2.1,3.71-5.34,5.55-9.31,6.74-3.44.17-6.2.03-9.24-1.79-4.19-2.5-5.75-6.77-6.83-11.25.68-2.19,1.53-4.54,2.69-6.53,2.13-3.65,5.01-5.32,8.99-6.39Z"/>
  <path class="cls-3" d="M769.69,257.02c2.77-.3,5.77-.45,8.4.6,3.6,1.43,6.27,4.15,7.63,7.77,1.24,3.28,1.23,7.15-.25,10.35-1.78,3.87-4.95,5.77-8.77,7.28-2.16.36-4.18.52-6.33-.03-3.49-.9-6.31-2.87-8.1-6.03-.22-.38-.42-.78-.6-1.18-.18-.4-.34-.81-.48-1.23s-.26-.84-.35-1.27c-.1-.43-.17-.87-.22-1.3-.05-.44-.08-.88-.09-1.32,0-.44,0-.88.05-1.32.04-.44.1-.88.18-1.31.08-.43.19-.86.31-1.29,1.4-4.73,4.53-7.34,8.61-9.71Z"/>
  <path class="cls-2" d="M699.41,111.97c2.52,0,5.28.16,7.64,1.06,3.79,1.43,6.94,4.21,8.6,7.93.2.43.37.88.52,1.33.15.45.28.91.38,1.38.1.46.18.93.23,1.41.05.47.08.95.08,1.42,0,.48-.02.95-.06,1.42-.05.47-.12.94-.21,1.41-.1.47-.21.93-.36,1.38-.14.45-.31.9-.5,1.34-2.06,4.78-5.82,7.33-10.47,9.13-3.52.41-6.9.25-10.12-1.38-.44-.22-.87-.47-1.28-.73-.42-.27-.82-.55-1.2-.86-.39-.31-.76-.63-1.11-.98-.35-.34-.69-.71-1.01-1.08-.32-.38-.61-.77-.89-1.18-.28-.41-.53-.83-.77-1.26-.23-.43-.45-.88-.63-1.33-.19-.46-.36-.92-.5-1.39-.14-.47-.26-.94-.36-1.42-.1-.48-.17-.96-.22-1.45-.05-.49-.07-.97-.07-1.46s.02-.98.07-1.46c.05-.49.12-.97.22-1.45.1-.48.22-.95.36-1.42.14-.47.31-.93.5-1.38s.4-.89.63-1.32c2.36-4.29,6.05-6.24,10.53-7.63Z"/>
  <path class="cls-3" d="M588.37,75.98c3.06-.28,5.88-.04,8.74,1.18,3.85,1.64,6.93,4.77,8.3,8.75,1.31,3.79,1.01,8.21-.75,11.81-2.23,4.57-5.64,6.32-10.17,7.96-3.41.43-6.2.44-9.33-1.14-.44-.23-.87-.48-1.29-.75-.42-.27-.82-.56-1.21-.87-.39-.31-.76-.64-1.11-.98-.36-.35-.69-.71-1.01-1.09-.32-.38-.62-.77-.9-1.18-.28-.41-.54-.83-.78-1.26-.24-.43-.46-.88-.65-1.34-.2-.46-.37-.92-.52-1.39-.16-.51-.3-1.02-.41-1.54-.11-.52-.19-1.04-.25-1.57-.06-.53-.09-1.06-.09-1.59,0-.53.02-1.06.07-1.59.05-.53.13-1.05.23-1.57.1-.52.23-1.03.39-1.54.16-.51.34-1.01.55-1.49.21-.49.44-.96.69-1.43,2.12-3.85,5.32-6.2,9.5-7.36Z"/>
  <path class="cls-14" d="M616.96,156.06c.61-.03,1.22-.03,1.83,0,.61.02,1.22.07,1.82.15.61.08,1.21.18,1.81.3.6.13,1.19.28,1.77.46.58.18,1.16.38,1.73.61.57.23,1.12.48,1.67.76.54.28,1.08.57,1.6.9.52.32,1.02.66,1.51,1.03,3.94,2.97,6.56,7.26,7.24,12.16.05.36.08.72.11,1.07.03.36.05.72.06,1.08.01.36.01.72,0,1.08,0,.36-.02.72-.05,1.08-.02.36-.06.72-.1,1.08-.04.36-.09.71-.15,1.07-.06.36-.13.71-.21,1.06-.08.35-.16.7-.26,1.05-.09.35-.2.69-.31,1.04-.11.34-.23.68-.36,1.02-.13.34-.26.67-.41,1-.15.33-.3.66-.46.98-.16.32-.33.64-.51.96-.18.31-.36.62-.55.93-.19.31-.39.61-.6.9-.21.29-.42.58-.64.87-3.82,4.95-8.61,7.25-14.64,8.15-3.88-.06-8.43-1.15-11.74-3.15-4.64-2.81-7.54-7.48-8.64-12.73-.07-.33-.13-.65-.19-.98-.05-.33-.1-.66-.14-.99-.04-.33-.07-.66-.09-1-.02-.33-.03-.66-.03-1,0-.33,0-.67.01-1,.01-.33.04-.67.07-1,.03-.33.07-.66.12-.99.05-.33.1-.66.17-.99.06-.33.14-.65.22-.97.08-.32.17-.64.27-.96s.2-.63.31-.95c.11-.31.23-.62.36-.93.13-.31.26-.61.41-.91.14-.3.3-.6.46-.89.16-.29.33-.58.5-.87.17-.28.35-.56.54-.84,3.73-5.55,9.03-8.44,15.48-9.61Z"/>
  <path class="cls-14" d="M769.81,158.5c4.22-.43,8.24.01,12.03,2.05,4.72,2.54,8.21,7.1,9.72,12.21,1.62,5.51,1.12,11.96-1.72,16.98-3.12,5.53-8.4,8.54-14.34,10.18-4.69.86-9.32.33-13.55-1.97-.29-.16-.58-.33-.86-.5-.28-.17-.56-.35-.83-.54-.27-.19-.54-.38-.81-.58-.26-.2-.52-.41-.78-.62-.25-.21-.5-.43-.74-.66-.24-.23-.48-.46-.71-.7-.23-.24-.46-.48-.68-.73-.22-.25-.43-.5-.64-.76-.21-.26-.41-.52-.6-.79-.19-.27-.38-.54-.56-.82-.18-.28-.35-.56-.52-.85-.17-.29-.32-.58-.47-.88-.15-.3-.29-.6-.43-.9-.14-.3-.26-.61-.39-.92-.12-.31-.23-.62-.34-.93-.11-.32-.2-.63-.29-.95-.1-.37-.2-.74-.28-1.12-.08-.38-.16-.75-.22-1.13-.06-.38-.12-.76-.16-1.14-.05-.38-.08-.76-.11-1.15s-.04-.77-.05-1.15c0-.38,0-.77.01-1.15.01-.38.04-.77.07-1.15.03-.38.07-.76.13-1.15.05-.38.11-.76.18-1.14.07-.38.15-.75.24-1.13.09-.37.19-.74.3-1.11.11-.37.23-.73.36-1.1.13-.36.27-.72.41-1.08.15-.36.3-.71.47-1.06.16-.35.34-.69.52-1.03.18-.34.37-.67.57-1,3.54-5.78,8.72-8.14,15.07-9.54Z"/>
  <path class="cls-1" d="M635.54,192.78c4.71,1.43,10.22,5.54,14.57,8.05,9.26,5.34,18.71,10.42,27.66,16.28-.21.67-.4,1.34-.58,2.02-1.35,5.4.35,9.56,3.1,14.1-10.94,11.94-25.26,21.32-37.58,31.86-5.19-1.51-9.19-2.79-14.48-.82l-3.7,2.38-.63-.63c-7.02-7.17-25.8-16.17-35.15-21.64.65-1.82,1.16-3.52,1.09-5.47-.16-4.41-2.43-7.79-5.54-10.76,7.87-9.5,15.05-20.03,22.21-30.1,3.58,1.24,7.03,2.29,10.86,2.38,7.3.16,12.99-2.78,18.17-7.65Z"/>
  <path class="cls-1" d="M685.63,136.95c.4.41.8.81,1.2,1.21,4.53,4.5,9.68,7.36,16.22,7.17,5.84-.17,9.77-2.82,13.65-6.9,12.18,7.95,23.75,16.66,35.52,25.19-4.64,7.88-6.16,14.77-3.98,23.73-13.31,8.35-26.44,17.99-40.35,25.21-1.35-.09-1.87-1-2.82-1.91-3.26-2.93-7.02-4.92-11.51-4.74-5.65.23-9.54,3.24-13.29,7.1-5.89-2.69-11.51-6.18-17.14-9.38l-24.89-14.03c1.03-1.94,2.08-3.91,2.79-6,2.34-6.9,1.29-13.93-1.81-20.36,15.11-8.37,32.27-16.71,46.41-26.31Z"/>
  <path class="cls-12" d="M330.16,647.33h602.19v23.57H353.73c-13.01,0-23.57-10.56-23.57-23.57h0Z"/>
</svg>